<svg width="16" height="14" viewBox="0 0 16 14" fill="none" xmlns="http://www.w3.org/2000/svg">
<path d="M0 1.09375C0 0.626172 0.382143 0.25 0.857143 0.25H15.1429C15.6179 0.25 16 0.626172 16 1.09375C16 1.56133 15.6179 1.9375 15.1429 1.9375H0.857143C0.382143 1.9375 0 1.56133 0 1.09375ZM0 6.71875C0 6.25117 0.382143 5.875 0.857143 5.875H15.1429C15.6179 5.875 16 6.25117 16 6.71875C16 7.18633 15.6179 7.5625 15.1429 7.5625H0.857143C0.382143 7.5625 0 7.18633 0 6.71875ZM16 12.3438C16 12.8113 15.6179 13.1875 15.1429 13.1875H0.857143C0.382143 13.1875 0 12.8113 0 12.3438C0 11.8762 0.382143 11.5 0.857143 11.5H15.1429C15.6179 11.5 16 11.8762 16 12.3438Z" fill="white"/>
</svg>
