<svg width="34" height="34" viewBox="0 0 34 34" fill="none" xmlns="http://www.w3.org/2000/svg">
<path fill-rule="evenodd" clip-rule="evenodd" d="M5.1 0H28.9C31.7167 0 34 2.28335 34 5.1V28.9C34 31.7167 31.7167 34 28.9 34H5.1C2.28335 34 0 31.7167 0 28.9V5.1C0 2.28335 2.28335 0 5.1 0ZM7.03902 15.1406C6.64058 12.4843 10.7578 8.0351 17.1328 5.84369C21.8476 4.24994 27.2265 5.24604 27.0937 8.96479C26.6289 16.0038 15.871 17.5312 14.5429 14.2109C14.2773 13.4804 14.7421 13.6796 14.875 13.9453C17.3984 16.3359 24.5703 13.5468 25.3671 9.42963C25.8984 6.70697 21.7148 5.51166 15.8046 8.49994C9.89448 11.4882 9.56245 13.8788 9.49605 14.8085C9.40651 16.5097 10.7354 17.5469 12.2824 18.7543C13.0301 19.3379 13.8288 19.9613 14.5429 20.7187C18.3281 19.7226 21.3828 21.0507 21.3828 23.9062C21.3828 25.0351 20.3867 25.6992 19.9218 25.832C19.457 25.9648 18.9921 25.832 19.7226 25.5663C20.4531 25.3007 21.5156 23.6406 19.457 22.1796C18.9257 21.7812 17.1328 21.1171 15.0742 21.6484C16.0039 24.371 14.5429 26.9609 13.082 27.8906C11.621 28.8203 8.16792 29.8163 8.03511 26.6288C7.9687 24.3046 10.8906 22.5117 13.2148 21.3163C12.8455 21.0291 12.3833 20.7109 11.8786 20.3635C9.9327 19.024 7.35539 17.2497 7.03902 15.1406ZM9.89448 26.164C9.82808 26.5624 9.76167 27.6249 11.4218 27.0937C12.8164 26.6953 14.6093 24.7695 13.8125 22.246C11.0234 23.6406 10.0937 25.0351 9.89448 26.164Z" fill="#D7D7D7"/>
</svg>
