<svg width="34" height="34" viewBox="0 0 34 34" fill="none" xmlns="http://www.w3.org/2000/svg">
<g clip-path="url(#clip0_1075_7)">
<path d="M28.9 0H5.1C2.28335 0 0 2.28335 0 5.1V28.9C0 31.7167 2.28335 34 5.1 34H28.9C31.7167 34 34 31.7167 34 28.9V5.1C34 2.28335 31.7167 0 28.9 0Z" fill="#D7D7D7"/>
<path d="M17.1328 5.84381C10.7578 8.03522 6.64064 12.4844 7.03908 15.1407C7.43751 17.7969 11.4219 19.9219 13.2149 21.3165C10.8906 22.5118 7.96876 24.3048 8.03517 26.629C8.16798 29.8165 11.6211 28.8204 13.082 27.8907C14.543 26.961 16.0039 24.3712 15.0742 21.6485C17.1328 21.1173 18.9258 21.7813 19.457 22.1798C21.5156 23.6407 20.4531 25.3008 19.7227 25.5665C18.9922 25.8321 19.457 25.9649 19.9219 25.8321C20.3867 25.6993 21.3828 25.0352 21.3828 23.9063C21.3828 21.0508 18.3281 19.7227 14.543 20.7188C12.3516 18.3946 9.3633 17.3321 9.49611 14.8087C9.56251 13.879 9.89454 11.4883 15.8047 8.50006C21.7149 5.51178 25.8984 6.70709 25.3672 9.42975C24.5703 13.5469 17.3984 16.336 14.875 13.9454C14.7422 13.6798 14.2774 13.4805 14.543 14.211C15.8711 17.5313 26.6289 16.004 27.0938 8.96491C27.2266 5.24616 21.8477 4.25006 17.1328 5.84381ZM11.4219 27.0938C9.76173 27.6251 9.82814 26.5626 9.89455 26.1641C10.0938 25.0352 11.0235 23.6407 13.8125 22.2462C14.6094 24.7696 12.8164 26.6954 11.4219 27.0938Z" fill="#2F2F2F" />
</g>
<defs>
<clipPath id="clip0_1075_7">
<rect width="34" height="34" fill="white"/>
</clipPath>
</defs>
</svg>
