<svg width="128" height="40" viewBox="0 0 128 40" fill="none" xmlns="http://www.w3.org/2000/svg">
<g clip-path="url(#clip0_550_436)">
<path d="M33.1093 9.20755C27.868 6.01897 24.9294 4.23127 19.6881 1.04269C19.2061 0.763915 18.6607 0.61731 18.1058 0.61731C17.5509 0.61731 17.0055 0.763915 16.5235 1.04269C11.2818 4.23092 8.34305 6.01844 3.10141 9.20667C2.61772 9.50733 2.21865 9.92945 1.94275 10.4322C1.66685 10.935 1.52345 11.5015 1.52641 12.0769V28.383C1.52351 28.9587 1.66691 29.5255 1.94278 30.0287C2.21865 30.5319 2.61769 30.9546 3.10141 31.2558L6.62099 33.3877L6.64085 33.3991C8.4179 34.3214 9.09833 34.3214 9.88669 34.3214C12.6619 34.3214 14.3863 32.4996 14.3863 29.5663V13.7559C14.3879 13.5586 14.3123 13.3686 14.176 13.2277C14.0397 13.0868 13.8539 13.0065 13.6593 13.0044H11.7268C11.5322 13.0065 11.3464 13.0868 11.2101 13.2277C11.0738 13.3686 10.9981 13.5586 10.9997 13.7559V29.5663C11.0068 29.7926 10.956 30.017 10.8524 30.2175C10.7487 30.4181 10.5957 30.5881 10.4082 30.711C9.89878 31.0263 9.15877 30.9598 8.32378 30.5227L4.951 28.4636C4.93809 28.4546 4.92755 28.4426 4.92032 28.4285C4.91309 28.4145 4.90939 28.3988 4.90955 28.383V12.3073C4.91011 12.2888 4.91502 12.2707 4.92389 12.2545C4.93275 12.2384 4.94531 12.2246 4.9605 12.2144L18.0717 4.06882C18.0815 4.06388 18.0923 4.06131 18.1032 4.06131C18.1141 4.06131 18.1249 4.06388 18.1347 4.06882L31.2537 12.2144C31.2686 12.2255 31.2807 12.24 31.289 12.2567C31.2972 12.2735 31.3014 12.292 31.3012 12.3108V28.383C31.3015 28.3996 31.2982 28.416 31.2915 28.4312C31.2847 28.4463 31.2748 28.4598 31.2623 28.4706L18.1321 36.4103C18.1098 36.4182 18.0854 36.4182 18.0631 36.4103L14.7101 34.3906C14.6106 34.3246 14.4956 34.2865 14.3768 34.2802C14.2581 34.2739 14.1398 34.2996 14.034 34.3546L14.0047 34.3722C13.079 34.9283 12.8303 35.0729 11.972 35.3899C11.8321 35.4416 11.5031 35.5651 11.4746 35.8953C11.4462 36.2255 11.7587 36.4602 12.0368 36.624L16.5183 39.4154C16.9958 39.7056 17.5418 39.859 18.0985 39.8595H18.1485C18.6912 39.8509 19.2222 39.6977 19.6881 39.4154L33.1093 31.2585C33.5928 30.9563 33.9916 30.5331 34.2674 30.0295C34.5432 29.526 34.6867 28.959 34.6843 28.383V12.0769C34.687 11.5016 34.5435 10.9354 34.2677 10.4328C33.9918 9.93018 33.5928 9.5082 33.1093 9.20755Z" fill="#D7D7D7"/>
<path d="M22.5851 25.6721C19.3651 25.6721 18.6787 24.7594 18.4749 23.2862C18.4519 23.1108 18.3676 22.9496 18.2374 22.8319C18.1071 22.7142 17.9395 22.6479 17.7651 22.645H16.0554C15.8627 22.6492 15.6795 22.7306 15.5458 22.8714C15.4121 23.0123 15.3389 23.2011 15.3421 23.3965C15.3421 24.6736 15.7843 28.8418 22.5885 28.8418C24.6937 28.8418 26.4449 28.3426 27.6512 27.3975C28.8574 26.4525 29.5033 25.0773 29.5033 23.4386C29.5033 20.1497 27.3878 19.2493 23.2215 18.6607C18.9861 18.0634 18.9861 17.7594 18.9861 17.0938C18.9861 16.6147 18.9861 15.4927 22.048 15.4927C24.2266 15.4927 25.3931 15.7721 25.7662 17.2444C25.7992 17.4077 25.8862 17.5546 26.0128 17.6608C26.1393 17.767 26.2979 17.8263 26.4621 17.8286H28.1779C28.279 17.8276 28.3787 17.8048 28.4705 17.7616C28.5622 17.7184 28.6438 17.6558 28.7098 17.5781C28.8417 17.4219 28.9075 17.2192 28.8928 17.0141C28.6709 13.9004 26.4267 12.3212 22.0506 12.3212C18.0734 12.3212 15.6996 14.1386 15.6996 17.1822C15.6996 20.5193 18.1597 21.4626 21.8554 21.8533C26.1729 22.3061 26.1729 22.9665 26.1729 23.5498C26.1755 24.459 25.8033 25.6721 22.5851 25.6721Z" fill="#D7D7D7"/>
</g>
<g clip-path="url(#clip1_550_436)">
<path d="M65 27.6267L60.9676 25.2683C60.7133 25.1209 60.568 24.8261 60.568 24.5313V19.5936C60.568 19.2988 60.4227 19.004 60.1684 18.8566L58.4609 17.8617C58.352 17.788 58.2066 17.7511 58.0613 17.7511C57.916 17.7511 57.7707 17.788 57.6617 17.8617L55.9543 18.8566C55.7 19.004 55.5547 19.2988 55.5547 19.5936V24.5682C55.5547 24.863 55.4094 25.1209 55.1551 25.3052L51.1227 27.6635C51.0137 27.7372 50.832 27.7372 50.723 27.6635C50.5777 27.5898 50.5051 27.4424 50.5051 27.295L50.4688 16.6088C50.4688 16.314 50.6141 16.0192 50.8684 15.8718L57.6617 11.8921C57.7707 11.8184 57.916 11.7815 58.025 11.7815H58.0977C58.243 11.7815 58.352 11.8184 58.4609 11.8921L65.218 15.8718C65.4723 16.0192 65.6176 16.314 65.6176 16.6088V27.295C65.6176 27.4424 65.5449 27.5898 65.3996 27.6635C65.2906 27.7004 65.109 27.7004 65 27.6267ZM91.1199 24.7893V16.793C91.1199 16.4982 91.2652 16.2403 91.5195 16.056L98.3129 12.0763C98.5672 11.9289 98.8942 11.9289 99.1484 12.0763L100.856 13.0713C100.929 13.1081 101.074 13.1081 101.146 13.0713C101.219 13.0344 101.292 12.9239 101.292 12.8133V2.27447C101.292 2.12708 101.364 1.97968 101.51 1.90598C101.619 1.83228 101.8 1.83228 101.909 1.90598L105.942 4.19063C106.196 4.33802 106.378 4.63282 106.378 4.92761V24.7524C106.378 25.0472 106.232 25.3052 105.978 25.4894L99.1848 29.4691C98.9305 29.6165 98.6035 29.6165 98.3492 29.4691L91.5559 25.4894C91.2652 25.342 91.1199 25.0472 91.1199 24.7893ZM96.2059 22.1361C96.2059 22.2098 96.2422 22.2835 96.3149 22.3204L98.6399 23.6838C98.7125 23.7207 98.7852 23.7207 98.8578 23.6838L101.183 22.3204C101.255 22.2835 101.292 22.2098 101.292 22.1361V19.4093C101.292 19.3356 101.255 19.2619 101.183 19.2251L98.8578 17.8617C98.7852 17.8248 98.7125 17.8248 98.6399 17.8617L96.3149 19.2251C96.2422 19.2619 96.2059 19.3356 96.2059 19.4093V22.1361ZM126.213 15.9823L119.456 12.0026C119.202 11.8552 118.875 11.8552 118.62 12.0026L111.827 15.9823C111.573 16.1297 111.427 16.4245 111.427 16.7193V24.6787C111.427 24.9735 111.573 25.2683 111.827 25.4157L118.584 29.3217C118.838 29.4691 119.129 29.4691 119.383 29.3217L123.452 27.0371C123.597 26.9634 123.67 26.816 123.67 26.6686C123.67 26.5212 123.597 26.3738 123.452 26.3001L116.622 22.3204C116.477 22.2467 116.404 22.0993 116.404 21.9519V19.4462C116.404 19.2988 116.477 19.1514 116.622 19.0777L118.766 17.8248C118.875 17.7511 119.056 17.7511 119.165 17.8248L121.309 19.0777C121.454 19.1514 121.527 19.2988 121.527 19.4462V21.3992C121.527 21.5466 121.599 21.694 121.745 21.7677C121.89 21.8414 122.035 21.8414 122.144 21.7677L126.213 19.3725C126.467 19.2251 126.613 18.9303 126.613 18.6355V16.7193C126.613 16.3877 126.467 16.1297 126.213 15.9823ZM71.1758 25.342L77.9691 29.3217C78.2234 29.4691 78.5504 29.4691 78.8047 29.3217L85.5981 25.342C85.8524 25.1946 85.9977 24.8998 85.9977 24.605V16.6456C85.9977 16.3508 85.8524 16.056 85.5981 15.9086L78.8047 11.9289C78.5504 11.7815 78.2234 11.7815 77.9691 11.9289L71.1758 15.9455C70.9215 16.0929 70.7762 16.3877 70.7762 16.6825V24.6419C70.7762 24.9367 70.9215 25.1946 71.1758 25.342ZM111.645 43.6929L90.684 31.4221C89.3762 30.6483 87.5961 30.6483 86.2883 31.4221L65.327 43.6929C63.9828 44.4667 63.1473 45.9775 63.1473 47.562V72.0667C63.1473 73.6512 63.9828 75.162 65.327 75.9359L70.8125 79.1417C73.4645 80.4683 74.409 80.4683 75.6441 80.4683C79.5676 80.4683 81.8563 78.0363 81.8563 73.8355V49.6256C81.8563 49.2939 81.602 48.9992 81.2387 48.9992H78.5867C78.2598 48.9992 77.9691 49.2571 77.9691 49.6256V73.8355C77.9691 75.7148 76.0438 77.5572 72.9559 75.9727L67.216 72.6194C66.9981 72.5089 66.8891 72.2878 66.8891 72.0667V47.562C66.8891 47.3409 67.0344 47.083 67.216 46.9725L88.141 34.7017C88.3227 34.5911 88.6133 34.5911 88.7949 34.7017L109.72 46.9725C109.938 47.083 110.047 47.3041 110.047 47.562V72.0667C110.047 72.3246 109.938 72.5457 109.72 72.6563L88.7586 84.927C88.577 85.0376 88.2863 85.0376 88.1047 84.927L82.7281 81.6843C82.5828 81.5738 82.3648 81.5738 82.2195 81.6475C80.7301 82.495 80.4395 82.6056 79.059 83.1214C78.732 83.232 78.1871 83.4531 79.2406 84.0427L86.2156 88.2435C86.9059 88.6488 87.6688 88.8331 88.3953 88.8331C89.1582 88.8331 89.9211 88.612 90.6113 88.2435L111.573 75.9727C112.917 75.162 113.789 73.6881 113.789 72.1036V47.562C113.861 45.9775 113.026 44.5036 111.645 43.6929ZM95.8063 69.7452C89.5578 69.7452 88.1774 68.1607 87.7051 64.9917C87.6688 64.66 87.3781 64.4021 87.0149 64.4021H83.9633C83.6 64.4021 83.2731 64.6969 83.2731 65.1022C83.2731 69.1556 85.4164 73.946 95.7699 73.946C103.254 73.946 107.54 70.9612 107.54 65.7287C107.54 60.5698 104.089 59.1695 96.8234 58.2114C89.4852 57.2165 88.7223 56.7375 88.7223 54.9687C88.7223 53.5316 89.3399 51.6154 94.7891 51.6154C99.657 51.6154 101.437 52.6841 102.164 56.0005C102.236 56.2953 102.491 56.5532 102.818 56.5532H105.869C106.051 56.5532 106.232 56.4795 106.378 56.3321C106.523 56.1847 106.596 56.0005 106.559 55.8162C106.087 50.1046 102.345 47.4515 94.7891 47.4515C88.0684 47.4515 84.0359 50.3257 84.0359 55.153C84.0359 60.3855 88.032 61.8595 94.4984 62.4859C102.236 63.2598 102.854 64.4021 102.854 65.9497C102.89 68.6397 100.783 69.7452 95.8063 69.7452ZM119.093 18.9671C119.056 18.9303 118.984 18.9303 118.947 18.9671L117.639 19.741C117.603 19.7778 117.567 19.8147 117.567 19.8884V21.3992C117.567 21.436 117.603 21.5097 117.639 21.5466L118.947 22.3204C118.984 22.3572 119.056 22.3572 119.093 22.3204L120.4 21.5466C120.437 21.5097 120.473 21.4729 120.473 21.3992V19.8884C120.473 19.8515 120.437 19.7778 120.4 19.741L119.093 18.9671Z" fill="white"/>
</g>
<defs>
<clipPath id="clip0_550_436">
<rect width="34.875" height="40" fill="white"/>
</clipPath>
<clipPath id="clip1_550_436">
<rect width="78.4688" height="28.2012" fill="white" transform="translate(49 0.952393)"/>
</clipPath>
</defs>
</svg>
