<svg width="162" height="40" viewBox="0 0 162 40" fill="none" xmlns="http://www.w3.org/2000/svg">
<path d="M0 3.29602V36.7693H34V3.29602H0ZM18.2143 29.2976C18.2143 32.556 16.2593 34.1445 13.4292 34.1445C10.8732 34.1445 9.38947 32.8414 8.63661 31.2686L11.2382 29.7182C11.7399 30.5947 12.1208 31.3358 13.216 31.3358C14.1267 31.3358 14.875 30.9316 14.875 29.3588V18.8372H18.2143V29.2976ZM25.7542 34.0697C22.7876 34.0697 20.8705 32.7517 19.9348 30.9316L22.5402 29.447C23.2232 30.5483 24.115 31.2821 25.6897 31.2821C27.0133 31.2821 27.7821 30.7052 27.7821 29.8064C27.7821 28.7282 26.9905 28.3464 25.5296 27.7143L24.7312 27.3766C22.4256 26.4112 20.8971 25.1978 20.8971 22.6358C20.8971 20.277 22.7223 18.554 25.5751 18.554C27.6068 18.554 29.0662 19.1756 30.1173 20.9958L27.625 22.573C27.0771 21.6069 26.4866 21.2281 25.5713 21.2281C24.6356 21.2281 24.0421 21.8124 24.0421 22.573C24.0421 23.5167 24.6356 23.8985 26.0047 24.4828L26.8031 24.8198C29.5193 25.9659 31.0485 27.136 31.0485 29.7631C31.0493 32.5948 28.79 34.0697 25.7542 34.0697Z" fill="#D7D7D7"/>
<path d="M56.9399 11.6484V28H54.8062V11.6484H56.9399ZM62.1958 11.6484V13.4229H49.5615V11.6484H62.1958ZM67.3726 26.7422L70.753 15.8486H72.9766L68.1026 29.8755C67.9903 30.175 67.8405 30.4969 67.6534 30.8413C67.4737 31.1932 67.2416 31.5264 66.9571 31.8408C66.6726 32.1553 66.3282 32.4098 65.9239 32.6045C65.5271 32.8066 65.0516 32.9077 64.4976 32.9077C64.3329 32.9077 64.1232 32.8853 63.8687 32.8403C63.6141 32.7954 63.4344 32.758 63.3296 32.728L63.3184 31.0435C63.3783 31.0509 63.4719 31.0584 63.5992 31.0659C63.7339 31.0809 63.8275 31.0884 63.8799 31.0884C64.3516 31.0884 64.7522 31.0247 65.0816 30.8975C65.411 30.7777 65.688 30.5718 65.9126 30.2798C66.1447 29.9953 66.3431 29.6022 66.5079 29.1006L67.3726 26.7422ZM64.8907 15.8486L68.0464 25.2822L68.5855 27.4722L67.0918 28.2358L62.6221 15.8486H64.8907ZM77.3897 18.1846V32.6719H75.3009V15.8486H77.21L77.3897 18.1846ZM85.5767 21.8232V22.0591C85.5767 22.9425 85.4719 23.7624 85.2623 24.5186C85.0526 25.2673 84.7457 25.9186 84.3414 26.4727C83.9446 27.0267 83.4542 27.4572 82.8702 27.7642C82.2862 28.0711 81.6161 28.2246 80.8599 28.2246C80.0888 28.2246 79.4075 28.0973 78.816 27.8428C78.2245 27.5882 77.7229 27.2176 77.3111 26.731C76.8993 26.2443 76.5699 25.6603 76.3228 24.979C76.0832 24.2977 75.9185 23.5303 75.8287 22.6768V21.4189C75.9185 20.5205 76.087 19.7157 76.3341 19.0044C76.5811 18.2931 76.9068 17.6867 77.3111 17.1851C77.7229 16.6759 78.2208 16.2904 78.8048 16.0283C79.3888 15.7588 80.0626 15.624 80.8263 15.624C81.5899 15.624 82.2675 15.7738 82.859 16.0732C83.4504 16.3652 83.9483 16.7845 84.3526 17.3311C84.7569 17.8776 85.0601 18.5327 85.2623 19.2964C85.4719 20.0526 85.5767 20.8949 85.5767 21.8232ZM83.4879 22.0591V21.8232C83.4879 21.2168 83.4242 20.6478 83.297 20.1162C83.1697 19.5771 82.9713 19.1055 82.7017 18.7012C82.4397 18.2894 82.1028 17.9674 81.691 17.7354C81.2792 17.4958 80.7888 17.376 80.2198 17.376C79.6957 17.376 79.239 17.4658 78.8497 17.6455C78.4679 17.8252 78.1422 18.0685 77.8726 18.3755C77.6031 18.675 77.3822 19.0194 77.21 19.4087C77.0453 19.7905 76.9218 20.1873 76.8394 20.5991V23.5078C76.9892 24.0319 77.1988 24.526 77.4683 24.9902C77.7379 25.4469 78.0972 25.8175 78.5465 26.1021C78.9957 26.3791 79.561 26.5176 80.2423 26.5176C80.8038 26.5176 81.2867 26.4015 81.691 26.1694C82.1028 25.9299 82.4397 25.6042 82.7017 25.1924C82.9713 24.7806 83.1697 24.3089 83.297 23.7773C83.4242 23.2383 83.4879 22.6655 83.4879 22.0591ZM93.7296 28.2246C92.8836 28.2246 92.1162 28.0824 91.4274 27.7979C90.746 27.5059 90.1583 27.0978 89.6642 26.5737C89.1775 26.0496 88.8032 25.4282 88.5411 24.7095C88.2791 23.9907 88.1481 23.2046 88.1481 22.3511V21.8794C88.1481 20.8911 88.2941 20.0114 88.5861 19.2402C88.878 18.4616 89.2749 17.8027 89.7765 17.2637C90.2781 16.7246 90.8471 16.3166 91.4835 16.0396C92.1199 15.7625 92.7788 15.624 93.4601 15.624C94.3286 15.624 95.0773 15.7738 95.7062 16.0732C96.3426 16.3727 96.8629 16.792 97.2672 17.3311C97.6715 17.8626 97.971 18.4915 98.1656 19.2178C98.3603 19.9365 98.4576 20.7227 98.4576 21.5762V22.5083H89.3834V20.8125H96.38V20.6553C96.3501 20.1162 96.2377 19.5921 96.0431 19.083C95.8559 18.5739 95.5564 18.1546 95.1446 17.8252C94.7329 17.4958 94.1713 17.3311 93.4601 17.3311C92.9884 17.3311 92.5542 17.4321 92.1573 17.6343C91.7605 17.8289 91.4199 18.1209 91.1354 18.5103C90.8509 18.8996 90.63 19.375 90.4728 19.9365C90.3155 20.498 90.2369 21.1457 90.2369 21.8794V22.3511C90.2369 22.9276 90.3155 23.4704 90.4728 23.9795C90.6375 24.4811 90.8733 24.9229 91.1803 25.3047C91.4947 25.6865 91.8728 25.986 92.3146 26.2031C92.7638 26.4202 93.2729 26.5288 93.8419 26.5288C94.5756 26.5288 95.1971 26.3791 95.7062 26.0796C96.2153 25.7801 96.6608 25.3796 97.0426 24.8779L98.3004 25.8774C98.0384 26.2743 97.7052 26.6523 97.3009 27.0117C96.8966 27.3711 96.3987 27.6631 95.8072 27.8877C95.2233 28.1123 94.5307 28.2246 93.7296 28.2246ZM110.373 23.8672C110.373 23.4854 110.313 23.1484 110.193 22.8564C110.081 22.557 109.879 22.2874 109.587 22.0479C109.302 21.8083 108.905 21.5799 108.396 21.3628C107.895 21.1457 107.258 20.9248 106.487 20.7002C105.678 20.4606 104.948 20.1948 104.297 19.9028C103.646 19.6034 103.088 19.2627 102.624 18.8809C102.159 18.499 101.804 18.061 101.557 17.5669C101.31 17.0728 101.186 16.5075 101.186 15.8711C101.186 15.2347 101.317 14.647 101.579 14.1079C101.841 13.5688 102.216 13.1009 102.702 12.7041C103.196 12.2998 103.784 11.9854 104.465 11.7607C105.147 11.5361 105.907 11.4238 106.745 11.4238C107.973 11.4238 109.014 11.6597 109.867 12.1313C110.728 12.5955 111.383 13.2057 111.833 13.9619C112.282 14.7106 112.507 15.5117 112.507 16.3652H110.35C110.35 15.7513 110.219 15.2085 109.957 14.7368C109.695 14.2576 109.298 13.8833 108.767 13.6138C108.235 13.3368 107.561 13.1982 106.745 13.1982C105.974 13.1982 105.338 13.3143 104.836 13.5464C104.334 13.7785 103.96 14.0929 103.713 14.4897C103.473 14.8866 103.354 15.3395 103.354 15.8486C103.354 16.193 103.425 16.5075 103.567 16.792C103.717 17.069 103.945 17.3273 104.252 17.5669C104.567 17.8065 104.963 18.0273 105.443 18.2295C105.929 18.4316 106.509 18.6263 107.183 18.8135C108.112 19.0755 108.913 19.3675 109.587 19.6895C110.26 20.0114 110.814 20.3745 111.249 20.7788C111.69 21.1756 112.016 21.6286 112.226 22.1377C112.443 22.6393 112.551 23.2083 112.551 23.8447C112.551 24.5111 112.417 25.1138 112.147 25.6528C111.878 26.1919 111.492 26.6523 110.99 27.0342C110.489 27.416 109.886 27.7118 109.182 27.9214C108.486 28.1235 107.707 28.2246 106.846 28.2246C106.09 28.2246 105.345 28.1198 104.611 27.9102C103.885 27.7005 103.223 27.3861 102.624 26.9668C102.032 26.5475 101.557 26.0309 101.197 25.417C100.846 24.7956 100.67 24.0768 100.67 23.2607H102.826C102.826 23.8223 102.934 24.3052 103.152 24.7095C103.369 25.1063 103.664 25.4357 104.039 25.6978C104.421 25.9598 104.851 26.1545 105.33 26.2817C105.817 26.4015 106.322 26.4614 106.846 26.4614C107.603 26.4614 108.243 26.3566 108.767 26.147C109.291 25.9373 109.688 25.6379 109.957 25.2485C110.234 24.8592 110.373 24.3988 110.373 23.8672ZM120.322 26.5176C120.817 26.5176 121.273 26.4165 121.693 26.2144C122.112 26.0122 122.456 25.7352 122.726 25.3833C122.995 25.0239 123.149 24.6159 123.186 24.1592H125.163C125.125 24.8779 124.882 25.548 124.433 26.1694C123.991 26.7834 123.411 27.2812 122.692 27.6631C121.973 28.0374 121.183 28.2246 120.322 28.2246C119.409 28.2246 118.612 28.0636 117.93 27.7417C117.257 27.4198 116.695 26.978 116.246 26.4165C115.804 25.855 115.471 25.2111 115.246 24.4849C115.029 23.7511 114.921 22.9762 114.921 22.1602V21.6885C114.921 20.8724 115.029 20.1012 115.246 19.375C115.471 18.6413 115.804 17.9937 116.246 17.4321C116.695 16.8706 117.257 16.4289 117.93 16.1069C118.612 15.785 119.409 15.624 120.322 15.624C121.273 15.624 122.104 15.8187 122.816 16.208C123.527 16.5898 124.085 17.1139 124.489 17.7803C124.901 18.4391 125.125 19.1878 125.163 20.0264H123.186C123.149 19.5247 123.007 19.0718 122.759 18.6675C122.52 18.2632 122.19 17.9412 121.771 17.7017C121.359 17.4546 120.877 17.3311 120.322 17.3311C119.686 17.3311 119.151 17.4583 118.717 17.7129C118.29 17.96 117.949 18.2969 117.695 18.7236C117.447 19.1429 117.268 19.6108 117.155 20.1274C117.051 20.6366 116.998 21.1569 116.998 21.6885V22.1602C116.998 22.6917 117.051 23.2158 117.155 23.7324C117.26 24.249 117.436 24.717 117.683 25.1362C117.938 25.5555 118.279 25.8924 118.705 26.147C119.14 26.394 119.679 26.5176 120.322 26.5176ZM130.036 17.7578V28H127.959V15.8486H129.98L130.036 17.7578ZM133.832 15.7812L133.821 17.7129C133.649 17.6755 133.484 17.653 133.327 17.6455C133.177 17.6305 133.005 17.623 132.81 17.623C132.331 17.623 131.908 17.6979 131.541 17.8477C131.174 17.9974 130.864 18.207 130.609 18.4766C130.355 18.7461 130.152 19.068 130.003 19.4424C129.86 19.8092 129.767 20.2135 129.722 20.6553L129.138 20.9922C129.138 20.2585 129.209 19.5697 129.351 18.9258C129.501 18.2819 129.729 17.7129 130.036 17.2188C130.343 16.7171 130.733 16.3278 131.204 16.0508C131.684 15.7663 132.253 15.624 132.911 15.624C133.061 15.624 133.233 15.6427 133.428 15.6802C133.623 15.7101 133.757 15.7438 133.832 15.7812ZM138.47 15.8486V28H136.381V15.8486H138.47ZM136.224 12.6255C136.224 12.2886 136.325 12.0041 136.527 11.772C136.737 11.5399 137.044 11.4238 137.448 11.4238C137.845 11.4238 138.148 11.5399 138.358 11.772C138.575 12.0041 138.683 12.2886 138.683 12.6255C138.683 12.9474 138.575 13.2244 138.358 13.4565C138.148 13.6812 137.845 13.7935 137.448 13.7935C137.044 13.7935 136.737 13.6812 136.527 13.4565C136.325 13.2244 136.224 12.9474 136.224 12.6255ZM144.343 18.1846V32.6719H142.254V15.8486H144.163L144.343 18.1846ZM152.53 21.8232V22.0591C152.53 22.9425 152.425 23.7624 152.216 24.5186C152.006 25.2673 151.699 25.9186 151.295 26.4727C150.898 27.0267 150.408 27.4572 149.824 27.7642C149.24 28.0711 148.569 28.2246 147.813 28.2246C147.042 28.2246 146.361 28.0973 145.769 27.8428C145.178 27.5882 144.676 27.2176 144.264 26.731C143.853 26.2443 143.523 25.6603 143.276 24.979C143.037 24.2977 142.872 23.5303 142.782 22.6768V21.4189C142.872 20.5205 143.04 19.7157 143.287 19.0044C143.534 18.2931 143.86 17.6867 144.264 17.1851C144.676 16.6759 145.174 16.2904 145.758 16.0283C146.342 15.7588 147.016 15.624 147.78 15.624C148.543 15.624 149.221 15.7738 149.812 16.0732C150.404 16.3652 150.902 16.7845 151.306 17.3311C151.71 17.8776 152.013 18.5327 152.216 19.2964C152.425 20.0526 152.53 20.8949 152.53 21.8232ZM150.441 22.0591V21.8232C150.441 21.2168 150.378 20.6478 150.25 20.1162C150.123 19.5771 149.925 19.1055 149.655 18.7012C149.393 18.2894 149.056 17.9674 148.644 17.7354C148.233 17.4958 147.742 17.376 147.173 17.376C146.649 17.376 146.192 17.4658 145.803 17.6455C145.421 17.8252 145.096 18.0685 144.826 18.3755C144.556 18.675 144.336 19.0194 144.163 19.4087C143.999 19.7905 143.875 20.1873 143.793 20.5991V23.5078C143.943 24.0319 144.152 24.526 144.422 24.9902C144.691 25.4469 145.051 25.8175 145.5 26.1021C145.949 26.3791 146.514 26.5176 147.196 26.5176C147.757 26.5176 148.24 26.4015 148.644 26.1694C149.056 25.9299 149.393 25.6042 149.655 25.1924C149.925 24.7806 150.123 24.3089 150.25 23.7773C150.378 23.2383 150.441 22.6655 150.441 22.0591ZM160.728 15.8486V17.4434H154.158V15.8486H160.728ZM156.382 12.895H158.459V24.9902C158.459 25.402 158.523 25.7127 158.65 25.9224C158.778 26.132 158.942 26.2705 159.144 26.3379C159.347 26.4053 159.564 26.439 159.796 26.439C159.968 26.439 160.148 26.424 160.335 26.394C160.529 26.3566 160.675 26.3267 160.773 26.3042L160.784 28C160.619 28.0524 160.402 28.1011 160.133 28.146C159.871 28.1984 159.552 28.2246 159.178 28.2246C158.669 28.2246 158.201 28.1235 157.774 27.9214C157.348 27.7192 157.007 27.3823 156.752 26.9106C156.505 26.4315 156.382 25.7876 156.382 24.979V12.895Z" fill="white"/>
</svg>
