<svg width="99" height="45" viewBox="0 0 99 45" fill="none" xmlns="http://www.w3.org/2000/svg">
<g clip-path="url(#clip0_550_486)">
<path d="M0 8.66807C10.7533 8.66714 21.5057 8.6662 32.259 8.66807C31.6672 15.3103 31.0848 21.9525 30.4684 28.5928C30.1021 32.8368 29.7245 37.0809 29.3262 41.3221C27.0315 41.9259 24.7594 42.614 22.4657 43.2206C20.3588 43.8346 18.235 44.3906 16.1271 45H16.0648C14.059 44.4075 12.0333 43.8862 10.0274 43.2937C7.66004 42.66 5.31342 41.9531 2.94508 41.3221C2.63641 38.1431 2.35795 34.9621 2.08327 31.7812C1.56505 25.904 1.00152 20.0306 0.503118 14.1525C0.330378 12.3834 0.206722 10.6087 0 8.84339V8.66807ZM16.18 11.2884C16.1574 12.5643 16.197 13.8412 16.1574 15.1162C12.4685 15.1031 8.7786 15.1134 5.0897 15.1171C5.15295 16.3556 5.32002 17.5856 5.49182 18.8137C8.92397 18.9403 12.3608 18.809 15.793 18.9112C12.7903 20.249 9.75086 21.509 6.73498 22.8187C6.47634 22.9331 6.19977 23.0193 5.96851 23.1862C5.99399 24.5465 6.21487 25.8993 6.3121 27.2568C8.14145 27.2503 9.96985 27.2212 11.7992 27.2184C13.2651 27.2109 14.732 27.24 16.1979 27.2081C16.1281 29.445 16.2197 31.6846 16.1507 33.9215C15.1643 33.7762 14.1902 33.5578 13.2076 33.3843C12.4326 33.2165 11.6387 33.1293 10.8751 32.909C10.7665 31.8356 10.691 30.7584 10.5947 29.684C10.3739 29.6165 10.1398 29.6231 9.91133 29.6193C8.80315 29.6259 7.69402 29.6156 6.5849 29.6325C6.69345 31.6978 6.88035 33.7603 7.19846 35.8059C8.29153 36.089 9.3865 36.3665 10.4777 36.6618C12.1494 37.1137 13.8419 37.4896 15.5164 37.934C15.7156 37.9762 15.9166 38.0493 16.1234 38.0325C16.2348 39.3909 16.1489 40.7578 16.1696 42.1199C16.5557 42.0581 16.9352 41.9634 17.308 41.849C20.4777 40.994 23.6437 40.1231 26.8116 39.2596C26.9692 38.0221 27.0428 36.7762 27.1674 35.5359C27.4969 31.7653 27.8291 27.9946 28.1746 24.2249C28.5796 19.9124 28.9297 15.5953 29.3375 11.2828C24.9511 11.2865 20.5655 11.2743 16.18 11.2884Z" fill="#D7D7D7"/>
<path d="M16.1799 11.2885C20.5655 11.2744 24.951 11.2866 29.3374 11.2828C28.9297 15.5953 28.5795 19.9125 28.1745 24.225C27.829 27.9947 27.4968 31.7653 27.1673 35.536C27.0427 36.7763 26.9691 38.0222 26.8115 39.2597C23.6436 40.1232 20.4777 40.9941 17.3079 41.8491C16.9351 41.9635 16.5556 42.0582 16.1695 42.12C16.1488 40.7579 16.2347 39.391 16.1233 38.0325C16.1516 38.0269 16.2092 38.0157 16.2375 38.01C19.1854 37.275 22.1135 36.466 25.0548 35.7047C25.4267 31.561 25.8392 27.4191 26.1007 23.2669C23.5993 23.28 21.0969 23.2725 18.5955 23.2828C18.2311 23.2847 17.8667 23.2828 17.5043 23.2566C18.8503 22.5685 20.2662 22.0228 21.6481 21.4088C22.9744 20.8116 24.3167 20.2519 25.6476 19.666C25.9044 19.5488 26.1781 19.4513 26.4037 19.2769C26.4924 18.9535 26.4877 18.615 26.5226 18.2841C26.5991 17.2341 26.735 16.1897 26.786 15.1388C23.2434 15.1107 19.7008 15.135 16.1573 15.1163C16.1969 13.8413 16.1573 12.5644 16.1799 11.2885Z" fill="#D7D7D7"/>
<path d="M16.1978 27.2082C17.9082 27.1791 19.6196 27.225 21.331 27.2138C21.2356 28.951 21.0903 30.6854 20.9996 32.4225C19.9509 32.7629 18.8862 33.0507 17.829 33.3657C17.2654 33.5363 16.6868 33.6713 16.1506 33.9216C16.2195 31.6847 16.128 29.445 16.1978 27.2082Z" fill="#D7D7D7"/>
</g>
<path d="M44 16.6882C49.5316 16.6192 55.0632 16.6669 60.5948 16.6643C60.6079 18.4077 60.6343 20.1512 60.5711 21.8946C56.7385 21.8681 52.9085 21.8946 49.0785 21.9185C49.0522 24.4501 49.0021 26.9817 49.0258 29.5133C52.8716 29.5371 56.72 29.5743 60.5658 29.5584C60.6106 30.9913 60.5948 32.4296 60.5526 33.8652C55.0368 33.8281 49.5211 33.844 44.0053 33.8493C44.0184 28.128 44.029 22.4094 44 16.6882Z" fill="white"/>
<path d="M62.5678 16.6695C68.1679 16.6589 73.768 16.6244 79.3707 16.6881C79.3496 18.336 79.3654 19.9813 79.3654 21.6292C75.2905 21.6159 71.2129 21.6345 67.138 21.6823C67.1432 22.3297 67.1432 22.9772 67.138 23.6247C71.2076 23.6911 75.2747 23.699 79.3417 23.7229C79.3575 27.101 79.3496 30.4765 79.3707 33.8519C73.768 33.8413 68.1653 33.8466 62.5625 33.8731C62.5336 32.5091 62.5309 31.1478 62.5704 29.7838C66.4531 29.7945 70.3384 29.7998 74.221 29.7679C74.2447 28.8896 74.2553 28.0086 74.2526 27.1302C70.3515 27.1302 66.4478 27.1435 62.5467 27.1169C62.5467 23.6353 62.5467 20.1511 62.5678 16.6695Z" fill="white"/>
<path d="M81.2462 16.6987C86.8358 16.6987 92.4279 16.6987 98.0175 16.6987C98.0412 18.3546 98.0649 20.0105 98.0122 21.6637C93.9188 21.6611 89.8255 21.6849 85.7321 21.6929C85.7426 22.3696 85.7584 23.0463 85.7927 23.7229C89.8623 23.7044 93.932 23.7548 97.999 23.7972C98.0359 27.1594 98.0623 30.5216 98.0148 33.8838C92.4121 33.8678 86.8094 33.8678 81.2067 33.8944C81.1725 32.5357 81.1619 31.1717 81.2199 29.8131C85.0946 29.8423 88.972 29.8369 92.8494 29.7998C92.8599 28.9188 92.8784 28.0378 92.8705 27.1594C88.9799 27.1966 85.0867 27.1753 81.1935 27.1621C81.1935 23.6752 81.2199 20.1856 81.2462 16.6987Z" fill="white"/>
<defs>
<clipPath id="clip0_550_486">
<rect width="32.2826" height="45" fill="white"/>
</clipPath>
</defs>
</svg>
