<svg width="101" height="40" viewBox="0 0 101 40" fill="none" xmlns="http://www.w3.org/2000/svg">
<path d="M1.80542 3.0561C11.9354 3.05519 22.0646 3.05429 32.1946 3.0561C31.637 9.45367 31.0884 15.8512 30.5077 22.247C30.1627 26.3348 29.807 30.4225 29.4318 34.5076C27.2701 35.0891 25.1297 35.7519 22.9689 36.3361C20.9842 36.9276 18.9834 37.463 16.9978 38.05H16.9391C15.0495 37.4793 13.1412 36.9772 11.2516 36.4066C9.02146 35.7961 6.81085 35.1153 4.57979 34.5076C4.28902 31.4456 4.0267 28.3818 3.76793 25.318C3.27975 19.6573 2.74888 14.0001 2.27938 8.3385C2.11665 6.63458 2.00016 4.92525 1.80542 3.22495V3.0561ZM17.0476 5.57991C17.0262 6.80886 17.0636 8.03871 17.0262 9.26675C13.5512 9.25411 10.0752 9.26405 6.6001 9.26766C6.65968 10.4605 6.81708 11.6452 6.97891 12.8281C10.2121 12.95 13.4498 12.8236 16.683 12.922C13.8544 14.2105 10.9911 15.4241 8.15002 16.6856C7.90637 16.7958 7.64583 16.8788 7.42797 17.0396C7.45198 18.3498 7.66006 19.6528 7.75165 20.9603C9.47496 20.954 11.1974 20.926 12.9207 20.9233C14.3017 20.916 15.6835 20.944 17.0645 20.9133C16.9987 23.0678 17.0849 25.225 17.02 27.3795C16.0908 27.2396 15.1731 27.0292 14.2474 26.8621C13.5174 26.7005 12.7695 26.6165 12.0501 26.4043C11.9479 25.3704 11.8767 24.3329 11.786 23.2981C11.578 23.2331 11.3574 23.2394 11.1423 23.2358C10.0983 23.2421 9.05347 23.2322 8.00863 23.2484C8.11089 25.2377 8.28696 27.2242 8.58663 29.1945C9.61635 29.4672 10.6478 29.7345 11.6758 30.0189C13.2506 30.4541 14.845 30.8162 16.4225 31.2442C16.6101 31.2849 16.7995 31.3553 16.9942 31.3391C17.0992 32.6475 17.0182 33.964 17.0378 35.276C17.4015 35.2164 17.759 35.1252 18.1102 35.0151C21.0962 34.1916 24.0787 33.3527 27.0629 32.5211C27.2114 31.3291 27.2807 30.1291 27.3981 28.9344C27.7085 25.3027 28.0215 21.6709 28.3469 18.0401C28.7284 13.8864 29.0583 9.72817 29.4424 5.57449C25.3102 5.5781 21.1789 5.56637 17.0476 5.57991Z" fill="#D7D7D7"/>
<path d="M17.0475 5.57984C21.1788 5.5663 25.3101 5.57803 29.4424 5.57442C29.0582 9.72811 28.7283 13.8863 28.3468 18.04C28.0214 21.6708 27.7084 25.3026 27.398 28.9344C27.2807 30.129 27.2113 31.3291 27.0628 32.521C24.0786 33.3526 21.0961 34.1915 18.1101 35.015C17.7589 35.1252 17.4014 35.2164 17.0377 35.276C17.0182 33.9639 17.0991 32.6474 16.9941 31.339C17.0208 31.3336 17.0751 31.3227 17.1017 31.3173C19.8788 30.6094 22.6371 29.8301 25.408 29.0969C25.7583 25.1058 26.1469 21.1164 26.3932 17.1171C24.0368 17.1298 21.6795 17.1226 19.323 17.1325C18.9798 17.1343 18.6365 17.1325 18.2951 17.1072C19.5631 16.4444 20.8969 15.9189 22.1988 15.3274C23.4481 14.7523 24.7126 14.2132 25.9664 13.6488C26.2083 13.5359 26.4661 13.442 26.6787 13.2741C26.7622 12.9626 26.7578 12.6366 26.7907 12.3178C26.8627 11.3065 26.9908 10.3006 27.0388 9.28836C23.7015 9.26127 20.3643 9.28475 17.0262 9.26669C17.0635 8.03864 17.0262 6.80879 17.0475 5.57984Z" fill="#D7D7D7"/>
<path d="M17.0642 20.9132C18.6755 20.8853 20.2877 20.9295 21.8998 20.9187C21.81 22.5919 21.6731 24.2624 21.5877 25.9356C20.5998 26.2634 19.5967 26.5406 18.6008 26.844C18.0699 27.0083 17.5249 27.1384 17.0198 27.3794C17.0847 25.2249 16.9984 23.0677 17.0642 20.9132Z" fill="#D7D7D7"/>
<path d="M49 11.5283C54.2994 11.4622 59.5989 11.5079 64.8983 11.5054C64.9109 13.1757 64.9362 14.8459 64.8756 16.5162C61.2038 16.4908 57.5346 16.5162 53.8654 16.5391C53.8402 18.9644 53.7922 21.3898 53.8149 23.8151C57.4993 23.838 61.1862 23.8736 64.8706 23.8583C64.9135 25.2312 64.8983 26.6091 64.8579 27.9844C59.5736 27.9489 54.2893 27.9641 49.005 27.9692C49.0177 22.488 49.0278 17.0094 49 11.5283Z" fill="white"/>
<path d="M66.7885 11.5104C72.1535 11.5002 77.5186 11.4672 82.8862 11.5282C82.866 13.1069 82.8811 14.6832 82.8811 16.2619C78.9772 16.2492 75.0707 16.267 71.1668 16.3128C71.1719 16.9331 71.1719 17.5534 71.1668 18.1737C75.0657 18.2373 78.962 18.2449 82.8584 18.2678C82.8735 21.5041 82.866 24.7379 82.8862 27.9717C77.5186 27.9615 72.151 27.9666 66.7834 27.992C66.7557 26.6853 66.7531 25.3811 66.791 24.0743C70.5107 24.0845 74.2329 24.0896 77.9526 24.0591C77.9753 23.2176 77.9854 22.3736 77.9829 21.5321C74.2455 21.5321 70.5057 21.5448 66.7683 21.5193C66.7683 18.1839 66.7683 14.8459 66.7885 11.5104Z" fill="white"/>
<path d="M84.683 11.5385C90.0379 11.5385 95.3954 11.5385 100.75 11.5385C100.773 13.1248 100.796 14.7112 100.745 16.2951C96.8237 16.2925 92.9021 16.3154 88.9806 16.323C88.9906 16.9713 89.0058 17.6196 89.0386 18.2679C92.9375 18.2501 96.8363 18.2984 100.733 18.339C100.768 21.5601 100.793 24.7812 100.748 28.0023C95.3803 27.987 90.0127 27.987 84.6451 28.0124C84.6123 26.7108 84.6022 25.404 84.6577 24.1024C88.3699 24.1304 92.0845 24.1253 95.7992 24.0897C95.8093 23.2456 95.8269 22.4016 95.8193 21.5601C92.0921 21.5957 88.3623 21.5754 84.6325 21.5627C84.6325 18.2221 84.6577 14.879 84.683 11.5385Z" fill="white"/>
</svg>
