<svg width="124" height="46" viewBox="0 0 124 46" fill="none" xmlns="http://www.w3.org/2000/svg">
<g clip-path="url(#clip0_550_485)">
<path d="M9.66724 42.3165L6.70239 9.03833H39.2977L36.3329 42.2985L22.9731 46.0001" fill="#D7D7D7"/>
<path d="M23 43.1699V11.7695H36.3238L33.7812 40.1602" fill="#D7D7D7"/>
<path d="M12.7578 15.8395H23V19.9184H17.232L17.6094 24.0961H23V28.166H13.8719M14.0516 30.2145H18.1484L18.4359 33.4758L23 34.6977V38.9563L14.6266 36.6203" fill="#2F2F2F"/>
<path d="M33.2062 15.8395H22.9819V19.9184H32.8288M32.4604 24.0961H22.9819V28.175H28.0132L27.537 33.4758L22.9819 34.6977V38.9383L31.3374 36.6203" fill="#2F2F2F"/>
</g>
<path d="M51 18.8333H56.6742V24.5312H61.9044V18.8333H67.5786V36.077H61.9044V30.3291H56.7236V36.077H51M75.0784 24.5812H70.0703V18.8333H85.7854V24.5812H80.7526V36.077H75.0784M88.2771 18.8333H94.2227L97.8739 24.9061L101.525 18.8333H107.471V36.077H101.797V27.5301L97.8246 33.7279L93.8527 27.5301V36.077H88.2771M110.283 18.8333H115.957V30.3791H124V36.077H110.283" fill="white"/>
<defs>
<clipPath id="clip0_550_485">
<rect width="46" height="46" fill="white"/>
</clipPath>
</defs>
</svg>
