<svg width="178" height="34" viewBox="0 0 178 34" fill="none" xmlns="http://www.w3.org/2000/svg">
<path d="M0 0.324707V33.798H34V0.324707H0ZM18.2143 26.3263C18.2143 29.5847 16.2593 31.1732 13.4292 31.1732C10.8732 31.1732 9.38947 29.8701 8.63661 28.2973L11.2382 26.7469C11.7399 27.6233 12.1208 28.3645 13.216 28.3645C14.1267 28.3645 14.875 27.9603 14.875 26.3875V15.8659H18.2143V26.3263ZM25.7542 31.0984C22.7876 31.0984 20.8705 29.7804 19.9348 27.9603L22.5402 26.4757C23.2232 27.577 24.115 28.3107 25.6897 28.3107C27.0133 28.3107 27.7821 27.7339 27.7821 26.8351C27.7821 25.7569 26.9905 25.3751 25.5296 24.743L24.7312 24.4053C22.4256 23.4399 20.8971 22.2265 20.8971 19.6645C20.8971 17.3057 22.7223 15.5827 25.5751 15.5827C27.6068 15.5827 29.0662 16.2043 30.1173 18.0244L27.625 19.6017C27.0771 18.6356 26.4866 18.2568 25.5713 18.2568C24.6356 18.2568 24.0421 18.8411 24.0421 19.6017C24.0421 20.5454 24.6356 20.9272 26.0047 21.5115L26.8031 21.8485C29.5193 22.9946 31.0485 24.1647 31.0485 26.7917C31.0493 29.6235 28.79 31.0984 25.7542 31.0984Z" fill="#D7D7D7"/>
<path d="M53.1406 22.0195V9.9375H55.3906V22.0195C55.3906 23.1445 55.1602 24.0938 54.6992 24.8672C54.2383 25.6406 53.6016 26.2305 52.7891 26.6367C51.9844 27.0352 51.0586 27.2344 50.0117 27.2344C48.9648 27.2344 48.0352 27.0547 47.2227 26.6953C46.4102 26.3359 45.7734 25.7891 45.3125 25.0547C44.8516 24.3203 44.6211 23.3945 44.6211 22.2773H46.8828C46.8828 22.9961 47.0156 23.5859 47.2812 24.0469C47.5469 24.5078 47.9141 24.8477 48.3828 25.0664C48.8594 25.2852 49.4023 25.3945 50.0117 25.3945C50.6055 25.3945 51.1367 25.2695 51.6055 25.0195C52.082 24.7617 52.457 24.3828 52.7305 23.8828C53.0039 23.375 53.1406 22.7539 53.1406 22.0195ZM66.8511 24.832V18.3047C66.8511 17.8047 66.7495 17.3711 66.5464 17.0039C66.3511 16.6289 66.0542 16.3398 65.6558 16.1367C65.2573 15.9336 64.7652 15.832 64.1792 15.832C63.6323 15.832 63.1519 15.9258 62.7378 16.1133C62.3316 16.3008 62.0112 16.5469 61.7769 16.8516C61.5503 17.1562 61.437 17.4844 61.437 17.8359H59.2691C59.2691 17.3828 59.3862 16.9336 59.6206 16.4883C59.855 16.043 60.1909 15.6406 60.6284 15.2812C61.0737 14.9141 61.605 14.625 62.2222 14.4141C62.8472 14.1953 63.5425 14.0859 64.3081 14.0859C65.23 14.0859 66.0425 14.2422 66.7456 14.5547C67.4566 14.8672 68.0112 15.3398 68.4097 15.9727C68.8159 16.5977 69.0191 17.3828 69.0191 18.3281V24.2344C69.0191 24.6562 69.0542 25.1055 69.1245 25.582C69.2027 26.0586 69.3159 26.4688 69.4644 26.8125V27H67.2027C67.0933 26.75 67.0073 26.418 66.9448 26.0039C66.8823 25.582 66.8511 25.1914 66.8511 24.832ZM67.2261 19.3125L67.2495 20.8359H65.0581C64.4409 20.8359 63.8902 20.8867 63.4058 20.9883C62.9214 21.082 62.5152 21.2266 62.187 21.4219C61.8589 21.6172 61.6089 21.8633 61.437 22.1602C61.2652 22.4492 61.1792 22.7891 61.1792 23.1797C61.1792 23.5781 61.2691 23.9414 61.4487 24.2695C61.6284 24.5977 61.898 24.8594 62.2573 25.0547C62.6245 25.2422 63.0737 25.3359 63.605 25.3359C64.2691 25.3359 64.855 25.1953 65.3628 24.9141C65.8706 24.6328 66.273 24.2891 66.5698 23.8828C66.8745 23.4766 67.0386 23.082 67.062 22.6992L67.9878 23.7422C67.9331 24.0703 67.7847 24.4336 67.5425 24.832C67.3003 25.2305 66.9761 25.6133 66.5698 25.9805C66.1714 26.3398 65.6948 26.6406 65.1402 26.8828C64.5933 27.1172 63.9761 27.2344 63.2886 27.2344C62.4292 27.2344 61.6753 27.0664 61.0269 26.7305C60.3862 26.3945 59.8862 25.9453 59.5269 25.3828C59.1753 24.8125 58.9995 24.1758 58.9995 23.4727C58.9995 22.793 59.1323 22.1953 59.398 21.6797C59.6636 21.1562 60.0464 20.7227 60.5464 20.3789C61.0464 20.0273 61.648 19.7617 62.3511 19.582C63.0542 19.4023 63.8394 19.3125 64.7066 19.3125H67.2261ZM76.5772 25.043L80.0459 14.3203H82.2608L77.7022 27H76.2491L76.5772 25.043ZM73.6827 14.3203L77.2569 25.1016L77.503 27H76.0498L71.4561 14.3203H73.6827ZM92.1158 24.832V18.3047C92.1158 17.8047 92.0142 17.3711 91.8111 17.0039C91.6158 16.6289 91.3189 16.3398 90.9205 16.1367C90.522 15.9336 90.0298 15.832 89.4439 15.832C88.897 15.832 88.4166 15.9258 88.0025 16.1133C87.5962 16.3008 87.2759 16.5469 87.0416 16.8516C86.815 17.1562 86.7017 17.4844 86.7017 17.8359H84.5337C84.5337 17.3828 84.6509 16.9336 84.8853 16.4883C85.1197 16.043 85.4556 15.6406 85.8931 15.2812C86.3384 14.9141 86.8697 14.625 87.4869 14.4141C88.1119 14.1953 88.8072 14.0859 89.5728 14.0859C90.4947 14.0859 91.3072 14.2422 92.0103 14.5547C92.7212 14.8672 93.2759 15.3398 93.6744 15.9727C94.0806 16.5977 94.2837 17.3828 94.2837 18.3281V24.2344C94.2837 24.6562 94.3189 25.1055 94.3892 25.582C94.4673 26.0586 94.5806 26.4688 94.7291 26.8125V27H92.4673C92.358 26.75 92.272 26.418 92.2095 26.0039C92.147 25.582 92.1158 25.1914 92.1158 24.832ZM92.4908 19.3125L92.5142 20.8359H90.3228C89.7056 20.8359 89.1548 20.8867 88.6705 20.9883C88.1861 21.082 87.7798 21.2266 87.4517 21.4219C87.1236 21.6172 86.8736 21.8633 86.7017 22.1602C86.5298 22.4492 86.4439 22.7891 86.4439 23.1797C86.4439 23.5781 86.5337 23.9414 86.7134 24.2695C86.8931 24.5977 87.1627 24.8594 87.522 25.0547C87.8892 25.2422 88.3384 25.3359 88.8697 25.3359C89.5337 25.3359 90.1197 25.1953 90.6275 24.9141C91.1353 24.6328 91.5377 24.2891 91.8345 23.8828C92.1392 23.4766 92.3033 23.082 92.3267 22.6992L93.2525 23.7422C93.1978 24.0703 93.0494 24.4336 92.8072 24.832C92.565 25.2305 92.2408 25.6133 91.8345 25.9805C91.4361 26.3398 90.9595 26.6406 90.4048 26.8828C89.858 27.1172 89.2408 27.2344 88.5533 27.2344C87.6939 27.2344 86.94 27.0664 86.2916 26.7305C85.6509 26.3945 85.1509 25.9453 84.7916 25.3828C84.44 24.8125 84.2642 24.1758 84.2642 23.4727C84.2642 22.793 84.397 22.1953 84.6627 21.6797C84.9283 21.1562 85.3111 20.7227 85.8111 20.3789C86.3111 20.0273 86.9127 19.7617 87.6158 19.582C88.3189 19.4023 89.1041 19.3125 89.9712 19.3125H92.4908ZM107.596 22.6875C107.596 22.2891 107.533 21.9375 107.408 21.6328C107.291 21.3203 107.08 21.0391 106.775 20.7891C106.479 20.5391 106.065 20.3008 105.533 20.0742C105.01 19.8477 104.346 19.6172 103.541 19.3828C102.697 19.1328 101.936 18.8555 101.256 18.5508C100.576 18.2383 99.9942 17.8828 99.5098 17.4844C99.0255 17.0859 98.6544 16.6289 98.3966 16.1133C98.1387 15.5977 98.0098 15.0078 98.0098 14.3438C98.0098 13.6797 98.1466 13.0664 98.42 12.5039C98.6934 11.9414 99.0841 11.4531 99.5919 11.0391C100.107 10.6172 100.721 10.2891 101.432 10.0547C102.143 9.82031 102.936 9.70312 103.811 9.70312C105.092 9.70312 106.178 9.94922 107.068 10.4414C107.967 10.9258 108.65 11.5625 109.119 12.3516C109.588 13.1328 109.822 13.9688 109.822 14.8594H107.572C107.572 14.2188 107.436 13.6523 107.162 13.1602C106.889 12.6602 106.475 12.2695 105.92 11.9883C105.365 11.6992 104.662 11.5547 103.811 11.5547C103.006 11.5547 102.342 11.6758 101.818 11.918C101.295 12.1602 100.904 12.4883 100.647 12.9023C100.397 13.3164 100.272 13.7891 100.272 14.3203C100.272 14.6797 100.346 15.0078 100.494 15.3047C100.65 15.5938 100.889 15.8633 101.209 16.1133C101.537 16.3633 101.951 16.5938 102.451 16.8047C102.959 17.0156 103.565 17.2188 104.268 17.4141C105.236 17.6875 106.072 17.9922 106.775 18.3281C107.479 18.6641 108.057 19.043 108.51 19.4648C108.971 19.8789 109.311 20.3516 109.529 20.8828C109.756 21.4062 109.869 22 109.869 22.6641C109.869 23.3594 109.729 23.9883 109.447 24.5508C109.166 25.1133 108.764 25.5938 108.24 25.9922C107.717 26.3906 107.088 26.6992 106.354 26.918C105.627 27.1289 104.815 27.2344 103.916 27.2344C103.127 27.2344 102.35 27.125 101.584 26.9062C100.826 26.6875 100.135 26.3594 99.5098 25.9219C98.8927 25.4844 98.3966 24.9453 98.0216 24.3047C97.6544 23.6562 97.4708 22.9062 97.4708 22.0547H99.7208C99.7208 22.6406 99.8341 23.1445 100.061 23.5664C100.287 23.9805 100.596 24.3242 100.986 24.5977C101.385 24.8711 101.834 25.0742 102.334 25.207C102.842 25.332 103.369 25.3945 103.916 25.3945C104.705 25.3945 105.373 25.2852 105.92 25.0664C106.467 24.8477 106.881 24.5352 107.162 24.1289C107.451 23.7227 107.596 23.2422 107.596 22.6875ZM117.978 25.4531C118.494 25.4531 118.97 25.3477 119.408 25.1367C119.845 24.9258 120.205 24.6367 120.486 24.2695C120.767 23.8945 120.927 23.4688 120.966 22.9922H123.029C122.99 23.7422 122.736 24.4414 122.267 25.0898C121.806 25.7305 121.201 26.25 120.451 26.6484C119.701 27.0391 118.877 27.2344 117.978 27.2344C117.025 27.2344 116.193 27.0664 115.482 26.7305C114.779 26.3945 114.193 25.9336 113.724 25.3477C113.263 24.7617 112.916 24.0898 112.681 23.332C112.455 22.5664 112.341 21.7578 112.341 20.9062V20.4141C112.341 19.5625 112.455 18.7578 112.681 18C112.916 17.2344 113.263 16.5586 113.724 15.9727C114.193 15.3867 114.779 14.9258 115.482 14.5898C116.193 14.2539 117.025 14.0859 117.978 14.0859C118.97 14.0859 119.838 14.2891 120.58 14.6953C121.322 15.0938 121.904 15.6406 122.326 16.3359C122.755 17.0234 122.99 17.8047 123.029 18.6797H120.966C120.927 18.1562 120.779 17.6836 120.521 17.2617C120.271 16.8398 119.927 16.5039 119.49 16.2539C119.06 15.9961 118.556 15.8672 117.978 15.8672C117.314 15.8672 116.755 16 116.302 16.2656C115.857 16.5234 115.502 16.875 115.236 17.3203C114.978 17.7578 114.791 18.2461 114.673 18.7852C114.564 19.3164 114.509 19.8594 114.509 20.4141V20.9062C114.509 21.4609 114.564 22.0078 114.673 22.5469C114.783 23.0859 114.966 23.5742 115.224 24.0117C115.49 24.4492 115.845 24.8008 116.291 25.0664C116.744 25.3242 117.306 25.4531 117.978 25.4531ZM128.114 16.3125V27H125.946V14.3203H128.056L128.114 16.3125ZM132.075 14.25L132.064 16.2656C131.884 16.2266 131.712 16.2031 131.548 16.1953C131.392 16.1797 131.212 16.1719 131.009 16.1719C130.509 16.1719 130.067 16.25 129.685 16.4062C129.302 16.5625 128.978 16.7812 128.712 17.0625C128.446 17.3438 128.235 17.6797 128.079 18.0703C127.931 18.4531 127.833 18.875 127.786 19.3359L127.177 19.6875C127.177 18.9219 127.251 18.2031 127.4 17.5312C127.556 16.8594 127.794 16.2656 128.114 15.75C128.435 15.2266 128.841 14.8203 129.333 14.5312C129.833 14.2344 130.427 14.0859 131.114 14.0859C131.271 14.0859 131.45 14.1055 131.653 14.1445C131.857 14.1758 131.997 14.2109 132.075 14.25ZM136.915 14.3203V27H134.735V14.3203H136.915ZM134.571 10.957C134.571 10.6055 134.676 10.3086 134.887 10.0664C135.106 9.82422 135.426 9.70312 135.848 9.70312C136.262 9.70312 136.579 9.82422 136.798 10.0664C137.024 10.3086 137.137 10.6055 137.137 10.957C137.137 11.293 137.024 11.582 136.798 11.8242C136.579 12.0586 136.262 12.1758 135.848 12.1758C135.426 12.1758 135.106 12.0586 134.887 11.8242C134.676 11.582 134.571 11.293 134.571 10.957ZM143.043 16.7578V31.875H140.863V14.3203H142.856L143.043 16.7578ZM151.586 20.5547V20.8008C151.586 21.7227 151.477 22.5781 151.258 23.3672C151.039 24.1484 150.719 24.8281 150.297 25.4062C149.883 25.9844 149.371 26.4336 148.762 26.7539C148.152 27.0742 147.453 27.2344 146.664 27.2344C145.86 27.2344 145.149 27.1016 144.531 26.8359C143.914 26.5703 143.391 26.1836 142.961 25.6758C142.531 25.168 142.188 24.5586 141.93 23.8477C141.68 23.1367 141.508 22.3359 141.414 21.4453V20.1328C141.508 19.1953 141.684 18.3555 141.942 17.6133C142.199 16.8711 142.539 16.2383 142.961 15.7148C143.391 15.1836 143.91 14.7812 144.52 14.5078C145.129 14.2266 145.832 14.0859 146.629 14.0859C147.426 14.0859 148.133 14.2422 148.75 14.5547C149.367 14.8594 149.887 15.2969 150.309 15.8672C150.731 16.4375 151.047 17.1211 151.258 17.918C151.477 18.707 151.586 19.5859 151.586 20.5547ZM149.406 20.8008V20.5547C149.406 19.9219 149.34 19.3281 149.207 18.7734C149.074 18.2109 148.867 17.7188 148.586 17.2969C148.313 16.8672 147.961 16.5312 147.531 16.2891C147.102 16.0391 146.59 15.9141 145.996 15.9141C145.449 15.9141 144.973 16.0078 144.567 16.1953C144.168 16.3828 143.828 16.6367 143.547 16.957C143.266 17.2695 143.035 17.6289 142.856 18.0352C142.684 18.4336 142.555 18.8477 142.469 19.2773V22.3125C142.625 22.8594 142.844 23.375 143.125 23.8594C143.406 24.3359 143.781 24.7227 144.25 25.0195C144.719 25.3086 145.309 25.4531 146.02 25.4531C146.606 25.4531 147.11 25.332 147.531 25.0898C147.961 24.8398 148.313 24.5 148.586 24.0703C148.867 23.6406 149.074 23.1484 149.207 22.5938C149.34 22.0312 149.406 21.4336 149.406 20.8008ZM160.14 14.3203V15.9844H153.285V14.3203H160.14ZM155.605 11.2383H157.773V23.8594C157.773 24.2891 157.84 24.6133 157.972 24.832C158.105 25.0508 158.277 25.1953 158.488 25.2656C158.699 25.3359 158.925 25.3711 159.168 25.3711C159.347 25.3711 159.535 25.3555 159.73 25.3242C159.933 25.2852 160.086 25.2539 160.187 25.2305L160.199 27C160.027 27.0547 159.8 27.1055 159.519 27.1523C159.246 27.207 158.914 27.2344 158.523 27.2344C157.992 27.2344 157.504 27.1289 157.058 26.918C156.613 26.707 156.257 26.3555 155.992 25.8633C155.734 25.3633 155.605 24.6914 155.605 23.8477V11.2383Z" fill="white"/>
</svg>
