<svg width="182" height="40" viewBox="0 0 182 40" fill="none" xmlns="http://www.w3.org/2000/svg">
<path d="M0 3.32471V36.798H34V3.32471H0ZM18.2143 29.3263C18.2143 32.5847 16.2593 34.1732 13.4292 34.1732C10.8732 34.1732 9.38947 32.8701 8.63661 31.2973L11.2382 29.7469C11.7399 30.6233 12.1208 31.3645 13.216 31.3645C14.1267 31.3645 14.875 30.9603 14.875 29.3875V18.8659H18.2143V29.3263ZM25.7542 34.0984C22.7876 34.0984 20.8705 32.7804 19.9348 30.9603L22.5402 29.4757C23.2232 30.577 24.115 31.3107 25.6897 31.3107C27.0133 31.3107 27.7821 30.7339 27.7821 29.8351C27.7821 28.7569 26.9905 28.3751 25.5296 27.743L24.7312 27.4053C22.4256 26.4399 20.8971 25.2265 20.8971 22.6645C20.8971 20.3057 22.7223 18.5827 25.5751 18.5827C27.6068 18.5827 29.0662 19.2043 30.1173 21.0244L27.625 22.6017C27.0771 21.6356 26.4866 21.2568 25.5713 21.2568C24.6356 21.2568 24.0421 21.8411 24.0421 22.6017C24.0421 23.5454 24.6356 23.9272 26.0047 24.5115L26.8031 24.8485C29.5193 25.9946 31.0485 27.1647 31.0485 29.7917C31.0493 32.6235 28.79 34.0984 25.7542 34.0984Z" fill="#D7D7D7"/>
<path d="M56.7598 23.2271V11.6484H58.916V23.2271C58.916 24.3052 58.6951 25.2148 58.2534 25.9561C57.8117 26.6973 57.2015 27.2625 56.4229 27.6519C55.6517 28.0337 54.7645 28.2246 53.7612 28.2246C52.758 28.2246 51.867 28.0524 51.0884 27.708C50.3097 27.3636 49.6995 26.8395 49.2578 26.1357C48.8161 25.432 48.5952 24.5448 48.5952 23.4741H50.7627C50.7627 24.1629 50.89 24.7282 51.1445 25.1699C51.3991 25.6117 51.751 25.9373 52.2002 26.147C52.6569 26.3566 53.1772 26.4614 53.7612 26.4614C54.3302 26.4614 54.8394 26.3416 55.2886 26.1021C55.7453 25.855 56.1047 25.4919 56.3667 25.0127C56.6287 24.526 56.7598 23.9308 56.7598 23.2271ZM69.899 25.9224V19.667C69.899 19.1878 69.8016 18.7723 69.607 18.4204C69.4198 18.061 69.1353 17.784 68.7535 17.5894C68.3716 17.3947 67.8999 17.2974 67.3384 17.2974C66.8143 17.2974 66.3539 17.3872 65.9571 17.5669C65.5677 17.7466 65.2608 17.9824 65.0362 18.2744C64.819 18.5664 64.7105 18.8809 64.7105 19.2178H62.6329C62.6329 18.7835 62.7452 18.353 62.9698 17.9263C63.1944 17.4995 63.5163 17.1139 63.9356 16.7695C64.3623 16.4176 64.8715 16.1406 65.4629 15.9385C66.0619 15.7288 66.7282 15.624 67.462 15.624C68.3454 15.624 69.1241 15.7738 69.7979 16.0732C70.4792 16.3727 71.0108 16.8257 71.3926 17.4321C71.7819 18.0311 71.9766 18.7835 71.9766 19.6895V25.3496C71.9766 25.7539 72.0103 26.1844 72.0777 26.6411C72.1525 27.0978 72.2611 27.4909 72.4034 27.8203V28H70.2359C70.1311 27.7604 70.0487 27.4422 69.9888 27.0454C69.9289 26.6411 69.899 26.2668 69.899 25.9224ZM70.2583 20.6328L70.2808 22.0928H68.1807C67.5892 22.0928 67.0614 22.1414 66.5972 22.2388C66.133 22.3286 65.7437 22.4671 65.4292 22.6543C65.1148 22.8415 64.8752 23.0773 64.7105 23.3618C64.5458 23.6388 64.4634 23.9645 64.4634 24.3389C64.4634 24.7207 64.5495 25.0688 64.7217 25.3833C64.8939 25.6978 65.1522 25.9486 65.4966 26.1357C65.8485 26.3154 66.279 26.4053 66.7881 26.4053C67.4245 26.4053 67.986 26.2705 68.4727 26.001C68.9593 25.7314 69.3449 25.402 69.6294 25.0127C69.9214 24.6234 70.0787 24.2453 70.1011 23.8784L70.9883 24.8779C70.9359 25.1924 70.7937 25.5405 70.5616 25.9224C70.3295 26.3042 70.0188 26.6711 69.6294 27.0229C69.2476 27.3674 68.7909 27.6556 68.2593 27.8877C67.7352 28.1123 67.1438 28.2246 66.4849 28.2246C65.6613 28.2246 64.9388 28.0636 64.3174 27.7417C63.7035 27.4198 63.2243 26.9893 62.8799 26.4502C62.543 25.9036 62.3746 25.2935 62.3746 24.6196C62.3746 23.9683 62.5018 23.3955 62.7564 22.9014C63.0109 22.3997 63.3778 21.9842 63.857 21.6548C64.3361 21.3179 64.9126 21.0633 65.5865 20.8911C66.2603 20.7189 67.0127 20.6328 67.8438 20.6328H70.2583ZM79.2198 26.1245L82.544 15.8486H84.6666L80.2979 28H78.9054L79.2198 26.1245ZM76.4459 15.8486L79.8712 26.1807L80.107 28H78.7144L74.3121 15.8486H76.4459ZM94.111 25.9224V19.667C94.111 19.1878 94.0136 18.7723 93.819 18.4204C93.6318 18.061 93.3473 17.784 92.9655 17.5894C92.5836 17.3947 92.1119 17.2974 91.5504 17.2974C91.0263 17.2974 90.5659 17.3872 90.1691 17.5669C89.7797 17.7466 89.4728 17.9824 89.2482 18.2744C89.031 18.5664 88.9225 18.8809 88.9225 19.2178H86.8448C86.8448 18.7835 86.9571 18.353 87.1818 17.9263C87.4064 17.4995 87.7283 17.1139 88.1476 16.7695C88.5743 16.4176 89.0835 16.1406 89.6749 15.9385C90.2739 15.7288 90.9402 15.624 91.6739 15.624C92.5574 15.624 93.3361 15.7738 94.0099 16.0732C94.6912 16.3727 95.2228 16.8257 95.6046 17.4321C95.9939 18.0311 96.1886 18.7835 96.1886 19.6895V25.3496C96.1886 25.7539 96.2223 26.1844 96.2897 26.6411C96.3645 27.0978 96.4731 27.4909 96.6154 27.8203V28H94.4479C94.3431 27.7604 94.2607 27.4422 94.2008 27.0454C94.1409 26.6411 94.111 26.2668 94.111 25.9224ZM94.4703 20.6328L94.4928 22.0928H92.3927C91.8012 22.0928 91.2734 22.1414 90.8092 22.2388C90.345 22.3286 89.9557 22.4671 89.6412 22.6543C89.3268 22.8415 89.0872 23.0773 88.9225 23.3618C88.7578 23.6388 88.6754 23.9645 88.6754 24.3389C88.6754 24.7207 88.7615 25.0688 88.9337 25.3833C89.1059 25.6978 89.3642 25.9486 89.7086 26.1357C90.0605 26.3154 90.491 26.4053 91.0001 26.4053C91.6365 26.4053 92.198 26.2705 92.6847 26.001C93.1713 25.7314 93.5569 25.402 93.8414 25.0127C94.1334 24.6234 94.2906 24.2453 94.3131 23.8784L95.2003 24.8779C95.1479 25.1924 95.0057 25.5405 94.7736 25.9224C94.5415 26.3042 94.2307 26.6711 93.8414 27.0229C93.4596 27.3674 93.0029 27.6556 92.4713 27.8877C91.9472 28.1123 91.3557 28.2246 90.6969 28.2246C89.8733 28.2246 89.1508 28.0636 88.5294 27.7417C87.9155 27.4198 87.4363 26.9893 87.0919 26.4502C86.755 25.9036 86.5865 25.2935 86.5865 24.6196C86.5865 23.9683 86.7138 23.3955 86.9684 22.9014C87.2229 22.3997 87.5898 21.9842 88.069 21.6548C88.5481 21.3179 89.1246 21.0633 89.7985 20.8911C90.4723 20.7189 91.2247 20.6328 92.0558 20.6328H94.4703ZM108.946 23.8672C108.946 23.4854 108.886 23.1484 108.766 22.8564C108.654 22.557 108.452 22.2874 108.16 22.0479C107.875 21.8083 107.479 21.5799 106.969 21.3628C106.468 21.1457 105.831 20.9248 105.06 20.7002C104.252 20.4606 103.522 20.1948 102.87 19.9028C102.219 19.6034 101.661 19.2627 101.197 18.8809C100.733 18.499 100.377 18.061 100.13 17.5669C99.883 17.0728 99.7594 16.5075 99.7594 15.8711C99.7594 15.2347 99.8905 14.647 100.153 14.1079C100.415 13.5688 100.789 13.1009 101.276 12.7041C101.77 12.2998 102.357 11.9854 103.039 11.7607C103.72 11.5361 104.48 11.4238 105.319 11.4238C106.546 11.4238 107.587 11.6597 108.441 12.1313C109.302 12.5955 109.957 13.2057 110.406 13.9619C110.855 14.7106 111.08 15.5117 111.08 16.3652H108.923C108.923 15.7513 108.792 15.2085 108.53 14.7368C108.268 14.2576 107.872 13.8833 107.34 13.6138C106.808 13.3368 106.135 13.1982 105.319 13.1982C104.547 13.1982 103.911 13.3143 103.409 13.5464C102.908 13.7785 102.533 14.0929 102.286 14.4897C102.047 14.8866 101.927 15.3395 101.927 15.8486C101.927 16.193 101.998 16.5075 102.14 16.792C102.29 17.069 102.518 17.3273 102.825 17.5669C103.14 17.8065 103.537 18.0273 104.016 18.2295C104.502 18.4316 105.083 18.6263 105.757 18.8135C106.685 19.0755 107.486 19.3675 108.16 19.6895C108.834 20.0114 109.388 20.3745 109.822 20.7788C110.264 21.1756 110.589 21.6286 110.799 22.1377C111.016 22.6393 111.125 23.2083 111.125 23.8447C111.125 24.5111 110.99 25.1138 110.72 25.6528C110.451 26.1919 110.065 26.6523 109.564 27.0342C109.062 27.416 108.459 27.7118 107.756 27.9214C107.059 28.1235 106.281 28.2246 105.42 28.2246C104.663 28.2246 103.918 28.1198 103.185 27.9102C102.458 27.7005 101.796 27.3861 101.197 26.9668C100.605 26.5475 100.13 26.0309 99.7707 25.417C99.4188 24.7956 99.2428 24.0768 99.2428 23.2607H101.399C101.399 23.8223 101.508 24.3052 101.725 24.7095C101.942 25.1063 102.238 25.4357 102.612 25.6978C102.994 25.9598 103.424 26.1545 103.903 26.2817C104.39 26.4015 104.896 26.4614 105.42 26.4614C106.176 26.4614 106.816 26.3566 107.34 26.147C107.864 25.9373 108.261 25.6379 108.53 25.2485C108.807 24.8592 108.946 24.3988 108.946 23.8672ZM118.896 26.5176C119.39 26.5176 119.847 26.4165 120.266 26.2144C120.685 26.0122 121.029 25.7352 121.299 25.3833C121.569 25.0239 121.722 24.6159 121.759 24.1592H123.736C123.699 24.8779 123.455 25.548 123.006 26.1694C122.564 26.7834 121.984 27.2812 121.265 27.6631C120.547 28.0374 119.757 28.2246 118.896 28.2246C117.982 28.2246 117.185 28.0636 116.504 27.7417C115.83 27.4198 115.268 26.978 114.819 26.4165C114.377 25.855 114.044 25.2111 113.82 24.4849C113.602 23.7511 113.494 22.9762 113.494 22.1602V21.6885C113.494 20.8724 113.602 20.1012 113.82 19.375C114.044 18.6413 114.377 17.9937 114.819 17.4321C115.268 16.8706 115.83 16.4289 116.504 16.1069C117.185 15.785 117.982 15.624 118.896 15.624C119.847 15.624 120.678 15.8187 121.389 16.208C122.1 16.5898 122.658 17.1139 123.062 17.7803C123.474 18.4391 123.699 19.1878 123.736 20.0264H121.759C121.722 19.5247 121.58 19.0718 121.333 18.6675C121.093 18.2632 120.764 17.9412 120.344 17.7017C119.933 17.4546 119.45 17.3311 118.896 17.3311C118.259 17.3311 117.724 17.4583 117.29 17.7129C116.863 17.96 116.522 18.2969 116.268 18.7236C116.021 19.1429 115.841 19.6108 115.729 20.1274C115.624 20.6366 115.571 21.1569 115.571 21.6885V22.1602C115.571 22.6917 115.624 23.2158 115.729 23.7324C115.834 24.249 116.009 24.717 116.257 25.1362C116.511 25.5555 116.852 25.8924 117.279 26.147C117.713 26.394 118.252 26.5176 118.896 26.5176ZM128.61 17.7578V28H126.532V15.8486H128.553L128.61 17.7578ZM132.406 15.7812L132.394 17.7129C132.222 17.6755 132.057 17.653 131.9 17.6455C131.75 17.6305 131.578 17.623 131.384 17.623C130.904 17.623 130.481 17.6979 130.114 17.8477C129.748 17.9974 129.437 18.207 129.182 18.4766C128.928 18.7461 128.726 19.068 128.576 19.4424C128.434 19.8092 128.34 20.2135 128.295 20.6553L127.711 20.9922C127.711 20.2585 127.782 19.5697 127.925 18.9258C128.074 18.2819 128.303 17.7129 128.61 17.2188C128.917 16.7171 129.306 16.3278 129.778 16.0508C130.257 15.7663 130.826 15.624 131.485 15.624C131.634 15.624 131.807 15.6427 132.001 15.6802C132.196 15.7101 132.331 15.7438 132.406 15.7812ZM137.043 15.8486V28H134.954V15.8486H137.043ZM134.797 12.6255C134.797 12.2886 134.898 12.0041 135.1 11.772C135.31 11.5399 135.617 11.4238 136.021 11.4238C136.418 11.4238 136.721 11.5399 136.931 11.772C137.148 12.0041 137.257 12.2886 137.257 12.6255C137.257 12.9474 137.148 13.2244 136.931 13.4565C136.721 13.6812 136.418 13.7935 136.021 13.7935C135.617 13.7935 135.31 13.6812 135.1 13.4565C134.898 13.2244 134.797 12.9474 134.797 12.6255ZM142.916 18.1846V32.6719H140.827V15.8486H142.737L142.916 18.1846ZM151.103 21.8232V22.0591C151.103 22.9425 150.999 23.7624 150.789 24.5186C150.579 25.2673 150.272 25.9186 149.868 26.4727C149.471 27.0267 148.981 27.4572 148.397 27.7642C147.813 28.0711 147.143 28.2246 146.387 28.2246C145.615 28.2246 144.934 28.0973 144.343 27.8428C143.751 27.5882 143.249 27.2176 142.838 26.731C142.426 26.2443 142.097 25.6603 141.849 24.979C141.61 24.2977 141.445 23.5303 141.355 22.6768V21.4189C141.445 20.5205 141.614 19.7157 141.861 19.0044C142.108 18.2931 142.433 17.6867 142.838 17.1851C143.249 16.6759 143.747 16.2904 144.331 16.0283C144.915 15.7588 145.589 15.624 146.353 15.624C147.117 15.624 147.794 15.7738 148.386 16.0732C148.977 16.3652 149.475 16.7845 149.879 17.3311C150.284 17.8776 150.587 18.5327 150.789 19.2964C150.999 20.0526 151.103 20.8949 151.103 21.8232ZM149.014 22.0591V21.8232C149.014 21.2168 148.951 20.6478 148.824 20.1162C148.696 19.5771 148.498 19.1055 148.228 18.7012C147.966 18.2894 147.629 17.9674 147.218 17.7354C146.806 17.4958 146.315 17.376 145.746 17.376C145.222 17.376 144.766 17.4658 144.376 17.6455C143.994 17.8252 143.669 18.0685 143.399 18.3755C143.13 18.675 142.909 19.0194 142.737 19.4087C142.572 19.7905 142.448 20.1873 142.366 20.5991V23.5078C142.516 24.0319 142.725 24.526 142.995 24.9902C143.264 25.4469 143.624 25.8175 144.073 26.1021C144.522 26.3791 145.088 26.5176 145.769 26.5176C146.33 26.5176 146.813 26.4015 147.218 26.1694C147.629 25.9299 147.966 25.6042 148.228 25.1924C148.498 24.7806 148.696 24.3089 148.824 23.7773C148.951 23.2383 149.014 22.6655 149.014 22.0591ZM159.301 15.8486V17.4434H152.731V15.8486H159.301ZM154.955 12.895H157.033V24.9902C157.033 25.402 157.096 25.7127 157.223 25.9224C157.351 26.132 157.515 26.2705 157.718 26.3379C157.92 26.4053 158.137 26.439 158.369 26.439C158.541 26.439 158.721 26.424 158.908 26.394C159.103 26.3566 159.249 26.3267 159.346 26.3042L159.357 28C159.193 28.0524 158.975 28.1011 158.706 28.146C158.444 28.1984 158.126 28.2246 157.751 28.2246C157.242 28.2246 156.774 28.1235 156.348 27.9214C155.921 27.7192 155.58 27.3823 155.326 26.9106C155.078 26.4315 154.955 25.7876 154.955 24.979V12.895Z" fill="white"/>
</svg>
