<svg width="38" height="34" viewBox="0 0 38 34" fill="none" xmlns="http://www.w3.org/2000/svg">
<path d="M31.2426 11.0199C30.8378 10.8811 30.4301 10.7519 30.0195 10.6322C30.0876 10.3542 30.1504 10.0746 30.208 9.79334C31.1342 5.27325 30.5286 1.63177 28.4616 0.433034C26.4825 -0.717243 23.2368 0.481492 19.9626 3.34765C19.6407 3.63046 19.3254 3.92173 19.0166 4.22148C18.8108 4.02235 18.5997 3.82746 18.3833 3.63681C14.9516 0.572052 11.5119 -0.718832 9.44736 0.483875C7.46827 1.63654 6.88009 5.05956 7.71368 9.34371C7.79706 9.76739 7.89074 10.1892 7.99471 10.6092C7.50785 10.7482 7.03762 10.8967 6.58798 11.054C2.56964 12.4641 0 14.6749 0 16.9675C0 19.3363 2.75805 21.7116 6.94817 23.1518C7.28804 23.2678 7.63108 23.3756 7.97729 23.4751C7.86488 23.9247 7.7654 24.3794 7.67885 24.8391C6.88721 29.0494 7.50469 32.3914 9.47981 33.5369C11.5199 34.7197 14.9421 33.5043 18.278 30.573C18.5419 30.341 18.8058 30.0961 19.0697 29.8382C19.4032 30.1618 19.7462 30.4758 20.0988 30.7803C23.3287 33.575 26.5181 34.7038 28.4901 33.5551C30.5286 32.3683 31.1912 28.7777 30.3307 24.4093C30.2647 24.0757 30.1887 23.7352 30.1027 23.3877C30.3433 23.3162 30.579 23.2424 30.8096 23.1661C35.1636 21.7148 38 19.3681 38 16.9699C37.9984 14.6661 35.3464 12.441 31.2426 11.0199ZM21.0305 4.57896C23.8353 2.1235 26.4572 1.15434 27.6526 1.84705C28.9247 2.58504 29.4195 5.56082 28.6199 9.46367C28.5672 9.71787 28.5102 9.97128 28.4489 10.2239C26.7751 9.84185 25.0778 9.57222 23.3682 9.41679C22.3894 8.00189 21.3164 6.65497 20.1566 5.38526C20.4405 5.10882 20.7313 4.84005 21.029 4.57896H21.0305ZM11.2198 18.9264C11.5634 19.5937 11.9225 20.2528 12.2972 20.9037C12.6788 21.5678 13.0765 22.2221 13.4902 22.8666C12.3139 22.7383 11.145 22.5492 9.98804 22.3002C10.3237 21.2103 10.7369 20.0783 11.2198 18.9264ZM11.2198 15.0872C10.7448 13.9599 10.3427 12.8509 10.0126 11.7801C11.0971 11.5362 12.2529 11.3368 13.4578 11.1859C13.054 11.8182 12.6656 12.4598 12.2925 13.1107C11.9194 13.7616 11.561 14.4204 11.2174 15.0872H11.2198ZM12.0827 17.0072C12.583 15.9602 13.1219 14.9333 13.6992 13.9265C14.2761 12.9203 14.8901 11.9371 15.5414 10.977C16.6718 10.8912 17.8308 10.8459 19.0016 10.8459C20.1724 10.8459 21.3385 10.8912 22.4681 10.9778C23.1125 11.9358 23.7229 12.9156 24.2992 13.917C24.8755 14.9185 25.4215 15.9406 25.9371 16.9834C25.4283 18.0341 24.8837 19.0652 24.3032 20.0767C23.7274 21.0829 23.1205 22.0691 22.4824 23.035C21.3543 23.1145 20.1867 23.1582 18.9992 23.1582C17.8118 23.1582 16.6663 23.1208 15.5588 23.0485C14.9028 22.0852 14.2837 21.0978 13.7016 20.0863C13.1195 19.0747 12.5791 18.0484 12.0803 17.0072H12.0827ZM25.7083 20.8926C26.0909 20.2263 26.4582 19.5514 26.8103 18.8677C27.2928 19.9656 27.7187 21.0877 28.0864 22.2295C26.9158 22.494 25.7323 22.6969 24.5406 22.8372C24.9428 22.1969 25.332 21.5487 25.7083 20.8926ZM26.7944 15.0879C26.444 14.418 26.0796 13.756 25.7012 13.102C25.3318 12.4569 24.9468 11.8198 24.5462 11.1907C25.7582 11.3448 26.9211 11.5497 28.0112 11.8C27.6607 12.9157 27.2546 14.0131 26.7944 15.0879ZM19.0174 6.55222C19.8079 7.41898 20.5543 8.32521 21.2538 9.26745C19.7576 9.19596 18.2604 9.19596 16.7621 9.26745C17.5006 8.28717 18.2567 7.3776 19.0174 6.55222ZM10.2643 1.89551C11.5357 1.15514 14.3468 2.21326 17.3099 4.8562C17.4991 5.0254 17.6898 5.20255 17.8798 5.38606C16.714 6.65559 15.6335 8.00133 14.6452 9.41441C12.9395 9.56864 11.2455 9.83399 9.57402 10.2088C9.47744 9.81902 9.39036 9.42659 9.31278 9.03152C8.59635 5.35905 9.07054 2.5906 10.2643 1.89551ZM8.41111 21.9022C8.09445 21.8117 7.78176 21.7134 7.47302 21.6075C5.6206 20.972 4.09037 20.1427 3.03987 19.2394C2.09941 18.4299 1.62285 17.6221 1.62285 16.9675C1.62285 15.5765 3.68585 13.8018 7.12629 12.5983C7.55852 12.4474 7.99444 12.3094 8.43406 12.1845C8.94502 13.8322 9.56384 15.4444 10.2865 17.0104C9.55523 18.598 8.92875 20.2321 8.41111 21.9022ZM17.2085 29.3433C15.7337 30.6397 14.2565 31.5588 12.9543 32.022C11.7843 32.4374 10.8525 32.4494 10.2897 32.1229C9.09112 31.4278 8.59239 28.7435 9.27241 25.1433C9.35315 24.7197 9.44551 24.296 9.54948 23.8723C11.2377 24.2372 12.9486 24.4865 14.6706 24.6182C15.6685 26.0387 16.758 27.3921 17.9321 28.6696C17.6962 28.9024 17.4547 29.1264 17.2085 29.3433ZM19.0625 27.4987C18.2931 26.6638 17.5252 25.7399 16.7763 24.7469C17.5041 24.7755 18.245 24.7898 18.9992 24.7898C19.7734 24.7898 20.5397 24.7732 21.2949 24.739C20.598 25.6964 19.8529 26.6175 19.0625 27.4987ZM28.92 29.7699C28.6936 30.9964 28.2384 31.8146 27.6755 32.1419C26.4778 32.8394 23.9168 31.933 21.1556 29.5427C20.839 29.2694 20.5223 28.9763 20.2001 28.6688C21.3514 27.3863 22.4154 26.0275 23.3849 24.6016C25.1163 24.4544 26.8356 24.1876 28.5305 23.8032C28.6081 24.1178 28.6767 24.426 28.7363 24.7279C29.1171 26.6582 29.1717 28.4043 28.92 29.7699ZM30.2974 21.6162C30.09 21.6854 29.8763 21.7521 29.6593 21.8172C29.1279 20.1617 28.4849 18.5443 27.7349 16.9762C28.4568 15.4291 29.0746 13.8351 29.5841 12.2051C29.9728 12.3187 30.3504 12.4379 30.7138 12.5642C34.2302 13.7812 36.3756 15.5829 36.3756 16.9675C36.3756 18.445 34.0585 20.3627 30.2974 21.6162Z" fill="#D7D7D7"/>
<path d="M18.9902 20C19.584 20.0019 20.165 19.8276 20.6596 19.4991C21.1542 19.1707 21.5403 18.7028 21.7688 18.1548C21.9974 17.6068 22.0582 17.0033 21.9435 16.4207C21.8289 15.8381 21.5439 15.3027 21.1248 14.8821C20.7056 14.4616 20.1711 14.1749 19.5889 14.0584C19.0067 13.9418 18.403 14.0007 17.8542 14.2274C17.3055 14.4542 16.8364 14.8387 16.5063 15.3323C16.1762 15.8258 16 16.4062 16 17C15.9992 17.3934 16.0759 17.783 16.2258 18.1468C16.3756 18.5105 16.5957 18.8411 16.8734 19.1197C17.1511 19.3983 17.481 19.6195 17.8442 19.7705C18.2074 19.9215 18.5969 19.9995 18.9902 20Z" fill="white"/>
</svg>
