<svg width="34" height="32" viewBox="0 0 34 32" fill="none" xmlns="http://www.w3.org/2000/svg">
<path d="M27.8006 10.3782C27.4404 10.253 27.0777 10.1363 26.7123 10.0283C26.7729 9.77735 26.8288 9.52497 26.88 9.27115C27.7041 5.19136 27.1652 1.90458 25.326 0.822616C23.565 -0.215615 20.6768 0.866353 17.7634 3.45333C17.4769 3.70858 17.1963 3.97148 16.9216 4.24204C16.7384 4.06231 16.5506 3.8864 16.358 3.71432C13.3044 0.948092 10.2437 -0.217049 8.40655 0.868504C6.6455 1.90889 6.12211 4.99848 6.86387 8.86532C6.93807 9.24772 7.02142 9.62846 7.11394 10.0075C6.68072 10.133 6.26229 10.2671 5.86218 10.409C2.28655 11.6817 0 13.6772 0 15.7465C0 17.8846 2.4542 20.0284 6.18269 21.3284C6.48512 21.4331 6.79037 21.5303 7.09844 21.6202C6.99841 22.026 6.90989 22.4364 6.83287 22.8513C6.12845 26.6515 6.6779 29.6679 8.43543 30.7019C10.2507 31.7695 13.2959 30.6725 16.2643 28.0267C16.4992 27.8173 16.734 27.5963 16.9688 27.3635C17.2656 27.6555 17.5708 27.939 17.8845 28.2138C20.7585 30.7363 23.5967 31.7551 25.3514 30.7184C27.1652 29.6471 27.7548 26.4063 26.9891 22.4634C26.9304 22.1623 26.8628 21.8549 26.7863 21.5413C27.0004 21.4768 27.2101 21.4101 27.4153 21.3413C31.2896 20.0313 33.8136 17.9133 33.8136 15.7486C33.8122 13.6693 31.4523 11.6609 27.8006 10.3782ZM18.7136 4.56469C21.2094 2.34841 23.5424 1.47366 24.6061 2.09889C25.7381 2.765 26.1784 5.45092 25.4669 8.97359C25.4199 9.20303 25.3692 9.43176 25.3147 9.65977C23.8253 9.31493 22.315 9.07157 20.7938 8.93128C19.9228 7.6542 18.968 6.43849 17.9359 5.29246C18.1886 5.04294 18.4473 4.80035 18.7122 4.56469H18.7136ZM9.98374 17.5146C10.2895 18.1169 10.609 18.7118 10.9425 19.2993C11.282 19.8987 11.6358 20.4892 12.004 21.071C10.9573 20.9551 9.91714 20.7845 8.88766 20.5598C9.18634 19.576 9.55405 18.5543 9.98374 17.5146ZM9.98374 14.0493C9.56109 13.0319 9.20324 12.0309 8.9095 11.0644C9.87456 10.8443 10.903 10.6643 11.9751 10.5281C11.6159 11.0988 11.2702 11.6779 10.9382 12.2654C10.6062 12.8528 10.2873 13.4475 9.98163 14.0493H9.98374ZM10.7516 15.7823C11.1968 14.8373 11.6762 13.9104 12.19 13.0017C12.7033 12.0935 13.2497 11.2061 13.8292 10.3395C14.8351 10.2621 15.8664 10.2212 16.9082 10.2212C17.95 10.2212 18.9876 10.2621 19.9928 10.3402C20.5662 11.2049 21.1093 12.0892 21.6222 12.9931C22.135 13.8971 22.6208 14.8196 23.0796 15.7608C22.6269 16.7092 22.1423 17.6398 21.6257 18.5528C21.1133 19.4611 20.5733 20.3511 20.0055 21.223C19.0017 21.2947 17.9627 21.3341 16.9061 21.3341C15.8494 21.3341 14.8302 21.3004 13.8447 21.2352C13.2609 20.3657 12.7101 19.4744 12.1921 18.5614C11.6741 17.6485 11.1932 16.7221 10.7494 15.7823H10.7516ZM22.876 19.2892C23.2165 18.6879 23.5434 18.0787 23.8566 17.4616C24.286 18.4525 24.665 19.4653 24.9921 20.4959C23.9505 20.7347 22.8974 20.9178 21.837 21.0445C22.1949 20.4665 22.5412 19.8815 22.876 19.2892ZM23.8425 14.05C23.5307 13.4453 23.2064 12.8478 22.8697 12.2575C22.541 11.6753 22.1984 11.1002 21.8419 10.5324C22.9204 10.6715 23.9552 10.8565 24.9252 11.0823C24.6133 12.0894 24.252 13.0799 23.8425 14.05ZM16.9223 6.34575C17.6257 7.12808 18.2898 7.94603 18.9123 8.79649C17.5809 8.73195 16.2486 8.73195 14.9154 8.79649C15.5726 7.9117 16.2453 7.09072 16.9223 6.34575ZM9.13351 2.14263C10.2648 1.47438 12.7662 2.42943 15.4028 4.81493C15.5712 4.96765 15.741 5.12754 15.91 5.29317C14.8727 6.43904 13.9111 7.65369 13.0318 8.92913C11.5139 9.06834 10.0066 9.30784 8.51925 9.64614C8.43331 9.29433 8.35583 8.94013 8.28679 8.58353C7.64929 5.2688 8.07124 2.77002 9.13351 2.14263ZM7.48446 20.2005C7.20269 20.1188 6.92445 20.0301 6.64972 19.9345C5.00138 19.3609 3.63974 18.6124 2.70497 17.7971C1.86812 17.0665 1.44406 16.3373 1.44406 15.7465C1.44406 14.491 3.27978 12.8892 6.34119 11.8029C6.7258 11.6667 7.1137 11.5422 7.50489 11.4293C7.95956 12.9166 8.5102 14.3717 9.15323 15.7852C8.50254 17.2182 7.94508 18.6931 7.48446 20.2005ZM15.3127 26.9168C14.0003 28.0869 12.6859 28.9165 11.5271 29.3345C10.486 29.7095 9.65689 29.7203 9.15605 29.4256C8.08956 28.7982 7.64577 26.3754 8.25087 23.1259C8.32272 22.7435 8.4049 22.3611 8.49742 21.9787C9.99962 22.3081 11.5221 22.533 13.0543 22.652C13.9423 23.9341 14.9117 25.1556 15.9565 26.3087C15.7466 26.5188 15.5318 26.721 15.3127 26.9168ZM16.9624 25.2519C16.2777 24.4983 15.5944 23.6644 14.9281 22.7681C15.5757 22.794 16.235 22.8069 16.9061 22.8069C17.595 22.8069 18.2769 22.7918 18.9489 22.761C18.3287 23.6251 17.6657 24.4565 16.9624 25.2519ZM25.7339 27.3018C25.5324 28.4089 25.1274 29.1474 24.6265 29.4428C23.5607 30.0723 21.2819 29.2542 18.8249 27.0967C18.5431 26.8501 18.2614 26.5855 17.9747 26.308C18.9991 25.1504 19.9459 23.9239 20.8086 22.6369C22.3493 22.5041 23.8791 22.2633 25.3873 21.9163C25.4563 22.2003 25.5174 22.4785 25.5704 22.7509C25.9093 24.4933 25.9579 26.0693 25.7339 27.3018ZM26.9596 19.9424C26.775 20.0048 26.5848 20.065 26.3918 20.1238C25.9189 18.6295 25.3468 17.1697 24.6794 15.7544C25.3217 14.3579 25.8715 12.9192 26.3249 11.448C26.6707 11.5505 27.0068 11.6581 27.3301 11.7721C30.4591 12.8705 32.3681 14.4967 32.3681 15.7465C32.3681 17.0801 30.3063 18.811 26.9596 19.9424Z" fill="#D7D7D7"/>
</svg>
