<svg width="34" height="34" viewBox="0 0 34 34" fill="none" xmlns="http://www.w3.org/2000/svg">
<path fill-rule="evenodd" clip-rule="evenodd" d="M3.32031 0H30.6797C32.5134 0 34 1.48655 34 3.32031V30.6797C34 32.5134 32.5134 34 30.6797 34H3.32031C1.48655 34 0 32.5134 0 30.6797V3.32031C0 1.48655 1.48655 0 3.32031 0ZM21.0467 30.3799V27.0555C21.6495 27.5611 22.3043 27.9403 23.011 28.193C23.7177 28.4458 24.4313 28.5722 25.1519 28.5722C25.5746 28.5722 25.9435 28.5342 26.2588 28.4579C26.574 28.3818 26.8373 28.2762 27.0486 28.1411C27.2599 28.006 27.4175 27.8468 27.5215 27.6632C27.6254 27.4797 27.6774 27.2806 27.6774 27.0659C27.6774 26.775 27.5943 26.5153 27.428 26.2868C27.2616 26.0582 27.0347 25.847 26.7472 25.6531C26.4597 25.4592 26.1184 25.2722 25.7235 25.0921C25.3286 24.912 24.9025 24.7285 24.4452 24.5415C23.2812 24.0567 22.4134 23.4645 21.8418 22.7651C21.2702 22.0655 20.9844 21.2206 20.9844 20.2302C20.9844 19.4545 21.1403 18.7879 21.4521 18.2304C21.7639 17.6729 22.1882 17.2141 22.7251 16.8539C23.2622 16.4938 23.884 16.2289 24.5907 16.0592C25.2974 15.8896 26.0457 15.8047 26.8356 15.8047C27.6115 15.8047 28.2992 15.8514 28.8985 15.9449C29.4979 16.0384 30.0504 16.1821 30.5562 16.376V19.4823C30.3068 19.3091 30.0348 19.1567 29.7404 19.0251C29.4459 18.8936 29.1428 18.7845 28.831 18.6979C28.5192 18.6113 28.2091 18.5473 27.9008 18.5057C27.5925 18.4642 27.2997 18.4434 27.0226 18.4434C26.6415 18.4434 26.2951 18.4797 25.9833 18.5524C25.6715 18.6252 25.4083 18.7274 25.1935 18.8589C24.9787 18.9905 24.8124 19.148 24.6946 19.3316C24.5768 19.5151 24.5179 19.7212 24.5179 19.9497C24.5179 20.1991 24.5838 20.4224 24.7154 20.6198C24.847 20.8172 25.0341 21.0042 25.2766 21.1808C25.5191 21.3574 25.8136 21.5305 26.16 21.7002C26.5065 21.8699 26.8979 22.0448 27.3344 22.2248C27.9303 22.4741 28.4655 22.739 28.9401 23.0195C29.4147 23.3 29.8218 23.6169 30.1613 23.9701C30.5008 24.3233 30.7606 24.7268 30.9407 25.1804C31.1209 25.634 31.2109 26.1621 31.2109 26.7646C31.2109 27.5957 31.0533 28.2934 30.7381 28.8579C30.4228 29.4224 29.995 29.8795 29.4546 30.2292C28.9141 30.5789 28.2853 30.83 27.5682 30.9824C26.8511 31.1348 26.0942 31.2109 25.2974 31.2109C24.4798 31.2109 23.7021 31.1417 22.9642 31.0032C22.2263 30.8646 21.5871 30.6569 21.0467 30.3799ZM19.7227 18.8648H15.458V31.0117H12.0797V18.8648H7.83594V16.1367H19.7227V18.8648Z" fill="#D7D7D7"/>
</svg>
