<svg width="181" height="40" viewBox="0 0 181 40" fill="none" xmlns="http://www.w3.org/2000/svg">
<mask id="mask0_550_418" style="mask-type:alpha" maskUnits="userSpaceOnUse" x="8" y="2" width="153" height="38">
<path d="M19.4139 5.8548C17.9148 4.12231 16.6443 2.38981 16.3648 2.01856C16.3394 1.99381 16.2886 1.99381 16.2632 2.01856C16.0091 2.38981 14.7132 4.12231 13.2141 5.8548C0.407911 21.769 15.2214 32.5105 15.2214 32.5105L15.3484 32.5847C15.4501 34.243 15.7296 36.619 15.7296 36.619H16.2886H16.8476C16.8476 36.619 17.1271 34.243 17.2287 32.5847L17.3558 32.4857C17.4066 32.5105 32.2201 21.769 19.4139 5.8548ZM16.314 32.263C16.314 32.263 15.6534 31.7185 15.4755 31.4215V31.3967L16.2886 14.0718C16.2886 14.0223 16.3648 14.0223 16.3648 14.0718L17.1779 31.3967V31.4215C17 31.7185 16.314 32.263 16.314 32.263ZM44.0607 28.7237L37.8863 14.0223L37.8609 13.9728H33.0586V14.9628H33.8463C34.0749 14.9628 34.3036 15.0618 34.4815 15.2103C34.6593 15.3835 34.7356 15.5815 34.7356 15.829L34.6085 30.6295C34.6085 31.0997 34.2274 31.471 33.7446 31.471L32.9569 31.4957V32.461H37.6322V31.4957L37.1494 31.471C36.6667 31.4462 36.2855 31.075 36.2855 30.6295V16.6953L43.0189 32.4857C43.1206 32.7085 43.3492 32.857 43.5779 32.857C43.832 32.857 44.0607 32.7085 44.1369 32.4857L50.7179 17.0665L50.8195 30.6542C50.8195 31.1245 50.4384 31.4957 49.9556 31.5205H49.4474V32.4857H54.9358V31.5205H54.1989C53.7162 31.5205 53.335 31.1245 53.335 30.679L53.2842 15.8785C53.2842 15.4083 53.6653 15.037 54.1481 15.0123L54.9612 14.9875V13.9975H50.2859L44.0607 28.7237ZM87.1545 31.2482C87.002 31.0997 86.9258 30.9017 86.9258 30.6542V23.3778C86.9258 21.9918 86.5193 20.9028 85.6808 20.1355C84.8677 19.3683 83.7243 18.9723 82.3014 18.9723C80.3195 18.9723 78.7441 19.7643 77.6515 21.2988C77.6261 21.3235 77.6007 21.3483 77.5499 21.3483C77.4991 21.3483 77.4736 21.3235 77.4736 21.274L76.9655 19.3435H76.1016L73.891 20.581V21.2493H74.45C74.7041 21.2493 74.9327 21.3235 75.0852 21.4473C75.2376 21.571 75.3139 21.7938 75.3139 22.066V30.6295C75.3139 30.877 75.2376 31.075 75.0852 31.2235C74.9327 31.372 74.7295 31.4462 74.4754 31.4462H73.9164V32.4362H78.9982V31.4462H78.4392C78.1851 31.4462 77.9818 31.372 77.8294 31.2235C77.6769 31.075 77.6007 30.877 77.6007 30.6295V24.9618C77.6007 24.244 77.7786 23.5263 78.0835 22.8085C78.4138 22.1155 78.8711 21.5463 79.5064 21.076C80.1416 20.6305 80.8785 20.4078 81.7424 20.4078C82.7079 20.4078 83.4448 20.7048 83.9021 21.2988C84.3595 21.8928 84.5882 22.66 84.5882 23.6005V30.6295C84.5882 30.877 84.512 31.075 84.3595 31.2235C84.207 31.372 84.0038 31.4462 83.7497 31.4462H83.1907V32.4362H88.2725V31.4462H87.7135C87.5102 31.471 87.307 31.3967 87.1545 31.2482ZM133.577 15.0865C132.179 14.3688 130.604 13.9728 128.902 13.9728H122.295V14.9628H122.93C123.185 14.9628 123.388 15.0618 123.617 15.2845C123.82 15.4825 123.921 15.7053 123.921 15.9528V30.481C123.921 30.7285 123.82 30.9512 123.617 31.1492C123.413 31.3472 123.185 31.471 122.93 31.471H122.295V32.461H128.902C130.604 32.461 132.154 32.0897 133.577 31.3472C134.974 30.6295 136.118 29.5405 136.956 28.1545C137.795 26.7685 138.201 25.1103 138.201 23.2293C138.201 21.3483 137.769 19.69 136.956 18.304C136.118 16.918 135 15.829 133.577 15.0865ZM135.559 23.2045C135.559 24.937 135.254 26.3973 134.619 27.5605C134.009 28.7238 133.17 29.6147 132.154 30.184C131.138 30.7532 129.994 31.0255 128.8 31.0255H127.453C127.199 31.0255 126.996 30.9265 126.767 30.7037C126.564 30.5057 126.462 30.283 126.462 30.0355V16.3488C126.462 16.1013 126.564 15.8785 126.767 15.6805C126.971 15.4825 127.199 15.3588 127.453 15.3588H128.8C130.02 15.3588 131.138 15.631 132.154 16.2003C133.17 16.7695 134.009 17.6358 134.619 18.8238C135.228 20.0118 135.559 21.4968 135.559 23.2045ZM153.828 24.1945C153.218 23.5015 152.024 22.9323 150.652 22.6105C152.557 21.67 153.548 20.3583 153.548 18.6753C153.548 17.7595 153.294 16.9428 152.786 16.225C152.278 15.532 151.567 14.9628 150.677 14.5668C149.762 14.1708 148.721 13.9728 147.526 13.9728H140.031V14.9628H140.615C140.869 14.9628 141.098 15.0618 141.301 15.2845C141.505 15.4825 141.632 15.7053 141.632 15.9528V30.481C141.632 30.7285 141.53 30.9512 141.301 31.1492C141.098 31.3472 140.869 31.471 140.615 31.471H139.955V32.461H148.085C149.331 32.461 150.474 32.263 151.516 31.8422C152.557 31.4462 153.396 30.8522 153.98 30.0602C154.59 29.2682 154.895 28.3278 154.895 27.214C154.946 26.026 154.565 25.0113 153.828 24.1945ZM144.528 30.7285C144.325 30.5305 144.198 30.3077 144.198 30.0602V23.551H148.06C149.432 23.551 150.474 23.8975 151.185 24.5658C151.897 25.234 152.278 26.125 152.278 27.1893C152.278 27.8328 152.1 28.4763 151.795 29.0455C151.465 29.6395 151.008 30.1097 150.372 30.481C149.737 30.8522 148.975 31.0255 148.06 31.0255H145.214C144.96 31.0255 144.757 30.9512 144.528 30.7285ZM144.223 22.165V16.3735C144.223 16.126 144.325 15.9033 144.554 15.7053C144.757 15.5073 144.986 15.3835 145.24 15.3835H147.069C148.39 15.3835 149.356 15.7053 149.966 16.324C150.576 16.9675 150.88 17.7595 150.88 18.7743C150.88 19.789 150.601 20.6305 150.017 21.2493C149.458 21.868 148.594 22.165 147.45 22.165H144.223ZM67.7928 19.8385C66.7256 19.2693 65.5568 18.9723 64.2609 18.9723C62.9651 18.9723 61.7708 19.2445 60.7291 19.8385C59.6619 20.4078 58.8234 21.2245 58.2136 22.264C57.6037 23.3035 57.2734 24.5163 57.2734 25.8528C57.2734 27.1893 57.5783 28.402 58.2136 29.4415C58.8488 30.481 59.6619 31.2977 60.7291 31.867C61.7962 32.4362 62.9651 32.7332 64.2609 32.7332C65.5568 32.7332 66.751 32.461 67.7928 31.867C68.86 31.2977 69.6985 30.481 70.3083 29.4415C70.9181 28.402 71.2484 27.1893 71.2484 25.8528C71.2484 24.5163 70.9435 23.3035 70.3083 22.264C69.6985 21.2245 68.86 20.4078 67.7928 19.8385ZM68.8092 25.8528C68.8092 27.511 68.4026 28.8475 67.5641 29.8127C66.751 30.778 65.633 31.273 64.2609 31.273C62.8888 31.273 61.7708 30.778 60.9577 29.8127C60.1192 28.8475 59.7127 27.511 59.7127 25.8528C59.7127 24.1945 60.1192 22.858 60.9577 21.8928C61.7708 20.9275 62.8888 20.4325 64.2609 20.4325C65.633 20.4325 66.751 20.9275 67.5641 21.8928C68.4026 22.858 68.8092 24.1945 68.8092 25.8528ZM116.629 19.8385C115.562 19.2693 114.393 18.9723 113.097 18.9723C111.827 18.9723 110.607 19.2445 109.565 19.8385C108.498 20.4078 107.66 21.2245 107.05 22.264C106.44 23.3035 106.11 24.5163 106.11 25.8528C106.11 27.1893 106.415 28.402 107.05 29.4415C107.66 30.481 108.498 31.2977 109.565 31.867C110.632 32.4362 111.801 32.7332 113.097 32.7332C114.368 32.7332 115.587 32.461 116.629 31.867C117.696 31.2977 118.535 30.481 119.145 29.4415C119.754 28.402 120.085 27.1893 120.085 25.8528C120.085 24.5163 119.78 23.3035 119.145 22.264C118.535 21.2245 117.671 20.4078 116.629 19.8385ZM117.645 25.8528C117.645 27.511 117.239 28.8475 116.4 29.8127C115.587 30.778 114.469 31.273 113.097 31.273C111.725 31.273 110.607 30.778 109.794 29.8127C108.955 28.8475 108.549 27.511 108.549 25.8528C108.549 24.1945 108.955 22.858 109.794 21.8928C110.607 20.9275 111.725 20.4325 113.097 20.4325C114.469 20.4325 115.587 20.9275 116.4 21.8928C117.213 22.858 117.645 24.1945 117.645 25.8528ZM96.937 18.9723C95.819 18.9723 94.8026 19.195 93.8879 19.6653C92.9732 20.1355 92.2617 20.7543 91.7281 21.5463C91.22 22.3383 90.9405 23.2045 90.9405 24.145C90.9405 24.9865 91.1437 25.7538 91.5249 26.4468C91.906 27.115 92.4396 27.6595 93.1002 28.1297L91.1183 30.7532C90.8642 31.075 90.8388 31.5205 91.0167 31.867C91.22 32.2382 91.5757 32.4362 91.9822 32.4362H92.5412C91.9822 32.8075 91.5503 33.2282 91.2454 33.748C90.8896 34.3172 90.7118 34.936 90.7118 35.5547C90.7118 36.718 91.2454 37.6832 92.2871 38.401C93.3035 39.1187 94.7518 39.49 96.5813 39.49C97.8517 39.49 99.046 39.292 100.139 38.896C101.257 38.5 102.146 37.9307 102.806 37.1635C103.493 36.3962 103.823 35.4805 103.823 34.441C103.823 33.3272 103.416 32.56 102.425 31.7927C101.587 31.1492 100.291 30.8275 98.6648 30.8275H93.1256C93.1002 30.8275 93.1002 30.8027 93.1002 30.8027C93.1002 30.8027 93.0748 30.778 93.1002 30.7532L94.5485 28.8722C94.9297 29.0455 95.2854 29.1445 95.6157 29.2187C95.946 29.293 96.3272 29.3178 96.7337 29.3178C97.9025 29.3178 98.9443 29.095 99.859 28.6247C100.774 28.1545 101.511 27.5357 102.044 26.7438C102.578 25.9518 102.832 25.0855 102.832 24.145C102.832 23.155 102.324 21.3235 100.977 20.383C100.977 20.3583 101.002 20.3583 101.002 20.3583L103.975 20.68V19.3435H99.1984C98.5124 19.1208 97.7501 18.9723 96.937 18.9723ZM98.5886 27.4368C98.055 27.709 97.496 27.8575 96.9116 27.8575C95.9715 27.8575 95.1584 27.5358 94.4723 26.8923C93.7863 26.2488 93.4305 25.333 93.4305 24.145C93.4305 22.957 93.7863 22.0165 94.4723 21.3978C95.1584 20.7543 95.9969 20.4325 96.9116 20.4325C97.496 20.4325 98.055 20.5563 98.5886 20.8533C99.1222 21.1255 99.5541 21.5463 99.8845 22.0908C100.215 22.6353 100.393 23.3283 100.393 24.145C100.393 24.9618 100.215 25.6548 99.8845 26.1993C99.5795 26.7438 99.1222 27.1645 98.5886 27.4368ZM94.828 32.4115H98.5886C99.6304 32.4115 100.291 32.6095 100.748 33.055C101.18 33.4757 101.409 34.0697 101.409 34.738C101.409 35.728 101.002 36.5447 100.189 37.1387C99.3763 37.7575 98.3091 38.0545 96.9624 38.0545C95.7936 38.0545 94.828 37.807 94.1166 37.312C93.4051 36.817 93.0494 36.0745 93.0494 35.134C93.0494 34.54 93.2273 33.9955 93.5576 33.5005C93.9133 33.0055 94.3199 32.659 94.828 32.4115ZM157.766 32.2382C157.487 32.0897 157.284 31.8917 157.131 31.6195C156.979 31.3472 156.902 31.075 156.902 30.778C156.902 30.481 156.979 30.184 157.131 29.9365C157.284 29.6643 157.512 29.4663 157.766 29.3178C158.046 29.1693 158.351 29.095 158.681 29.095C159.037 29.095 159.316 29.1693 159.596 29.3178C159.875 29.4663 160.079 29.6643 160.231 29.9365C160.383 30.2087 160.46 30.481 160.46 30.778C160.46 31.075 160.383 31.372 160.231 31.6195C160.079 31.8917 159.85 32.0897 159.596 32.2382C159.316 32.3867 159.011 32.461 158.681 32.461C158.351 32.461 158.046 32.3867 157.766 32.2382ZM159.443 32.0402C159.672 31.9165 159.85 31.7432 159.977 31.5205C160.104 31.2977 160.18 31.0502 160.18 30.7532C160.18 30.481 160.104 30.2335 159.977 29.986C159.85 29.7632 159.672 29.59 159.443 29.4662C159.215 29.3425 158.961 29.2682 158.681 29.2682C158.402 29.2682 158.147 29.3425 157.919 29.4662C157.69 29.59 157.512 29.7632 157.385 29.986C157.258 30.2087 157.182 30.4562 157.182 30.7532C157.182 31.0255 157.258 31.273 157.385 31.5205C157.512 31.7432 157.69 31.9165 157.919 32.0402C158.147 32.164 158.402 32.2382 158.681 32.2382C158.986 32.2382 159.24 32.164 159.443 32.0402ZM157.944 31.57V31.4462L157.97 31.4215H158.046C158.071 31.4215 158.097 31.3967 158.122 31.3967C158.147 31.372 158.147 31.3472 158.147 31.3225V30.085C158.147 30.0602 158.122 30.0355 158.122 30.0107C158.097 29.986 158.071 29.986 158.046 29.986H157.97L157.944 29.9612V29.887L157.97 29.8622H158.681C158.884 29.8622 159.037 29.9117 159.164 29.986C159.291 30.085 159.342 30.2087 159.342 30.3572C159.342 30.481 159.291 30.6047 159.215 30.679C159.113 30.778 159.011 30.8275 158.859 30.8275L159.011 30.877L159.316 31.372C159.342 31.4215 159.367 31.4215 159.418 31.4215H159.494L159.52 31.4462V31.57L159.494 31.5947H159.062L159.037 31.57L158.605 30.8522H158.503V31.3225C158.503 31.3472 158.529 31.372 158.529 31.3967C158.554 31.4215 158.579 31.4215 158.605 31.4215H158.681L158.706 31.4462V31.57L158.681 31.5947H157.944V31.57ZM158.656 30.7037C158.757 30.7037 158.859 30.679 158.91 30.6047C158.961 30.5552 159.011 30.4562 159.011 30.3572C159.011 30.2582 158.986 30.1592 158.935 30.1097C158.884 30.0355 158.808 30.0107 158.706 30.0107H158.656C158.63 30.0107 158.605 30.0355 158.579 30.0355C158.554 30.0602 158.554 30.085 158.554 30.1097V30.7037H158.656Z" fill="white"/>
</mask>
<g mask="url(#mask0_550_418)">
<rect x="8" width="22" height="39" fill="white"/>
</g>
<mask id="mask1_550_418" style="mask-type:alpha" maskUnits="userSpaceOnUse" x="48" y="10" width="129" height="27">
<path d="M60.0608 25.7237L53.8864 11.0223L53.861 10.9728H49.0587V11.9628H49.8463C50.075 11.9628 50.3037 12.0618 50.4816 12.2103C50.6594 12.3835 50.7357 12.5815 50.7357 12.829L50.6086 27.6295C50.6086 28.0997 50.2275 28.471 49.7447 28.471L48.957 28.4957V29.461H53.6323V28.4957L53.1495 28.471C52.6668 28.4462 52.2856 28.075 52.2856 27.6295V13.6953L59.019 29.4857C59.1207 29.7085 59.3493 29.857 59.578 29.857C59.8321 29.857 60.0608 29.7085 60.137 29.4857L66.718 14.0665L66.8196 27.6542C66.8196 28.1245 66.4385 28.4957 65.9557 28.5205H65.4475V29.4857H70.9359V28.5205H70.199C69.7162 28.5205 69.3351 28.1245 69.3351 27.679L69.2843 12.8785C69.2843 12.4083 69.6654 12.037 70.1482 12.0123L70.9613 11.9875V10.9975H66.286L60.0608 25.7237ZM103.155 28.2482C103.002 28.0997 102.926 27.9017 102.926 27.6542V20.3778C102.926 18.9918 102.519 17.9028 101.681 17.1355C100.868 16.3683 99.7244 15.9723 98.3015 15.9723C96.3196 15.9723 94.7442 16.7643 93.6516 18.2988C93.6262 18.3235 93.6008 18.3483 93.55 18.3483C93.4991 18.3483 93.4737 18.3235 93.4737 18.274L92.9655 16.3435H92.1016L89.8911 17.581V18.2493H90.4501C90.7041 18.2493 90.9328 18.3235 91.0853 18.4473C91.2377 18.571 91.314 18.7938 91.314 19.066V27.6295C91.314 27.877 91.2377 28.075 91.0853 28.2235C90.9328 28.372 90.7295 28.4462 90.4755 28.4462H89.9165V29.4362H94.9983V28.4462H94.4393C94.1852 28.4462 93.9819 28.372 93.8295 28.2235C93.677 28.075 93.6008 27.877 93.6008 27.6295V21.9618C93.6008 21.244 93.7786 20.5263 94.0836 19.8085C94.4139 19.1155 94.8712 18.5463 95.5065 18.076C96.1417 17.6305 96.8786 17.4078 97.7425 17.4078C98.708 17.4078 99.4449 17.7048 99.9022 18.2988C100.36 18.8928 100.588 19.66 100.588 20.6005V27.6295C100.588 27.877 100.512 28.075 100.36 28.2235C100.207 28.372 100.004 28.4462 99.7498 28.4462H99.1908V29.4362H104.273V28.4462H103.714C103.51 28.471 103.307 28.3967 103.155 28.2482ZM149.577 12.0865C148.179 11.3688 146.604 10.9728 144.902 10.9728H138.295V11.9628H138.931C139.185 11.9628 139.388 12.0618 139.617 12.2845C139.82 12.4825 139.922 12.7053 139.922 12.9528V27.481C139.922 27.7285 139.82 27.9512 139.617 28.1492C139.413 28.3472 139.185 28.471 138.931 28.471H138.295V29.461H144.902C146.604 29.461 148.154 29.0897 149.577 28.3472C150.974 27.6295 152.118 26.5405 152.956 25.1545C153.795 23.7685 154.201 22.1103 154.201 20.2293C154.201 18.3483 153.769 16.69 152.956 15.304C152.118 13.918 151 12.829 149.577 12.0865ZM151.559 20.2045C151.559 21.937 151.254 23.3972 150.619 24.5605C150.009 25.7237 149.17 26.6147 148.154 27.184C147.138 27.7532 145.994 28.0255 144.8 28.0255H143.453C143.199 28.0255 142.996 27.9265 142.767 27.7037C142.564 27.5057 142.462 27.283 142.462 27.0355V13.3488C142.462 13.1013 142.564 12.8785 142.767 12.6805C142.971 12.4825 143.199 12.3588 143.453 12.3588H144.8C146.02 12.3588 147.138 12.631 148.154 13.2003C149.17 13.7695 150.009 14.6358 150.619 15.8238C151.229 17.0118 151.559 18.4968 151.559 20.2045ZM169.828 21.1945C169.218 20.5015 168.024 19.9323 166.652 19.6105C168.558 18.67 169.549 17.3583 169.549 15.6753C169.549 14.7595 169.294 13.9428 168.786 13.225C168.278 12.532 167.567 11.9628 166.677 11.5668C165.763 11.1708 164.721 10.9728 163.527 10.9728H156.031V11.9628H156.615C156.869 11.9628 157.098 12.0618 157.301 12.2845C157.505 12.4825 157.632 12.7053 157.632 12.9528V27.481C157.632 27.7285 157.53 27.9512 157.301 28.1492C157.098 28.3472 156.869 28.471 156.615 28.471H155.955V29.461H164.086C165.331 29.461 166.474 29.263 167.516 28.8422C168.558 28.4462 169.396 27.8522 169.98 27.0602C170.59 26.2682 170.895 25.3277 170.895 24.214C170.946 23.026 170.565 22.0112 169.828 21.1945ZM160.528 27.7285C160.325 27.5305 160.198 27.3077 160.198 27.0602V20.551H164.06C165.432 20.551 166.474 20.8975 167.185 21.5657C167.897 22.234 168.278 23.125 168.278 24.1892C168.278 24.8327 168.1 25.4762 167.795 26.0455C167.465 26.6395 167.008 27.1097 166.372 27.481C165.737 27.8522 164.975 28.0255 164.06 28.0255H161.214C160.96 28.0255 160.757 27.9512 160.528 27.7285ZM160.223 19.165V13.3735C160.223 13.126 160.325 12.9033 160.554 12.7053C160.757 12.5073 160.986 12.3835 161.24 12.3835H163.069C164.39 12.3835 165.356 12.7053 165.966 13.324C166.576 13.9675 166.881 14.7595 166.881 15.7743C166.881 16.789 166.601 17.6305 166.017 18.2493C165.458 18.868 164.594 19.165 163.45 19.165H160.223ZM83.7929 16.8385C82.7257 16.2693 81.5569 15.9723 80.261 15.9723C78.9651 15.9723 77.7709 16.2445 76.7291 16.8385C75.662 17.4078 74.8235 18.2245 74.2136 19.264C73.6038 20.3035 73.2735 21.5163 73.2735 22.8527C73.2735 24.1892 73.5784 25.402 74.2136 26.4415C74.8489 27.481 75.662 28.2977 76.7291 28.867C77.7963 29.4362 78.9651 29.7332 80.261 29.7332C81.5569 29.7332 82.7511 29.461 83.7929 28.867C84.8601 28.2977 85.6986 27.481 86.3084 26.4415C86.9182 25.402 87.2485 24.1892 87.2485 22.8527C87.2485 21.5163 86.9436 20.3035 86.3084 19.264C85.6986 18.2245 84.8601 17.4078 83.7929 16.8385ZM84.8092 22.8527C84.8092 24.511 84.4027 25.8475 83.5642 26.8127C82.7511 27.778 81.6331 28.273 80.261 28.273C78.8889 28.273 77.7709 27.778 76.9578 26.8127C76.1193 25.8475 75.7128 24.511 75.7128 22.8527C75.7128 21.1945 76.1193 19.858 76.9578 18.8928C77.7709 17.9275 78.8889 17.4325 80.261 17.4325C81.6331 17.4325 82.7511 17.9275 83.5642 18.8928C84.4027 19.858 84.8092 21.1945 84.8092 22.8527ZM132.629 16.8385C131.562 16.2693 130.393 15.9723 129.097 15.9723C127.827 15.9723 126.607 16.2445 125.565 16.8385C124.498 17.4078 123.66 18.2245 123.05 19.264C122.44 20.3035 122.11 21.5163 122.11 22.8527C122.11 24.1892 122.415 25.402 123.05 26.4415C123.66 27.481 124.498 28.2977 125.565 28.867C126.633 29.4362 127.801 29.7332 129.097 29.7332C130.368 29.7332 131.587 29.461 132.629 28.867C133.696 28.2977 134.535 27.481 135.145 26.4415C135.754 25.402 136.085 24.1892 136.085 22.8527C136.085 21.5163 135.78 20.3035 135.145 19.264C134.535 18.2245 133.671 17.4078 132.629 16.8385ZM133.645 22.8527C133.645 24.511 133.239 25.8475 132.4 26.8127C131.587 27.778 130.469 28.273 129.097 28.273C127.725 28.273 126.607 27.778 125.794 26.8127C124.956 25.8475 124.549 24.511 124.549 22.8527C124.549 21.1945 124.956 19.858 125.794 18.8928C126.607 17.9275 127.725 17.4325 129.097 17.4325C130.469 17.4325 131.587 17.9275 132.4 18.8928C133.214 19.858 133.645 21.1945 133.645 22.8527ZM112.937 15.9723C111.819 15.9723 110.803 16.195 109.888 16.6653C108.973 17.1355 108.262 17.7543 107.728 18.5463C107.22 19.3383 106.941 20.2045 106.941 21.145C106.941 21.9865 107.144 22.7537 107.525 23.4467C107.906 24.115 108.44 24.6595 109.1 25.1297L107.118 27.7532C106.864 28.075 106.839 28.5205 107.017 28.867C107.22 29.2382 107.576 29.4362 107.982 29.4362H108.541C107.982 29.8075 107.55 30.2282 107.245 30.748C106.89 31.3172 106.712 31.936 106.712 32.5547C106.712 33.718 107.245 34.6832 108.287 35.401C109.304 36.1187 110.752 36.49 112.581 36.49C113.852 36.49 115.046 36.292 116.139 35.896C117.257 35.5 118.146 34.9307 118.807 34.1635C119.493 33.3962 119.823 32.4805 119.823 31.441C119.823 30.3272 119.416 29.56 118.425 28.7927C117.587 28.1492 116.291 27.8275 114.665 27.8275H109.126C109.1 27.8275 109.1 27.8027 109.1 27.8027C109.1 27.8027 109.075 27.778 109.1 27.7532L110.549 25.8722C110.93 26.0455 111.286 26.1445 111.616 26.2187C111.946 26.293 112.327 26.3177 112.734 26.3177C113.903 26.3177 114.944 26.095 115.859 25.6247C116.774 25.1545 117.511 24.5357 118.044 23.7437C118.578 22.9517 118.832 22.0855 118.832 21.145C118.832 20.155 118.324 18.3235 116.977 17.383C116.977 17.3583 117.003 17.3583 117.003 17.3583L119.975 17.68V16.3435H115.198C114.512 16.1208 113.75 15.9723 112.937 15.9723ZM114.589 24.4367C114.055 24.709 113.496 24.8575 112.912 24.8575C111.972 24.8575 111.158 24.5357 110.472 23.8922C109.786 23.2487 109.431 22.333 109.431 21.145C109.431 19.957 109.786 19.0165 110.472 18.3978C111.158 17.7543 111.997 17.4325 112.912 17.4325C113.496 17.4325 114.055 17.5563 114.589 17.8533C115.122 18.1255 115.554 18.5463 115.885 19.0908C116.215 19.6353 116.393 20.3282 116.393 21.145C116.393 21.9617 116.215 22.6547 115.885 23.1992C115.58 23.7437 115.122 24.1645 114.589 24.4367ZM110.828 29.4115H114.589C115.63 29.4115 116.291 29.6095 116.748 30.055C117.18 30.4757 117.409 31.0697 117.409 31.738C117.409 32.728 117.003 33.5447 116.189 34.1387C115.376 34.7575 114.309 35.0545 112.963 35.0545C111.794 35.0545 110.828 34.807 110.117 34.312C109.405 33.817 109.049 33.0745 109.049 32.134C109.049 31.54 109.227 30.9955 109.558 30.5005C109.913 30.0055 110.32 29.659 110.828 29.4115ZM173.766 29.2382C173.487 29.0897 173.284 28.8917 173.131 28.6195C172.979 28.3472 172.903 28.075 172.903 27.778C172.903 27.481 172.979 27.184 173.131 26.9365C173.284 26.6642 173.512 26.4662 173.766 26.3177C174.046 26.1692 174.351 26.095 174.681 26.095C175.037 26.095 175.316 26.1692 175.596 26.3177C175.875 26.4662 176.079 26.6642 176.231 26.9365C176.384 27.2087 176.46 27.481 176.46 27.778C176.46 28.075 176.384 28.372 176.231 28.6195C176.079 28.8917 175.85 29.0897 175.596 29.2382C175.316 29.3867 175.011 29.461 174.681 29.461C174.351 29.461 174.046 29.3867 173.766 29.2382ZM175.443 29.0402C175.672 28.9165 175.85 28.7432 175.977 28.5205C176.104 28.2977 176.18 28.0502 176.18 27.7532C176.18 27.481 176.104 27.2335 175.977 26.986C175.85 26.7632 175.672 26.59 175.443 26.4662C175.215 26.3425 174.961 26.2682 174.681 26.2682C174.402 26.2682 174.148 26.3425 173.919 26.4662C173.69 26.59 173.512 26.7632 173.385 26.986C173.258 27.2087 173.182 27.4562 173.182 27.7532C173.182 28.0255 173.258 28.273 173.385 28.5205C173.512 28.7432 173.69 28.9165 173.919 29.0402C174.148 29.164 174.402 29.2382 174.681 29.2382C174.986 29.2382 175.24 29.164 175.443 29.0402ZM173.944 28.57V28.4462L173.97 28.4215H174.046C174.071 28.4215 174.097 28.3967 174.122 28.3967C174.148 28.372 174.148 28.3472 174.148 28.3225V27.085C174.148 27.0602 174.122 27.0355 174.122 27.0107C174.097 26.986 174.071 26.986 174.046 26.986H173.97L173.944 26.9612V26.887L173.97 26.8622H174.681C174.884 26.8622 175.037 26.9117 175.164 26.986C175.291 27.085 175.342 27.2087 175.342 27.3572C175.342 27.481 175.291 27.6047 175.215 27.679C175.113 27.778 175.011 27.8275 174.859 27.8275L175.011 27.877L175.316 28.372C175.342 28.4215 175.367 28.4215 175.418 28.4215H175.494L175.52 28.4462V28.57L175.494 28.5947H175.062L175.037 28.57L174.605 27.8522H174.503V28.3225C174.503 28.3472 174.529 28.372 174.529 28.3967C174.554 28.4215 174.579 28.4215 174.605 28.4215H174.681L174.707 28.4462V28.57L174.681 28.5947H173.944V28.57ZM174.656 27.7037C174.757 27.7037 174.859 27.679 174.91 27.6047C174.961 27.5552 175.011 27.4562 175.011 27.3572C175.011 27.2582 174.986 27.1592 174.935 27.1097C174.884 27.0355 174.808 27.0107 174.707 27.0107H174.656C174.63 27.0107 174.605 27.0355 174.579 27.0355C174.554 27.0602 174.554 27.085 174.554 27.1097V27.7037H174.656Z" fill="white"/>
</mask>
<g mask="url(#mask1_550_418)">
<rect x="47" y="5" width="131" height="32" fill="white"/>
</g>
</svg>
