<svg width="153" height="38" viewBox="0 0 153 38" fill="none" xmlns="http://www.w3.org/2000/svg">
<mask id="mask0_550_422" style="mask-type:alpha" maskUnits="userSpaceOnUse" x="0" y="0" width="153" height="38">
<path d="M11.9542 4.20344C10.455 2.47094 9.1846 0.738444 8.9051 0.367195C8.87969 0.342445 8.82887 0.342445 8.80346 0.367195C8.54937 0.738444 7.25351 2.47094 5.75437 4.20344C-7.05181 20.1176 7.76169 30.8591 7.76169 30.8591L7.88873 30.9334C7.99037 32.5916 8.26987 34.9676 8.26987 34.9676H8.82887H9.38787C9.38787 34.9676 9.66737 32.5916 9.769 30.9334L9.89605 30.8344C9.94687 30.8591 24.7604 20.1176 11.9542 4.20344ZM8.85428 30.6116C8.85428 30.6116 8.19364 30.0671 8.01578 29.7701V29.7454L8.82887 12.4204C8.82887 12.3709 8.9051 12.3709 8.9051 12.4204L9.71819 29.7454V29.7701C9.54032 30.0671 8.85428 30.6116 8.85428 30.6116ZM36.601 27.0724L30.4266 12.3709L30.4012 12.3214H25.5989V13.3114H26.3865C26.6152 13.3114 26.8439 13.4104 27.0218 13.5589C27.1996 13.7322 27.2759 13.9302 27.2759 14.1777L27.1488 28.9781C27.1488 29.4484 26.7677 29.8196 26.2849 29.8196L25.4972 29.8444V30.8096H30.1725V29.8444L29.6897 29.8196C29.207 29.7949 28.8258 29.4236 28.8258 28.9781V15.0439L35.5592 30.8344C35.6609 31.0571 35.8895 31.2056 36.1182 31.2056C36.3723 31.2056 36.601 31.0571 36.6772 30.8344L43.2582 15.4152L43.3598 29.0029C43.3598 29.4731 42.9787 29.8444 42.4959 29.8691H41.9877V30.8344H47.4761V29.8691H46.7392C46.2564 29.8691 45.8753 29.4731 45.8753 29.0276L45.8245 14.2272C45.8245 13.7569 46.2056 13.3857 46.6884 13.3609L47.5015 13.3362V12.3462H42.8262L36.601 27.0724ZM79.6948 29.5969C79.5423 29.4484 79.4661 29.2504 79.4661 29.0029V21.7264C79.4661 20.3404 79.0596 19.2514 78.2211 18.4842C77.408 17.7169 76.2646 17.3209 74.8417 17.3209C72.8597 17.3209 71.2844 18.1129 70.1918 19.6474C70.1664 19.6721 70.141 19.6969 70.0902 19.6969C70.0393 19.6969 70.0139 19.6722 70.0139 19.6227L69.5057 17.6922H68.6418L66.4313 18.9296V19.5979H66.9902C67.2443 19.5979 67.473 19.6721 67.6255 19.7959C67.7779 19.9196 67.8542 20.1424 67.8542 20.4146V28.9781C67.8542 29.2256 67.7779 29.4236 67.6255 29.5721C67.473 29.7206 67.2697 29.7949 67.0157 29.7949H66.4566V30.7849H71.5385V29.7949H70.9795C70.7254 29.7949 70.5221 29.7206 70.3697 29.5721C70.2172 29.4236 70.141 29.2256 70.141 28.9781V23.3104C70.141 22.5926 70.3188 21.8749 70.6237 21.1571C70.9541 20.4641 71.4114 19.8949 72.0467 19.4246C72.6819 18.9791 73.4187 18.7564 74.2827 18.7564C75.2482 18.7564 75.9851 19.0534 76.4424 19.6474C76.8998 20.2414 77.1285 21.0086 77.1285 21.9491V28.9781C77.1285 29.2256 77.0522 29.4236 76.8998 29.5721C76.7473 29.7206 76.5441 29.7949 76.29 29.7949H75.731V30.7849H80.8128V29.7949H80.2538C80.0505 29.8196 79.8472 29.7454 79.6948 29.5969ZM126.117 13.4352C124.72 12.7174 123.144 12.3214 121.442 12.3214H114.836V13.3114H115.471C115.725 13.3114 115.928 13.4104 116.157 13.6332C116.36 13.8312 116.462 14.0539 116.462 14.3014V28.8296C116.462 29.0771 116.36 29.2999 116.157 29.4979C115.954 29.6959 115.725 29.8196 115.471 29.8196H114.836V30.8096H121.442C123.144 30.8096 124.694 30.4384 126.117 29.6959C127.515 28.9781 128.658 27.8891 129.497 26.5031C130.335 25.1171 130.742 23.4589 130.742 21.5779C130.742 19.6969 130.31 18.0387 129.497 16.6527C128.658 15.2667 127.54 14.1777 126.117 13.4352ZM128.099 21.5531C128.099 23.2856 127.794 24.7459 127.159 25.9091C126.549 27.0724 125.711 27.9634 124.694 28.5326C123.678 29.1019 122.534 29.3741 121.34 29.3741H119.994C119.739 29.3741 119.536 29.2751 119.308 29.0524C119.104 28.8544 119.003 28.6316 119.003 28.3841V14.6974C119.003 14.4499 119.104 14.2272 119.308 14.0292C119.511 13.8312 119.739 13.7074 119.994 13.7074H121.34C122.56 13.7074 123.678 13.9797 124.694 14.5489C125.711 15.1182 126.549 15.9844 127.159 17.1724C127.769 18.3604 128.099 19.8454 128.099 21.5531ZM146.368 22.5431C145.758 21.8501 144.564 21.2809 143.192 20.9591C145.098 20.0187 146.089 18.7069 146.089 17.0239C146.089 16.1082 145.835 15.2914 145.326 14.5737C144.818 13.8807 144.107 13.3114 143.217 12.9154C142.303 12.5194 141.261 12.3214 140.067 12.3214H132.571V13.3114H133.155C133.41 13.3114 133.638 13.4104 133.842 13.6332C134.045 13.8312 134.172 14.0539 134.172 14.3014V28.8296C134.172 29.0771 134.07 29.2999 133.842 29.4979C133.638 29.6959 133.41 29.8196 133.155 29.8196H132.495V30.8096H140.626C141.871 30.8096 143.014 30.6116 144.056 30.1909C145.098 29.7949 145.936 29.2009 146.521 28.4089C147.13 27.6169 147.435 26.6764 147.435 25.5626C147.486 24.3746 147.105 23.3599 146.368 22.5431ZM137.068 29.0771C136.865 28.8791 136.738 28.6564 136.738 28.4089V21.8996H140.6C141.972 21.8996 143.014 22.2461 143.726 22.9144C144.437 23.5826 144.818 24.4736 144.818 25.5379C144.818 26.1814 144.64 26.8249 144.335 27.3941C144.005 27.9881 143.548 28.4584 142.913 28.8296C142.277 29.2009 141.515 29.3741 140.6 29.3741H137.755C137.5 29.3741 137.297 29.2999 137.068 29.0771ZM136.764 20.5136V14.7222C136.764 14.4747 136.865 14.2519 137.094 14.0539C137.297 13.8559 137.526 13.7322 137.78 13.7322H139.609C140.931 13.7322 141.896 14.0539 142.506 14.6727C143.116 15.3162 143.421 16.1082 143.421 17.1229C143.421 18.1377 143.141 18.9792 142.557 19.5979C141.998 20.2167 141.134 20.5136 139.991 20.5136H136.764ZM60.3331 18.1872C59.2659 17.6179 58.0971 17.3209 56.8012 17.3209C55.5053 17.3209 54.3111 17.5932 53.2693 18.1872C52.2022 18.7564 51.3637 19.5732 50.7538 20.6126C50.144 21.6521 49.8137 22.8649 49.8137 24.2014C49.8137 25.5379 50.1186 26.7506 50.7538 27.7901C51.3891 28.8296 52.2022 29.6464 53.2693 30.2156C54.3365 30.7849 55.5053 31.0819 56.8012 31.0819C58.0971 31.0819 59.2913 30.8096 60.3331 30.2156C61.4003 29.6464 62.2387 28.8296 62.8486 27.7901C63.4584 26.7506 63.7887 25.5379 63.7887 24.2014C63.7887 22.8649 63.4838 21.6521 62.8486 20.6126C62.2387 19.5732 61.4003 18.7564 60.3331 18.1872ZM61.3494 24.2014C61.3494 25.8596 60.9429 27.1961 60.1044 28.1614C59.2913 29.1266 58.1733 29.6216 56.8012 29.6216C55.4291 29.6216 54.3111 29.1266 53.498 28.1614C52.6595 27.1961 52.253 25.8596 52.253 24.2014C52.253 22.5431 52.6595 21.2066 53.498 20.2414C54.3111 19.2762 55.4291 18.7811 56.8012 18.7811C58.1733 18.7811 59.2913 19.2762 60.1044 20.2414C60.9429 21.2066 61.3494 22.5431 61.3494 24.2014ZM109.169 18.1872C108.102 17.6179 106.933 17.3209 105.637 17.3209C104.367 17.3209 103.147 17.5932 102.106 18.1872C101.038 18.7564 100.2 19.5732 99.5901 20.6126C98.9803 21.6521 98.65 22.8649 98.65 24.2014C98.65 25.5379 98.9549 26.7506 99.5901 27.7901C100.2 28.8296 101.038 29.6464 102.106 30.2156C103.173 30.7849 104.342 31.0819 105.637 31.0819C106.908 31.0819 108.128 30.8096 109.169 30.2156C110.236 29.6464 111.075 28.8296 111.685 27.7901C112.295 26.7506 112.625 25.5379 112.625 24.2014C112.625 22.8649 112.32 21.6521 111.685 20.6126C111.075 19.5732 110.211 18.7564 109.169 18.1872ZM110.186 24.2014C110.186 25.8596 109.779 27.1961 108.941 28.1614C108.128 29.1266 107.01 29.6216 105.637 29.6216C104.265 29.6216 103.147 29.1266 102.334 28.1614C101.496 27.1961 101.089 25.8596 101.089 24.2014C101.089 22.5431 101.496 21.2066 102.334 20.2414C103.147 19.2762 104.265 18.7811 105.637 18.7811C107.01 18.7811 108.128 19.2762 108.941 20.2414C109.754 21.2066 110.186 22.5431 110.186 24.2014ZM89.4773 17.3209C88.3593 17.3209 87.3429 17.5437 86.4282 18.0139C85.5135 18.4842 84.802 19.1029 84.2684 19.8949C83.7602 20.6869 83.4807 21.5531 83.4807 22.4936C83.4807 23.3351 83.684 24.1024 84.0651 24.7954C84.4463 25.4636 84.9799 26.0081 85.6405 26.4784L83.6586 29.1019C83.4045 29.4236 83.3791 29.8691 83.557 30.2156C83.7602 30.5869 84.116 30.7849 84.5225 30.7849H85.0815C84.5225 31.1561 84.0906 31.5769 83.7857 32.0966C83.4299 32.6659 83.2521 33.2846 83.2521 33.9034C83.2521 35.0666 83.7857 36.0319 84.8274 36.7496C85.8438 37.4674 87.2921 37.8386 89.1216 37.8386C90.392 37.8386 91.5862 37.6406 92.6788 37.2446C93.7968 36.8486 94.6861 36.2794 95.3468 35.5121C96.0328 34.7449 96.3631 33.8291 96.3631 32.7896C96.3631 31.6759 95.9566 30.9086 94.9656 30.1414C94.1271 29.4979 92.8313 29.1761 91.2051 29.1761H85.6659C85.6405 29.1761 85.6405 29.1514 85.6405 29.1514C85.6405 29.1514 85.6151 29.1266 85.6405 29.1019L87.0888 27.2209C87.47 27.3941 87.8257 27.4931 88.156 27.5674C88.4863 27.6416 88.8675 27.6664 89.274 27.6664C90.4428 27.6664 91.4846 27.4436 92.3993 26.9734C93.3141 26.5031 94.0509 25.8844 94.5845 25.0924C95.1181 24.3004 95.3722 23.4341 95.3722 22.4936C95.3722 21.5036 94.864 19.6722 93.5173 18.7317C93.5173 18.7069 93.5427 18.7069 93.5427 18.7069L96.5156 19.0286V17.6922H91.7387C91.0526 17.4694 90.2904 17.3209 89.4773 17.3209ZM91.1289 25.7854C90.5953 26.0576 90.0363 26.2061 89.4519 26.2061C88.5117 26.2061 87.6986 25.8844 87.0126 25.2409C86.3266 24.5974 85.9708 23.6816 85.9708 22.4936C85.9708 21.3056 86.3266 20.3652 87.0126 19.7464C87.6986 19.1029 88.5371 18.7811 89.4519 18.7811C90.0363 18.7811 90.5953 18.9049 91.1289 19.2019C91.6625 19.4741 92.0944 19.8949 92.4247 20.4394C92.7551 20.9839 92.9329 21.6769 92.9329 22.4936C92.9329 23.3104 92.7551 24.0034 92.4247 24.5479C92.1198 25.0924 91.6625 25.5131 91.1289 25.7854ZM87.3683 30.7601H91.1289C92.1706 30.7601 92.8313 30.9581 93.2886 31.4036C93.7206 31.8244 93.9493 32.4184 93.9493 33.0866C93.9493 34.0766 93.5427 34.8934 92.7296 35.4874C91.9166 36.1061 90.8494 36.4031 89.5027 36.4031C88.3339 36.4031 87.3683 36.1556 86.6569 35.6606C85.9454 35.1656 85.5897 34.4231 85.5897 33.4826C85.5897 32.8886 85.7676 32.3441 86.0979 31.8491C86.4536 31.3541 86.8602 31.0076 87.3683 30.7601ZM150.307 30.5869C150.027 30.4384 149.824 30.2404 149.671 29.9681C149.519 29.6959 149.443 29.4236 149.443 29.1266C149.443 28.8296 149.519 28.5326 149.671 28.2851C149.824 28.0129 150.053 27.8149 150.307 27.6664C150.586 27.5179 150.891 27.4436 151.221 27.4436C151.577 27.4436 151.857 27.5179 152.136 27.6664C152.416 27.8149 152.619 28.0129 152.771 28.2851C152.924 28.5574 153 28.8296 153 29.1266C153 29.4236 152.924 29.7206 152.771 29.9681C152.619 30.2404 152.39 30.4384 152.136 30.5869C151.857 30.7354 151.552 30.8096 151.221 30.8096C150.891 30.8096 150.586 30.7354 150.307 30.5869ZM151.984 30.3889C152.212 30.2651 152.39 30.0919 152.517 29.8691C152.644 29.6464 152.72 29.3989 152.72 29.1019C152.72 28.8296 152.644 28.5821 152.517 28.3346C152.39 28.1119 152.212 27.9386 151.984 27.8149C151.755 27.6911 151.501 27.6169 151.221 27.6169C150.942 27.6169 150.688 27.6911 150.459 27.8149C150.23 27.9386 150.053 28.1119 149.925 28.3346C149.798 28.5574 149.722 28.8049 149.722 29.1019C149.722 29.3741 149.798 29.6216 149.925 29.8691C150.053 30.0919 150.23 30.2651 150.459 30.3889C150.688 30.5126 150.942 30.5869 151.221 30.5869C151.526 30.5869 151.78 30.5126 151.984 30.3889ZM150.484 29.9186V29.7949L150.51 29.7701H150.586C150.612 29.7701 150.637 29.7454 150.662 29.7454C150.688 29.7206 150.688 29.6959 150.688 29.6711V28.4336C150.688 28.4089 150.662 28.3841 150.662 28.3594C150.637 28.3346 150.612 28.3346 150.586 28.3346H150.51L150.484 28.3099V28.2356L150.51 28.2109H151.221C151.425 28.2109 151.577 28.2604 151.704 28.3346C151.831 28.4336 151.882 28.5574 151.882 28.7059C151.882 28.8296 151.831 28.9534 151.755 29.0276C151.653 29.1266 151.552 29.1761 151.399 29.1761L151.552 29.2256L151.857 29.7206C151.882 29.7701 151.907 29.7701 151.958 29.7701H152.034L152.06 29.7949V29.9186L152.034 29.9434H151.602L151.577 29.9186L151.145 29.2009H151.043V29.6711C151.043 29.6959 151.069 29.7206 151.069 29.7454C151.094 29.7701 151.12 29.7701 151.145 29.7701H151.221L151.247 29.7949V29.9186L151.221 29.9434H150.484V29.9186ZM151.196 29.0524C151.298 29.0524 151.399 29.0276 151.45 28.9534C151.501 28.9039 151.552 28.8049 151.552 28.7059C151.552 28.6069 151.526 28.5079 151.475 28.4584C151.425 28.3841 151.348 28.3594 151.247 28.3594H151.196C151.171 28.3594 151.145 28.3841 151.12 28.3841C151.094 28.4089 151.094 28.4336 151.094 28.4584V29.0524H151.196Z" fill="white"/>
</mask>
<g mask="url(#mask0_550_422)">
<rect x="-10" y="-26" width="185" height="77" fill="white"/>
</g>
</svg>
