<svg width="143" height="49" viewBox="0 0 143 49" fill="none" xmlns="http://www.w3.org/2000/svg">
<g clip-path="url(#clip0_550_436)">
<path d="M65.4684 33.3516L61.0024 30.7397C60.7207 30.5765 60.5598 30.25 60.5598 29.9235V24.4548C60.5598 24.1283 60.3989 23.8018 60.1172 23.6385L58.2262 22.5366C58.1055 22.455 57.9446 22.4142 57.7836 22.4142C57.6227 22.4142 57.4617 22.455 57.341 22.5366L55.45 23.6385C55.1684 23.8018 55.0074 24.1283 55.0074 24.4548V29.9643C55.0074 30.2908 54.8465 30.5765 54.5649 30.7805L50.0989 33.3925C49.9781 33.4741 49.777 33.4741 49.6563 33.3925C49.4953 33.3108 49.4149 33.1476 49.4149 32.9843L49.3746 21.149C49.3746 20.8225 49.5356 20.4961 49.8172 20.3328L57.341 15.9252C57.4617 15.8436 57.6227 15.8027 57.7434 15.8027H57.8239C57.9848 15.8027 58.1055 15.8436 58.2262 15.9252L65.7098 20.3328C65.9914 20.4961 66.1524 20.8225 66.1524 21.149V32.9843C66.1524 33.1476 66.0719 33.3108 65.911 33.3925C65.7903 33.4333 65.5891 33.4333 65.4684 33.3516ZM94.3969 30.2092V21.3531C94.3969 21.0266 94.5578 20.7409 94.8395 20.5369L102.363 16.1292C102.645 15.966 103.007 15.966 103.289 16.1292L105.18 17.2311C105.26 17.272 105.421 17.272 105.502 17.2311C105.582 17.1903 105.663 17.0679 105.663 16.9455V5.27341C105.663 5.11016 105.743 4.94692 105.904 4.86529C106.025 4.78367 106.226 4.78367 106.347 4.86529L110.813 7.3956C111.094 7.55884 111.295 7.88534 111.295 8.21183V30.1684C111.295 30.4948 111.134 30.7805 110.853 30.9846L103.329 35.3922C103.047 35.5555 102.685 35.5555 102.404 35.3922L94.8797 30.9846C94.5578 30.8213 94.3969 30.4948 94.3969 30.2092ZM100.03 27.2707C100.03 27.3524 100.07 27.434 100.15 27.4748L102.725 28.9848C102.806 29.0256 102.886 29.0256 102.967 28.9848L105.542 27.4748C105.622 27.434 105.663 27.3524 105.663 27.2707V24.2507C105.663 24.1691 105.622 24.0875 105.542 24.0466L102.967 22.5366C102.886 22.4958 102.806 22.4958 102.725 22.5366L100.15 24.0466C100.07 24.0875 100.03 24.1691 100.03 24.2507V27.2707ZM133.263 20.4552L125.78 16.0476C125.498 15.8844 125.136 15.8844 124.854 16.0476L117.33 20.4552C117.049 20.6185 116.888 20.945 116.888 21.2715V30.0867C116.888 30.4132 117.049 30.7397 117.33 30.903L124.814 35.229C125.096 35.3922 125.418 35.3922 125.699 35.229L130.205 32.6987C130.366 32.617 130.447 32.4538 130.447 32.2905C130.447 32.1273 130.366 31.9641 130.205 31.8824L122.641 27.4748C122.48 27.3932 122.4 27.2299 122.4 27.0667V24.2915C122.4 24.1283 122.48 23.965 122.641 23.8834L125.015 22.4958C125.136 22.4142 125.337 22.4142 125.458 22.4958L127.832 23.8834C127.993 23.965 128.073 24.1283 128.073 24.2915V26.4545C128.073 26.6178 128.154 26.781 128.314 26.8626C128.475 26.9443 128.636 26.9443 128.757 26.8626L133.263 24.2099C133.545 24.0466 133.706 23.7202 133.706 23.3937V21.2715C133.706 20.9042 133.545 20.6185 133.263 20.4552ZM72.3082 30.8213L79.8321 35.229C80.1137 35.3922 80.4758 35.3922 80.7574 35.229L88.2813 30.8213C88.5629 30.6581 88.7239 30.3316 88.7239 30.0051V21.1898C88.7239 20.8634 88.5629 20.5369 88.2813 20.3736L80.7574 15.966C80.4758 15.8027 80.1137 15.8027 79.8321 15.966L72.3082 20.4144C72.0266 20.5777 71.8656 20.9042 71.8656 21.2307V30.0459C71.8656 30.3724 72.0266 30.6581 72.3082 30.8213ZM117.129 51.1454L93.9141 37.5552C92.4656 36.6982 90.4942 36.6982 89.0457 37.5552L65.8305 51.1454C64.3418 52.0024 63.4164 53.6757 63.4164 55.4306V82.5702C63.4164 84.3251 64.3418 85.9983 65.8305 86.8554L71.9059 90.4059C74.843 91.8752 75.8891 91.8752 77.2571 91.8752C81.6024 91.8752 84.1371 89.1816 84.1371 84.5291V57.716C84.1371 57.3487 83.8555 57.0222 83.4531 57.0222H80.516C80.1539 57.0222 79.8321 57.3079 79.8321 57.716V84.5291C79.8321 86.6105 77.6996 88.6511 74.2797 86.8962L67.9227 83.1823C67.6813 83.0599 67.5606 82.815 67.5606 82.5702V55.4306C67.5606 55.1857 67.7215 54.9 67.9227 54.7776L91.0977 41.1874C91.2989 41.065 91.6207 41.065 91.8219 41.1874L114.997 54.7776C115.238 54.9 115.359 55.1449 115.359 55.4306V82.5702C115.359 82.8558 115.238 83.1007 114.997 83.2232L91.7817 96.8133C91.5805 96.9358 91.2586 96.9358 91.0574 96.8133L85.1028 93.2219C84.9418 93.0995 84.7004 93.0995 84.5395 93.1811C82.8899 94.1198 82.568 94.2422 81.0391 94.8136C80.677 94.936 80.0735 95.1809 81.2403 95.8339L88.9653 100.486C89.7297 100.935 90.5746 101.139 91.3793 101.139C92.2242 101.139 93.0692 100.894 93.8336 100.486L117.049 86.8962C118.538 85.9983 119.503 84.3659 119.503 82.611V55.4306C119.584 53.6757 118.658 52.0433 117.129 51.1454ZM99.5871 79.999C92.6668 79.999 91.1379 78.2442 90.6149 74.7344C90.5746 74.3671 90.2528 74.0814 89.8504 74.0814H86.4707C86.0684 74.0814 85.7063 74.4079 85.7063 74.8568C85.7063 79.3461 88.0801 84.6516 99.5469 84.6516C107.835 84.6516 112.583 81.3458 112.583 75.5506C112.583 69.837 108.761 68.2862 100.714 67.2251C92.5863 66.1232 91.7414 65.5926 91.7414 63.6337C91.7414 62.042 92.4254 59.9198 98.4606 59.9198C103.852 59.9198 105.823 61.1034 106.628 64.7764C106.709 65.1029 106.99 65.3886 107.352 65.3886H110.732C110.933 65.3886 111.134 65.307 111.295 65.1437C111.456 64.9805 111.537 64.7764 111.497 64.5723C110.973 58.2466 106.829 55.3082 98.4606 55.3082C91.0172 55.3082 86.5512 58.4915 86.5512 63.8377C86.5512 69.633 90.977 71.2654 98.1387 71.9592C106.709 72.8162 107.393 74.0814 107.393 75.7955C107.433 78.7747 105.099 79.999 99.5871 79.999ZM125.377 23.761C125.337 23.7202 125.257 23.7202 125.216 23.761L123.768 24.618C123.728 24.6588 123.688 24.6996 123.688 24.7812V26.4545C123.688 26.4953 123.728 26.5769 123.768 26.6178L125.216 27.4748C125.257 27.5156 125.337 27.5156 125.377 27.4748L126.826 26.6178C126.866 26.5769 126.906 26.5361 126.906 26.4545V24.7812C126.906 24.7404 126.866 24.6588 126.826 24.618L125.377 23.761Z" fill="white"/>
</g>
<path d="M35.2538 16.6378C30.2746 13.6086 27.4829 11.9103 22.5037 8.88116C22.0457 8.61633 21.5276 8.47705 21.0005 8.47705C20.4733 8.47705 19.9552 8.61633 19.4972 8.88116C14.5177 11.91 11.7258 13.6081 6.74629 16.6369C6.28678 16.9226 5.90767 17.3236 5.64556 17.8012C5.38346 18.2789 5.24723 18.817 5.25004 19.3637V34.8544C5.24729 35.4014 5.38351 35.9399 5.64559 36.4179C5.90767 36.8959 6.28676 37.2974 6.74629 37.5836L10.0899 39.6089L10.1088 39.6197C11.797 40.4959 12.4434 40.4959 13.1923 40.4959C15.8288 40.4959 17.467 38.7652 17.467 35.9786V20.9588C17.4685 20.7712 17.3966 20.5908 17.2671 20.4569C17.1377 20.3231 16.9611 20.2468 16.7763 20.2448H14.9404C14.7555 20.2468 14.579 20.3231 14.4495 20.4569C14.32 20.5908 14.2482 20.7712 14.2497 20.9588V35.9786C14.2564 36.1936 14.2081 36.4067 14.1097 36.5973C14.0112 36.7878 13.8659 36.9493 13.6878 37.0661C13.2038 37.3656 12.5008 37.3024 11.7075 36.8872L8.5034 34.931C8.49114 34.9225 8.48112 34.9111 8.47426 34.8977C8.46739 34.8844 8.46387 34.8695 8.46403 34.8544V19.5825C8.46455 19.5649 8.46922 19.5478 8.47765 19.5324C8.48607 19.5171 8.49799 19.504 8.51243 19.4943L20.9681 11.756C20.9774 11.7513 20.9876 11.7489 20.998 11.7489C21.0084 11.7489 21.0186 11.7513 21.0279 11.756L33.4909 19.4943C33.5051 19.5048 33.5166 19.5186 33.5245 19.5345C33.5323 19.5504 33.5363 19.568 33.5361 19.5858V34.8544C33.5364 34.8702 33.5332 34.8859 33.5268 34.9002C33.5205 34.9146 33.511 34.9274 33.4991 34.9376L21.0255 42.4804C21.0042 42.4879 20.9811 42.4879 20.9598 42.4804L17.7746 40.5616C17.68 40.4989 17.5708 40.4628 17.458 40.4568C17.3451 40.4508 17.2328 40.4752 17.1323 40.5275L17.1044 40.5442C16.225 41.0725 15.9888 41.2098 15.1734 41.511C15.0405 41.5601 14.7279 41.6775 14.7009 41.9911C14.6738 42.3048 14.9707 42.5278 15.2349 42.6834L19.4923 45.3353C19.9459 45.6109 20.4647 45.7567 20.9935 45.7571H21.0411C21.5566 45.7489 22.061 45.6034 22.5037 45.3353L35.2538 37.5861C35.7131 37.299 36.0919 36.897 36.3539 36.4187C36.616 35.9403 36.7524 35.4017 36.75 34.8544V19.3637C36.7526 18.8172 36.6163 18.2792 36.3542 17.8018C36.0921 17.3243 35.7131 16.9234 35.2538 16.6378Z" fill="#D7D7D7"/>
<path d="M25.2559 32.279C22.1969 32.279 21.5448 31.412 21.3512 30.0125C21.3294 29.8458 21.2493 29.6927 21.1256 29.5809C21.0018 29.4691 20.8426 29.4061 20.6769 29.4034H19.0527C18.8696 29.4073 18.6956 29.4847 18.5686 29.6184C18.4416 29.7522 18.372 29.9316 18.3751 30.1173C18.3751 31.3305 18.7951 35.2903 25.2592 35.2903C27.2591 35.2903 28.9227 34.8161 30.0687 33.9182C31.2146 33.0204 31.8282 31.7141 31.8282 30.1573C31.8282 27.0328 29.8185 26.1774 25.8605 25.6183C21.8368 25.0508 21.8368 24.7621 21.8368 24.1297C21.8368 23.6745 21.8368 22.6087 24.7456 22.6087C26.8153 22.6087 27.9235 22.8741 28.2779 24.2728C28.3093 24.4279 28.3919 24.5674 28.5122 24.6684C28.6324 24.7693 28.783 24.8255 28.9391 24.8278H30.569C30.6651 24.8268 30.7599 24.8051 30.847 24.7641C30.9341 24.723 31.0116 24.6636 31.0744 24.5898C31.1997 24.4414 31.2622 24.2489 31.2483 24.054C31.0374 21.0959 28.9055 19.5957 24.7481 19.5957C20.9697 19.5957 18.7147 21.3223 18.7147 24.2137C18.7147 27.3839 21.0518 28.2801 24.5627 28.6512C28.6643 29.0814 28.6643 29.7088 28.6643 30.2629C28.6667 31.1266 28.3132 32.279 25.2559 32.279Z" fill="#D7D7D7"/>
<defs>
<clipPath id="clip0_550_436">
<rect width="103" height="35.914" fill="white" transform="translate(40 0.743286)"/>
</clipPath>
</defs>
</svg>
