<svg width="109" height="36" viewBox="0 0 109 36" fill="none" xmlns="http://www.w3.org/2000/svg">
<path fill-rule="evenodd" clip-rule="evenodd" d="M59.6344 25.4418L54.9345 18.6037C57.3098 18.4019 59.4501 16.7444 59.4501 13.7164C59.4501 10.6353 57.1796 8.66333 53.9946 8.66333H47V25.429H49.1668V18.7674H52.6387L57.0759 25.429L59.6344 25.4418ZM53.7353 16.9452H49.1679V10.5354H53.7353C55.7984 10.5354 57.2072 11.8422 57.2072 13.7281C57.2072 15.614 55.7973 16.9474 53.7353 16.9474V16.9452ZM67.7002 25.7424C69.7632 25.7424 71.4589 25.089 72.7122 23.8831L71.7722 22.6507C70.7793 23.6313 69.3186 24.1838 67.8833 24.1838C65.1693 24.1838 63.4979 22.2735 63.3413 19.9871H73.5463V19.509C73.5463 15.8647 71.3012 12.9982 67.4894 12.9982C63.8874 12.9982 61.2782 15.8392 61.2782 19.3581C61.2782 23.1543 63.9668 25.7329 67.6991 25.7329L67.7002 25.7424ZM71.6167 18.6027H63.3424C63.4472 16.7434 64.7766 14.5547 67.4663 14.5547C70.338 14.5547 71.5902 16.7922 71.6167 18.6027ZM86.548 25.4407V17.095C86.548 14.1541 84.3305 12.9971 81.6672 12.9971C79.6042 12.9971 77.9868 13.6505 76.6298 15.0084L77.5433 16.3152C78.6653 15.1592 79.8932 14.6312 81.4069 14.6312C83.2339 14.6312 84.5919 15.5608 84.5919 17.1949V19.3815C83.5736 18.2499 82.1383 17.7219 80.4151 17.7219C78.2748 17.7219 76.0021 19.0043 76.0021 21.7189C76.0021 24.358 78.2726 25.7414 80.4151 25.7414C82.1119 25.7414 83.5483 25.1634 84.5919 24.0574V25.4386L86.548 25.4407ZM81.12 24.3846C79.2931 24.3846 78.0133 23.2796 78.0133 21.7454C78.0133 20.1868 79.2931 19.0808 81.12 19.0808C82.5035 19.0808 83.834 19.5833 84.5919 20.5895V22.877C83.8351 23.8821 82.5035 24.3846 81.12 24.3846ZM96.0138 25.7424C98.3108 25.7424 99.6678 24.8372 100.634 23.6313L99.3291 22.4754C98.4939 23.5559 97.4238 24.0584 96.1297 24.0584C93.4411 24.0584 91.7719 22.0472 91.7719 19.3581C91.7719 16.669 93.4422 14.6832 96.1297 14.6832C97.4348 14.6832 98.505 15.1614 99.3291 16.2663L100.634 15.1104C99.6689 13.9034 98.3108 12.9992 96.0138 12.9992C92.2551 12.9992 89.7231 15.7648 89.7231 19.3592C89.7231 22.979 92.2551 25.7339 96.0138 25.7339V25.7424ZM106.561 25.7424C107.708 25.7424 108.414 25.4152 108.911 24.9636L108.337 23.5559C108.076 23.8321 107.565 24.0584 107.005 24.0584C106.145 24.0584 105.726 23.405 105.726 22.4998V14.9584H108.285V13.2999H105.726V9.98185H103.767V13.2999H101.679V14.9595H103.767V22.9035C103.767 24.714 104.707 25.7446 106.561 25.7446V25.7424Z" fill="white"/>
<path d="M31.2426 11.9107C30.8378 11.77 30.4301 11.6389 30.0195 11.5175C30.0876 11.2355 30.1504 10.9518 30.208 10.6666C31.1342 6.08167 30.5286 2.38796 28.4616 1.17203C26.4825 0.00525916 23.2368 1.22118 19.9626 4.12845C19.6407 4.41531 19.3254 4.71076 19.0166 5.01481C18.8108 4.81283 18.5997 4.61514 18.3833 4.42175C14.9516 1.31304 11.5119 0.00364727 9.44736 1.2236C7.46827 2.39279 6.88009 5.86491 7.71368 10.2105C7.79706 10.6402 7.89074 11.0681 7.99471 11.4941C7.50785 11.6351 7.03762 11.7858 6.58798 11.9453C2.56964 13.3756 0 15.6181 0 17.9436C0 20.3464 2.75805 22.7557 6.94817 24.2166C7.28804 24.3343 7.63108 24.4436 7.97729 24.5446C7.86488 25.0006 7.7654 25.4618 7.67885 25.9281C6.88721 30.1987 7.50469 33.5887 9.47981 34.7506C11.5199 35.9504 14.9421 34.7176 18.278 31.7442C18.5419 31.5089 18.8058 31.2605 19.0697 30.9989C19.4032 31.3271 19.7462 31.6457 20.0988 31.9545C23.3287 34.7893 26.5181 35.9343 28.4901 34.7691C30.5286 33.5653 31.1912 29.9232 30.3307 25.4922C30.2647 25.1537 30.1887 24.8083 30.1027 24.4559C30.3433 24.3834 30.579 24.3085 30.8096 24.2311C35.1636 22.759 38 20.3787 38 17.946C37.9984 15.6092 35.3464 13.3522 31.2426 11.9107ZM21.0305 5.37741C23.8353 2.88674 26.4572 1.90368 27.6526 2.60633C28.9247 3.3549 29.4195 6.37336 28.6199 10.3322C28.5672 10.59 28.5102 10.8471 28.4489 11.1033C26.7751 10.7158 25.0778 10.4423 23.3682 10.2846C22.3894 8.84943 21.3164 7.4832 20.1566 6.19528C20.4405 5.91487 20.7313 5.64225 21.029 5.37741H21.0305ZM11.2198 19.9307C11.5634 20.6075 11.9225 21.276 12.2972 21.9363C12.6788 22.6099 13.0765 23.2736 13.4902 23.9273C12.3139 23.7972 11.145 23.6054 9.98804 23.3528C10.3237 22.2473 10.7369 21.099 11.2198 19.9307ZM11.2198 16.0363C10.7448 14.8929 10.3427 13.768 10.0126 12.6818C11.0971 12.4345 12.2529 12.2322 13.4578 12.0791C13.054 12.7205 12.6656 13.3713 12.2925 14.0315C11.9194 14.6917 11.561 15.36 11.2174 16.0363H11.2198ZM12.0827 17.9839C12.583 16.9219 13.1219 15.8803 13.6992 14.8591C14.2761 13.8384 14.8901 12.8411 15.5414 11.8672C16.6718 11.7802 17.8308 11.7342 19.0016 11.7342C20.1724 11.7342 21.3385 11.7802 22.4681 11.868C23.1125 12.8398 23.7229 13.8336 24.2992 14.8494C24.8755 15.8652 25.4215 16.902 25.9371 17.9597C25.4283 19.0255 24.8837 20.0714 24.3032 21.0974C23.7274 22.1181 23.1205 23.1183 22.4824 24.0982C21.3543 24.1787 20.1867 24.2231 18.9992 24.2231C17.8118 24.2231 16.6663 24.1852 15.5588 24.1119C14.9028 23.1347 14.2837 22.1331 13.7016 21.1071C13.1195 20.0811 12.5791 19.04 12.0803 17.9839H12.0827ZM25.7083 21.925C26.0909 21.2492 26.4582 20.5645 26.8103 19.871C27.2928 20.9847 27.7187 22.1229 28.0864 23.2811C26.9158 23.5494 25.7323 23.7551 24.5406 23.8975C24.9428 23.2481 25.332 22.5905 25.7083 21.925ZM26.7944 16.0371C26.444 15.3576 26.0796 14.6861 25.7012 14.0227C25.3318 13.3684 24.9468 12.7221 24.5462 12.0839C25.7582 12.2403 26.9211 12.4482 28.0112 12.702C27.6607 13.8337 27.2546 14.9468 26.7944 16.0371ZM19.0174 7.37898C19.8079 8.25817 20.5543 9.17739 21.2538 10.1331C19.7576 10.0606 18.2604 10.0606 16.7621 10.1331C17.5006 9.13881 18.2567 8.21619 19.0174 7.37898ZM10.2643 2.65548C11.5357 1.90449 14.3468 2.97779 17.3099 5.65863C17.4991 5.83026 17.6898 6.00995 17.8798 6.19609C16.714 7.48382 15.6335 8.84886 14.6452 10.2822C12.9395 10.4387 11.2455 10.7078 9.57402 11.088C9.47744 10.6926 9.39036 10.2946 9.31278 9.89382C8.59635 6.16869 9.07054 3.36054 10.2643 2.65548ZM8.41111 22.9491C8.09445 22.8573 7.78176 22.7576 7.47302 22.6502C5.6206 22.0055 4.09037 21.1643 3.03987 20.2481C2.09941 19.427 1.62285 18.6076 1.62285 17.9436C1.62285 16.5327 3.68585 14.7325 7.12629 13.5118C7.55852 13.3587 7.99444 13.2188 8.43406 13.092C8.94502 14.7634 9.56384 16.3987 10.2865 17.9871C9.55523 19.5975 8.92875 21.2551 8.41111 22.9491ZM17.2085 30.4969C15.7337 31.8119 14.2565 32.7442 12.9543 33.214C11.7843 33.6354 10.8525 33.6475 10.2897 33.3163C9.09112 32.6113 8.59239 29.8885 9.27241 26.2367C9.35315 25.807 9.44551 25.3772 9.54948 24.9475C11.2377 25.3176 12.9486 25.5704 14.6706 25.7041C15.6685 27.1449 16.758 28.5177 17.9321 29.8136C17.6962 30.0497 17.4547 30.2769 17.2085 30.4969ZM19.0625 28.6259C18.2931 27.779 17.5252 26.8419 16.7763 25.8346C17.5041 25.8636 18.245 25.8781 18.9992 25.8781C19.7734 25.8781 20.5397 25.8612 21.2949 25.8266C20.598 26.7977 19.8529 27.732 19.0625 28.6259ZM28.92 30.9296C28.6936 32.1737 28.2384 33.0037 27.6755 33.3357C26.4778 34.0431 23.9168 33.1237 21.1556 30.6991C20.839 30.4219 20.5223 30.1246 20.2001 29.8128C21.3514 28.5118 22.4154 27.1335 23.3849 25.6872C25.1163 25.5378 26.8356 25.2673 28.5305 24.8774C28.6081 25.1964 28.6767 25.5091 28.7363 25.8153C29.1171 27.7733 29.1717 29.5445 28.92 30.9296ZM30.2974 22.659C30.09 22.7291 29.8763 22.7968 29.6593 22.8629C29.1279 21.1836 28.4849 19.543 27.7349 17.9525C28.4568 16.3831 29.0746 14.7663 29.5841 13.1129C29.9728 13.2282 30.3504 13.349 30.7138 13.4771C34.2302 14.7116 36.3756 16.5391 36.3756 17.9436C36.3756 19.4424 34.0585 21.3875 30.2974 22.659Z" fill="#D7D7D7"/>
<path d="M18.9902 21.0196C19.584 21.0216 20.165 20.8448 20.6596 20.5116C21.1542 20.1784 21.5403 19.7039 21.7688 19.148C21.9974 18.5921 22.0582 17.98 21.9435 17.389C21.8289 16.7981 21.5439 16.255 21.1248 15.8284C20.7056 15.4018 20.1711 15.111 19.5889 14.9928C19.0067 14.8746 18.403 14.9343 17.8542 15.1643C17.3055 15.3943 16.8364 15.7843 16.5063 16.285C16.1762 16.7856 16 17.3743 16 17.9766C15.9992 18.3756 16.0759 18.7709 16.2258 19.1398C16.3756 19.5087 16.5957 19.8441 16.8734 20.1267C17.1511 20.4093 17.481 20.6336 17.8442 20.7868C18.2074 20.9401 18.5969 21.0192 18.9902 21.0196Z" fill="white"/>
</svg>
