<svg width="114" height="40" viewBox="0 0 114 40" fill="none" xmlns="http://www.w3.org/2000/svg">
<path fill-rule="evenodd" clip-rule="evenodd" d="M62.0607 27.6809L57.2023 20.4751C59.6577 20.2624 61.8703 18.5158 61.8703 15.3249C61.8703 12.078 59.5232 10 56.2306 10H49V27.6675H51.2399V20.6475H54.829L59.416 27.6675L62.0607 27.6809ZM55.9626 18.7274H51.241V11.9728H55.9626C58.0953 11.9728 59.5517 13.3499 59.5517 15.3372C59.5517 17.3245 58.0941 18.7296 55.9626 18.7296V18.7274ZM70.3987 27.9978C72.5314 27.9978 74.2843 27.3092 75.5799 26.0384L74.6082 24.7397C73.5818 25.7731 72.0718 26.3553 70.588 26.3553C67.7825 26.3553 66.0547 24.3422 65.8927 21.9328H76.4421V21.429C76.4421 17.5887 74.1212 14.568 70.1809 14.568C66.4572 14.568 63.76 17.5619 63.76 21.27C63.76 25.2704 66.5394 27.9877 70.3976 27.9877L70.3987 27.9978ZM74.4474 20.474H65.8939C66.0022 18.5146 67.3765 16.2082 70.1569 16.2082C73.1256 16.2082 74.42 18.5662 74.4474 20.474ZM89.8826 27.6798V18.8852C89.8826 15.7862 87.5902 14.5669 84.8371 14.5669C82.7044 14.5669 81.0325 15.2555 79.6297 16.6863L80.574 18.0634C81.7339 16.8453 83.0032 16.2889 84.568 16.2889C86.4566 16.2889 87.8605 17.2685 87.8605 18.9905V21.2946C86.8079 20.1023 85.3241 19.5458 83.5427 19.5458C81.3302 19.5458 78.9808 20.8972 78.9808 23.7578C78.9808 26.5389 81.3279 27.9966 83.5427 27.9966C85.2967 27.9966 86.7816 27.3876 87.8605 26.2221V27.6776L89.8826 27.6798ZM84.2715 26.5669C82.3828 26.5669 81.0599 25.4025 81.0599 23.7858C81.0599 22.1433 82.3828 20.9778 84.2715 20.9778C85.7016 20.9778 87.077 21.5074 87.8605 22.5676V24.9782C87.0782 26.0373 85.7016 26.5669 84.2715 26.5669ZM99.6679 27.9978C102.042 27.9978 103.445 27.0439 104.444 25.7731L103.095 24.555C102.232 25.6936 101.125 26.2232 99.7876 26.2232C97.0083 26.2232 95.2827 24.1038 95.2827 21.27C95.2827 18.4363 97.0094 16.3437 99.7876 16.3437C101.137 16.3437 102.243 16.8475 103.095 18.0119L104.444 16.7938C103.446 15.5219 102.042 14.5691 99.6679 14.5691C95.7823 14.5691 93.1649 17.4835 93.1649 21.2711C93.1649 25.0857 95.7823 27.9888 99.6679 27.9888V27.9978ZM110.571 27.9978C111.757 27.9978 112.487 27.6529 113 27.1771L112.407 25.6936C112.137 25.9847 111.609 26.2232 111.03 26.2232C110.141 26.2232 109.707 25.5346 109.707 24.5807V16.6337H112.353V14.886H109.707V11.3894H107.683V14.886H105.524V16.6348H107.683V25.0062C107.683 26.914 108.655 28 110.571 28V27.9978Z" fill="white"/>
<path d="M27.8006 14.3782C27.4404 14.253 27.0777 14.1363 26.7123 14.0283C26.7729 13.7774 26.8288 13.525 26.88 13.2711C27.7041 9.19136 27.1652 5.90458 25.326 4.82262C23.565 3.78439 20.6768 4.86635 17.7634 7.45333C17.4769 7.70858 17.1963 7.97148 16.9216 8.24204C16.7384 8.06231 16.5506 7.8864 16.358 7.71432C13.3044 4.94809 10.2437 3.78295 8.40655 4.8685C6.6455 5.90889 6.12211 8.99848 6.86387 12.8653C6.93807 13.2477 7.02142 13.6285 7.11394 14.0075C6.68072 14.133 6.26229 14.2671 5.86218 14.409C2.28655 15.6817 0 17.6772 0 19.7465C0 21.8846 2.4542 24.0284 6.18269 25.3284C6.48512 25.4331 6.79037 25.5303 7.09844 25.6202C6.99841 26.026 6.90989 26.4364 6.83287 26.8513C6.12845 30.6515 6.6779 33.6679 8.43543 34.7019C10.2507 35.7695 13.2959 34.6725 16.2643 32.0267C16.4992 31.8173 16.734 31.5963 16.9688 31.3635C17.2656 31.6555 17.5708 31.939 17.8845 32.2138C20.7585 34.7363 23.5967 35.7551 25.3514 34.7184C27.1652 33.6471 27.7548 30.4063 26.9891 26.4634C26.9304 26.1623 26.8628 25.8549 26.7863 25.5413C27.0004 25.4768 27.2101 25.4101 27.4153 25.3413C31.2896 24.0313 33.8136 21.9133 33.8136 19.7486C33.8122 17.6693 31.4523 15.6609 27.8006 14.3782ZM18.7136 8.56469C21.2094 6.34841 23.5424 5.47366 24.6061 6.09889C25.7381 6.765 26.1784 9.45092 25.4669 12.9736C25.4199 13.203 25.3692 13.4318 25.3147 13.6598C23.8253 13.3149 22.315 13.0716 20.7938 12.9313C19.9228 11.6542 18.968 10.4385 17.9359 9.29246C18.1886 9.04294 18.4473 8.80035 18.7122 8.56469H18.7136ZM9.98374 21.5146C10.2895 22.1169 10.609 22.7118 10.9425 23.2993C11.282 23.8987 11.6358 24.4892 12.004 25.071C10.9573 24.9551 9.91714 24.7845 8.88766 24.5598C9.18634 23.576 9.55405 22.5543 9.98374 21.5146ZM9.98374 18.0493C9.56109 17.0319 9.20325 16.0309 8.9095 15.0644C9.87456 14.8443 10.903 14.6643 11.9751 14.5281C11.6159 15.0988 11.2702 15.6779 10.9382 16.2654C10.6062 16.8528 10.2873 17.4475 9.98163 18.0493H9.98374ZM10.7516 19.7823C11.1968 18.8373 11.6762 17.9104 12.19 17.0017C12.7033 16.0935 13.2497 15.2061 13.8292 14.3395C14.8351 14.2621 15.8664 14.2212 16.9082 14.2212C17.95 14.2212 18.9876 14.2621 19.9928 14.3402C20.5662 15.2049 21.1093 16.0892 21.6222 16.9931C22.135 17.8971 22.6208 18.8196 23.0796 19.7608C22.6269 20.7092 22.1423 21.6398 21.6257 22.5528C21.1133 23.4611 20.5733 24.3511 20.0055 25.223C19.0017 25.2947 17.9627 25.3341 16.9061 25.3341C15.8494 25.3341 14.8302 25.3004 13.8447 25.2352C13.2609 24.3657 12.7101 23.4744 12.1921 22.5614C11.6741 21.6485 11.1932 20.7221 10.7494 19.7823H10.7516ZM22.876 23.2892C23.2165 22.6879 23.5434 22.0787 23.8566 21.4616C24.286 22.4525 24.665 23.4653 24.9921 24.4959C23.9505 24.7347 22.8974 24.9178 21.837 25.0445C22.1949 24.4665 22.5412 23.8815 22.876 23.2892ZM23.8425 18.05C23.5307 17.4453 23.2064 16.8478 22.8697 16.2575C22.541 15.6753 22.1984 15.1002 21.8419 14.5324C22.9204 14.6715 23.9552 14.8565 24.9252 15.0823C24.6133 16.0894 24.252 17.0799 23.8425 18.05ZM16.9223 10.3457C17.6257 11.1281 18.2898 11.946 18.9123 12.7965C17.5809 12.732 16.2486 12.732 14.9154 12.7965C15.5726 11.9117 16.2453 11.0907 16.9223 10.3457ZM9.13351 6.14263C10.2648 5.47438 12.7662 6.42943 15.4028 8.81493C15.5712 8.96765 15.741 9.12754 15.91 9.29317C14.8727 10.439 13.9111 11.6537 13.0318 12.9291C11.5139 13.0683 10.0066 13.3078 8.51925 13.6461C8.43331 13.2943 8.35583 12.9401 8.28679 12.5835C7.64929 9.2688 8.07124 6.77002 9.13351 6.14263ZM7.48446 24.2005C7.20269 24.1188 6.92445 24.0301 6.64972 23.9345C5.00138 23.3609 3.63974 22.6124 2.70497 21.7971C1.86812 21.0665 1.44406 20.3373 1.44406 19.7465C1.44406 18.491 3.27978 16.8892 6.34119 15.8029C6.7258 15.6667 7.1137 15.5422 7.50489 15.4293C7.95956 16.9166 8.5102 18.3717 9.15323 19.7852C8.50254 21.2182 7.94508 22.6931 7.48446 24.2005ZM15.3127 30.9168C14.0003 32.0869 12.6859 32.9165 11.5271 33.3345C10.486 33.7095 9.65689 33.7203 9.15605 33.4256C8.08956 32.7982 7.64577 30.3754 8.25087 27.1259C8.32272 26.7435 8.4049 26.3611 8.49742 25.9787C9.99962 26.3081 11.5221 26.533 13.0543 26.652C13.9423 27.9341 14.9117 29.1556 15.9565 30.3087C15.7466 30.5188 15.5318 30.721 15.3127 30.9168ZM16.9624 29.2519C16.2777 28.4983 15.5944 27.6644 14.9281 26.7681C15.5757 26.794 16.235 26.8069 16.9061 26.8069C17.595 26.8069 18.2769 26.7918 18.9489 26.761C18.3287 27.6251 17.6657 28.4565 16.9624 29.2519ZM25.7339 31.3018C25.5324 32.4089 25.1274 33.1474 24.6265 33.4428C23.5607 34.0723 21.2819 33.2542 18.8249 31.0967C18.5431 30.8501 18.2614 30.5855 17.9747 30.308C18.9991 29.1504 19.9459 27.9239 20.8086 26.6369C22.3493 26.5041 23.8791 26.2633 25.3873 25.9163C25.4563 26.2003 25.5174 26.4785 25.5704 26.7509C25.9093 28.4933 25.9579 30.0693 25.7339 31.3018ZM26.9596 23.9424C26.775 24.0048 26.5848 24.065 26.3918 24.1238C25.9189 22.6295 25.3468 21.1697 24.6793 19.7544C25.3217 18.3579 25.8715 16.9192 26.3249 15.448C26.6707 15.5505 27.0068 15.6581 27.3301 15.7721C30.4591 16.8705 32.3681 18.4967 32.3681 19.7465C32.3681 21.0801 30.3063 22.811 26.9596 23.9424Z" fill="#D7D7D7"/>
<path d="M16.8981 22.4835C17.4264 22.4853 17.9434 22.3279 18.3836 22.0315C18.8237 21.735 19.1672 21.3127 19.3706 20.8181C19.574 20.3235 19.6281 19.7788 19.526 19.2529C19.424 18.7271 19.1705 18.2438 18.7975 17.8642C18.4245 17.4846 17.9489 17.2259 17.4308 17.1207C16.9127 17.0155 16.3755 17.0686 15.8872 17.2733C15.399 17.4779 14.9815 17.825 14.6878 18.2705C14.3941 18.716 14.2373 19.2398 14.2373 19.7758C14.2366 20.1308 14.3048 20.4825 14.4382 20.8108C14.5715 21.1391 14.7674 21.4375 15.0145 21.689C15.2616 21.9405 15.5551 22.1401 15.8783 22.2764C16.2015 22.4127 16.5481 22.4831 16.8981 22.4835Z" fill="white"/>
</svg>
