<svg width="168" height="75" viewBox="0 0 168 75" fill="none" xmlns="http://www.w3.org/2000/svg">
<path fill-rule="evenodd" clip-rule="evenodd" d="M59.6344 64.4418L54.9345 57.6037C57.3098 57.4019 59.4501 55.7444 59.4501 52.7164C59.4501 49.6353 57.1796 47.6633 53.9946 47.6633H47V64.429H49.1668V57.7674H52.6387L57.0759 64.429L59.6344 64.4418ZM53.7353 55.9452H49.1679V49.5354H53.7353C55.7984 49.5354 57.2072 50.8422 57.2072 52.7281C57.2072 54.614 55.7973 55.9474 53.7353 55.9474V55.9452ZM67.7002 64.7424C69.7632 64.7424 71.4589 64.089 72.7122 62.8831L71.7722 61.6507C70.7793 62.6313 69.3186 63.1838 67.8833 63.1838C65.1693 63.1838 63.4979 61.2735 63.3413 58.9871H73.5463V58.509C73.5463 54.8647 71.3012 51.9982 67.4895 51.9982C63.8874 51.9982 61.2782 54.8392 61.2782 58.3581C61.2782 62.1543 63.9668 64.7329 67.6991 64.7329L67.7002 64.7424ZM71.6167 57.6027H63.3424C63.4472 55.7434 64.7766 53.5547 67.4663 53.5547C70.338 53.5547 71.5902 55.7922 71.6167 57.6027ZM86.548 64.4407V56.095C86.548 53.1541 84.3305 51.9971 81.6672 51.9971C79.6042 51.9971 77.9868 52.6505 76.6298 54.0084L77.5433 55.3152C78.6653 54.1592 79.8932 53.6312 81.4069 53.6312C83.2339 53.6312 84.5919 54.5608 84.5919 56.1949V58.3815C83.5736 57.2499 82.1383 56.7219 80.4151 56.7219C78.2748 56.7219 76.0021 58.0043 76.0021 60.7189C76.0021 63.358 78.2726 64.7414 80.4151 64.7414C82.1119 64.7414 83.5483 64.1634 84.5919 63.0574V64.4386L86.548 64.4407ZM81.12 63.3846C79.2931 63.3846 78.0133 62.2796 78.0133 60.7454C78.0133 59.1868 79.2931 58.0808 81.12 58.0808C82.5035 58.0808 83.834 58.5833 84.5919 59.5895V61.877C83.8351 62.8821 82.5035 63.3846 81.12 63.3846ZM96.0138 64.7424C98.3108 64.7424 99.6678 63.8372 100.634 62.6313L99.3291 61.4754C98.4939 62.5559 97.4238 63.0584 96.1297 63.0584C93.4411 63.0584 91.7719 61.0472 91.7719 58.3581C91.7719 55.669 93.4422 53.6832 96.1297 53.6832C97.4348 53.6832 98.505 54.1614 99.3291 55.2663L100.634 54.1104C99.6689 52.9034 98.3108 51.9992 96.0138 51.9992C92.2551 51.9992 89.7231 54.7648 89.7231 58.3591C89.7231 61.979 92.2551 64.7339 96.0138 64.7339V64.7424ZM106.561 64.7424C107.708 64.7424 108.414 64.4152 108.911 63.9636L108.337 62.5559C108.076 62.8321 107.565 63.0584 107.005 63.0584C106.145 63.0584 105.726 62.405 105.726 61.4998V53.9584H108.285V52.2999H105.726V48.9818H103.767V52.2999H101.679V53.9595H103.767V61.9035C103.767 63.714 104.707 64.7446 106.561 64.7446V64.7424Z" fill="white"/>
<path d="M31.2426 50.9107C30.8378 50.77 30.4301 50.6389 30.0195 50.5175C30.0876 50.2355 30.1504 49.9518 30.208 49.6666C31.1342 45.0817 30.5286 41.388 28.4616 40.172C26.4825 39.0053 23.2368 40.2212 19.9626 43.1284C19.6407 43.4153 19.3254 43.7108 19.0166 44.0148C18.8108 43.8128 18.5997 43.6151 18.3833 43.4218C14.9516 40.313 11.5119 39.0036 9.44736 40.2236C7.46827 41.3928 6.88009 44.8649 7.71368 49.2105C7.79706 49.6402 7.89074 50.0681 7.99471 50.4941C7.50785 50.6351 7.03762 50.7858 6.58798 50.9453C2.56964 52.3756 0 54.6181 0 56.9436C0 59.3464 2.75805 61.7557 6.94817 63.2166C7.28804 63.3343 7.63108 63.4436 7.97729 63.5446C7.86488 64.0006 7.7654 64.4618 7.67885 64.9281C6.88721 69.1987 7.50469 72.5887 9.47981 73.7506C11.5199 74.9504 14.9421 73.7176 18.278 70.7442C18.5419 70.5089 18.8058 70.2605 19.0697 69.9989C19.4032 70.3271 19.7462 70.6457 20.0988 70.9545C23.3287 73.7893 26.5181 74.9343 28.4901 73.7691C30.5286 72.5653 31.1912 68.9232 30.3307 64.4922C30.2647 64.1537 30.1887 63.8083 30.1027 63.4559C30.3433 63.3834 30.579 63.3085 30.8096 63.2311C35.1636 61.759 38 59.3787 38 56.946C37.9984 54.6092 35.3464 52.3522 31.2426 50.9107ZM21.0305 44.3774C23.8353 41.8867 26.4572 40.9037 27.6526 41.6063C28.9247 42.3549 29.4195 45.3734 28.6199 49.3322C28.5672 49.59 28.5102 49.8471 28.4489 50.1033C26.7751 49.7158 25.0778 49.4423 23.3682 49.2846C22.3894 47.8494 21.3164 46.4832 20.1566 45.1953C20.4405 44.9149 20.7313 44.6422 21.029 44.3774H21.0305ZM11.2198 58.9307C11.5634 59.6075 11.9225 60.276 12.2972 60.9363C12.6788 61.6099 13.0765 62.2736 13.4902 62.9273C12.3139 62.7972 11.145 62.6054 9.98804 62.3528C10.3237 61.2473 10.7369 60.099 11.2198 58.9307ZM11.2198 55.0363C10.7448 53.8929 10.3427 52.768 10.0126 51.6818C11.0971 51.4345 12.2529 51.2322 13.4578 51.0791C13.054 51.7205 12.6656 52.3713 12.2925 53.0315C11.9194 53.6917 11.561 54.36 11.2174 55.0363H11.2198ZM12.0827 56.9839C12.583 55.9219 13.1219 54.8803 13.6992 53.8591C14.2761 52.8384 14.8901 51.8411 15.5414 50.8672C16.6718 50.7802 17.8308 50.7342 19.0016 50.7342C20.1724 50.7342 21.3385 50.7802 22.4681 50.868C23.1125 51.8398 23.7229 52.8336 24.2992 53.8494C24.8755 54.8652 25.4215 55.902 25.9371 56.9597C25.4283 58.0255 24.8837 59.0714 24.3032 60.0974C23.7274 61.1181 23.1205 62.1183 22.4824 63.0982C21.3543 63.1787 20.1867 63.2231 18.9992 63.2231C17.8118 63.2231 16.6663 63.1852 15.5588 63.1119C14.9028 62.1347 14.2837 61.1331 13.7016 60.1071C13.1195 59.0811 12.5791 58.04 12.0803 56.9839H12.0827ZM25.7083 60.925C26.0909 60.2492 26.4582 59.5645 26.8103 58.871C27.2928 59.9847 27.7187 61.1229 28.0864 62.2811C26.9158 62.5494 25.7323 62.7551 24.5406 62.8975C24.9428 62.2481 25.332 61.5905 25.7083 60.925ZM26.7944 55.0371C26.444 54.3576 26.0796 53.6861 25.7012 53.0227C25.3318 52.3684 24.9468 51.7221 24.5462 51.0839C25.7582 51.2403 26.9211 51.4482 28.0112 51.702C27.6607 52.8337 27.2546 53.9468 26.7944 55.0371ZM19.0174 46.379C19.8079 47.2582 20.5543 48.1774 21.2538 49.1331C19.7576 49.0606 18.2604 49.0606 16.7621 49.1331C17.5006 48.1388 18.2567 47.2162 19.0174 46.379ZM10.2643 41.6555C11.5357 40.9045 14.3468 41.9778 17.3099 44.6586C17.4991 44.8303 17.6898 45.01 17.8798 45.1961C16.714 46.4838 15.6335 47.8489 14.6452 49.2822C12.9395 49.4387 11.2455 49.7078 9.57402 50.088C9.47744 49.6926 9.39036 49.2946 9.31278 48.8938C8.59635 45.1687 9.07054 42.3605 10.2643 41.6555ZM8.41111 61.9491C8.09445 61.8573 7.78176 61.7576 7.47302 61.6502C5.6206 61.0055 4.09037 60.1643 3.03987 59.2481C2.09941 58.427 1.62285 57.6076 1.62285 56.9436C1.62285 55.5327 3.68585 53.7325 7.12629 52.5118C7.55852 52.3587 7.99444 52.2188 8.43406 52.092C8.94502 53.7634 9.56384 55.3987 10.2865 56.9871C9.55523 58.5975 8.92875 60.2551 8.41111 61.9491ZM17.2085 69.4969C15.7337 70.8119 14.2565 71.7442 12.9543 72.214C11.7843 72.6354 10.8525 72.6475 10.2897 72.3163C9.09112 71.6113 8.59239 68.8885 9.27241 65.2367C9.35315 64.807 9.44551 64.3772 9.54948 63.9475C11.2377 64.3176 12.9486 64.5704 14.6706 64.7041C15.6685 66.1449 16.758 67.5177 17.9321 68.8136C17.6962 69.0497 17.4547 69.2769 17.2085 69.4969ZM19.0625 67.6259C18.2931 66.779 17.5252 65.8419 16.7763 64.8346C17.5041 64.8636 18.245 64.8781 18.9992 64.8781C19.7734 64.8781 20.5397 64.8612 21.2949 64.8266C20.598 65.7977 19.8529 66.732 19.0625 67.6259ZM28.92 69.9296C28.6936 71.1737 28.2384 72.0037 27.6755 72.3357C26.4778 73.0431 23.9168 72.1237 21.1556 69.6991C20.839 69.4219 20.5223 69.1246 20.2001 68.8128C21.3514 67.5118 22.4154 66.1335 23.3849 64.6872C25.1163 64.5378 26.8356 64.2673 28.5305 63.8774C28.6081 64.1964 28.6767 64.5091 28.7363 64.8153C29.1171 66.7733 29.1717 68.5445 28.92 69.9296ZM30.2974 61.659C30.09 61.7291 29.8763 61.7968 29.6593 61.8629C29.1279 60.1836 28.4849 58.543 27.7349 56.9525C28.4568 55.3831 29.0746 53.7663 29.5841 52.1129C29.9728 52.2282 30.3504 52.349 30.7138 52.4771C34.2302 53.7116 36.3756 55.5391 36.3756 56.9436C36.3756 58.4423 34.0585 60.3875 30.2974 61.659Z" fill="#D7D7D7"/>
<path d="M18.9902 60.0196C19.584 60.0216 20.165 59.8448 20.6596 59.5116C21.1542 59.1784 21.5403 58.7039 21.7688 58.148C21.9974 57.5921 22.0582 56.98 21.9435 56.389C21.8289 55.7981 21.5439 55.255 21.1248 54.8284C20.7056 54.4018 20.1711 54.111 19.5889 53.9928C19.0067 53.8746 18.403 53.9343 17.8542 54.1643C17.3055 54.3943 16.8364 54.7843 16.5063 55.285C16.1762 55.7856 16 56.3743 16 56.9766C15.9992 57.3756 16.0759 57.7709 16.2258 58.1398C16.3756 58.5087 16.5957 58.8441 16.8734 59.1267C17.1511 59.4093 17.481 59.6336 17.8442 59.7868C18.2074 59.9401 18.5969 60.0192 18.9902 60.0196Z" fill="white"/>
</svg>
