<svg width="92" height="40" viewBox="0 0 92 40" fill="none" xmlns="http://www.w3.org/2000/svg">
<path d="M85.8874 20.1201C84.3524 20.1287 83.0183 20.5208 81.9012 21.1005C81.4913 20.2395 81.0815 19.4723 81.0091 18.9097C80.9288 18.2533 80.8323 17.8526 80.9288 17.0684C81.0252 16.2841 81.4592 15.1674 81.4511 15.0821C81.4431 14.9969 81.3547 14.5962 80.4707 14.5877C79.5866 14.5792 78.8231 14.7667 78.7347 15.0139C78.6463 15.2612 78.4775 15.8238 78.365 16.4034C78.2123 17.2559 76.5969 20.2991 75.6727 21.8932C75.3753 21.2709 75.1182 20.7254 75.0619 20.2906C74.9815 19.6342 74.8851 19.2336 74.9815 18.4493C75.078 17.6651 75.512 16.5484 75.5039 16.4631C75.4959 16.3779 75.4075 15.9772 74.5235 15.9687C73.6394 15.9602 72.8759 16.1477 72.7875 16.3949C72.6991 16.6421 72.6027 17.2218 72.4178 17.7844C72.233 18.347 70.0872 23.4277 69.5246 24.7404C69.2353 25.4139 68.9861 25.9509 68.8093 26.3175C68.8093 26.3175 68.8013 26.343 68.7772 26.3857C68.6245 26.7011 68.5361 26.8716 68.5361 26.8716C68.5361 26.8716 68.5361 26.8716 68.5361 26.8801C68.4155 27.1102 68.2869 27.3234 68.2226 27.3234C68.1744 27.3234 68.086 26.7096 68.2387 25.8742C68.5602 24.1096 69.3237 21.3647 69.3156 21.2709C69.3156 21.2198 69.4603 20.7424 68.8173 20.4952C68.1905 20.248 67.9654 20.6572 67.9092 20.6572C67.8529 20.6572 67.8127 20.8021 67.8127 20.8021C67.8127 20.8021 68.5119 17.7162 66.4786 17.7162C65.2088 17.7162 63.4568 19.191 62.5888 20.5208C62.0423 20.8362 60.877 21.5096 59.6313 22.2342C59.1571 22.5155 58.6669 22.7968 58.2088 23.0611C58.1767 23.027 58.1445 22.9844 58.1124 22.9503C55.6531 20.1628 51.1043 18.1936 51.2972 14.4513C51.3695 13.0874 51.8115 9.5071 60.0332 5.15959C66.8001 1.62191 72.1847 2.60223 73.117 4.77598C74.4511 7.87891 70.2318 13.6415 63.2398 14.4769C60.5716 14.7923 59.1732 13.7012 58.8196 13.292C58.4499 12.8658 58.3937 12.8402 58.257 12.9254C58.032 13.0533 58.1767 13.4369 58.257 13.6585C58.466 14.2382 59.3259 15.2612 60.7806 15.7641C62.0665 16.2074 65.1928 16.4546 68.9781 14.9031C73.2135 13.1641 76.5246 8.33071 75.5522 4.28156C74.5797 0.172739 68.1503 -1.18266 62.0665 1.11044C58.4499 2.47436 54.528 4.62254 51.7071 7.41859C48.3557 10.7432 47.8253 13.633 48.0423 14.8435C48.8219 19.1398 54.4074 21.9359 56.6416 24.0073C56.5291 24.0755 56.4246 24.1352 56.3362 24.1863C55.2191 24.7745 50.9596 27.1358 49.8988 29.6335C48.6933 32.4636 50.0917 34.4925 51.0159 34.7653C53.885 35.6092 56.8345 34.0918 58.4178 31.5856C60.001 29.0794 59.8081 25.823 59.0768 24.3312C59.0687 24.3142 59.0607 24.2971 59.0446 24.2801C59.334 24.1011 59.6313 23.9135 59.9206 23.7345C60.4912 23.3765 61.0538 23.044 61.536 22.7713C61.2628 23.564 61.0619 24.5103 60.9654 25.8742C60.8449 27.4768 61.4637 29.5568 62.2754 30.3751C62.6371 30.7332 63.063 30.7417 63.3363 30.7417C64.2846 30.7417 64.7106 29.9063 65.1847 28.9174C65.7634 27.707 66.2858 26.3004 66.2858 26.3004C66.2858 26.3004 65.6348 30.1024 67.4029 30.1024C68.0458 30.1024 68.6968 29.2158 68.9861 28.764C68.9861 28.7725 68.9861 28.7725 68.9861 28.7725C68.9861 28.7725 69.0022 28.747 69.0343 28.6873C69.0986 28.5765 69.1388 28.5083 69.1388 28.5083C69.1388 28.5083 69.1388 28.4997 69.1388 28.4912C69.396 28.0138 69.9746 26.9312 70.8346 25.1326C71.9436 22.8139 73.0125 19.9155 73.0125 19.9155C73.0125 19.9155 73.109 20.6231 73.4385 21.7995C73.6314 22.49 74.0332 23.2486 74.3547 23.9817C74.0975 24.3653 73.9368 24.5785 73.9368 24.5785C73.9368 24.5785 73.9368 24.5785 73.9448 24.587C73.7358 24.8768 73.5108 25.1922 73.2617 25.4991C72.3857 26.6073 71.3409 27.8775 71.1962 28.244C71.0275 28.6788 71.0676 28.9942 71.3891 29.2499C71.6222 29.4374 72.0401 29.463 72.466 29.4374C73.2536 29.3778 73.8082 29.1732 74.0814 29.0453C74.5074 28.8833 75.0057 28.6361 75.4718 28.2696C76.3317 27.5961 76.8541 26.6329 76.8059 25.3627C76.7818 24.6637 76.5648 23.9647 76.2996 23.3083C76.3799 23.189 76.4523 23.0696 76.5326 22.9503C77.8909 20.8447 78.9437 18.5346 78.9437 18.5346C78.9437 18.5346 79.0401 19.2421 79.3696 20.4185C79.5304 21.0152 79.8599 21.6631 80.1492 22.2939C78.8713 23.3936 78.0837 24.6722 77.8025 25.5076C77.2961 27.0591 77.6899 27.7581 78.4374 27.9201C78.7749 27.9968 79.2571 27.8263 79.6107 27.6643C80.0608 27.5109 80.5912 27.2466 81.0975 26.8545C81.9575 26.1811 82.7853 25.2434 82.737 23.9732C82.7129 23.3936 82.5683 22.8224 82.3673 22.2683C83.4523 21.7909 84.8507 21.5267 86.6349 21.7483C90.4604 22.2257 91.2158 24.7575 91.0712 25.823C90.9265 26.8886 90.1228 27.4683 89.8576 27.6473C89.5924 27.8263 89.504 27.886 89.5281 28.0138C89.5603 28.2014 89.6888 28.1929 89.9139 28.1588C90.2273 28.0991 91.9231 27.2978 91.9954 25.3371C92.1159 22.8309 89.8656 20.0946 85.8874 20.1201ZM56.3764 30.6735C55.1066 32.1397 53.3385 32.6938 52.575 32.225C51.7553 31.722 52.0768 29.5568 53.6359 28.0053C54.5842 27.0591 55.8058 26.1811 56.6175 25.644C56.8024 25.5247 57.0756 25.3542 57.4051 25.1411C57.4614 25.107 57.4935 25.0899 57.4935 25.0899C57.5578 25.0473 57.6221 25.0047 57.6864 24.9621C58.257 27.1784 57.7105 29.1306 56.3764 30.6735ZM65.6187 24.0073C65.1767 25.1496 64.2525 28.0735 63.6899 27.9116C63.2077 27.7752 62.9103 25.5588 63.5934 23.368C63.939 22.2683 64.6704 20.9555 65.0963 20.4441C65.7875 19.6257 66.551 19.3529 66.7358 19.6854C66.9689 20.1201 65.892 23.2913 65.6187 24.0073ZM73.2456 27.8775C73.0608 27.9797 72.8839 28.0479 72.8036 27.9968C72.7473 27.9627 72.8839 27.8263 72.8839 27.8263C72.8839 27.8263 73.8403 26.7352 74.2181 26.2407C74.435 25.9509 74.6922 25.6099 74.9655 25.2263C74.9655 25.2604 74.9655 25.303 74.9655 25.3371C74.9655 26.6414 73.776 27.5194 73.2456 27.8775ZM79.1285 26.4539C78.9919 26.3516 79.016 26.0106 79.4741 24.945C79.6509 24.5273 80.0688 23.8283 80.7841 23.1549C80.8645 23.4277 80.9207 23.6919 80.9127 23.9391C80.9046 25.5844 79.7956 26.1981 79.1285 26.4539Z" fill="white"/>
<g clip-path="url(#clip0_550_509)">
<path d="M28.9 3H5.1C2.28335 3 0 5.28335 0 8.1V31.9C0 34.7167 2.28335 37 5.1 37H28.9C31.7167 37 34 34.7167 34 31.9V8.1C34 5.28335 31.7167 3 28.9 3Z" fill="#D7D7D7"/>
<path d="M17.1328 8.84369C10.7578 11.0351 6.64058 15.4843 7.03902 18.1406C7.43745 20.7968 11.4218 22.9218 13.2148 24.3163C10.8906 25.5117 7.9687 27.3046 8.03511 29.6288C8.16792 32.8163 11.621 31.8203 13.082 30.8906C14.5429 29.9609 16.0039 27.371 15.0742 24.6484C17.1328 24.1171 18.9257 24.7812 19.457 25.1796C21.5156 26.6406 20.4531 28.3007 19.7226 28.5663C18.9921 28.832 19.457 28.9648 19.9218 28.832C20.3867 28.6992 21.3828 28.0351 21.3828 26.9062C21.3828 24.0507 18.3281 22.7226 14.5429 23.7187C12.3515 21.3945 9.36323 20.332 9.49605 17.8085C9.56245 16.8788 9.89448 14.4882 15.8046 11.4999C21.7148 8.51166 25.8984 9.70697 25.3671 12.4296C24.5703 16.5468 17.3984 19.3359 14.875 16.9453C14.7421 16.6796 14.2773 16.4804 14.5429 17.2109C15.871 20.5312 26.6289 19.0038 27.0937 11.9648C27.2265 8.24604 21.8476 7.24994 17.1328 8.84369ZM11.4218 30.0937C9.76167 30.6249 9.82808 29.5624 9.89448 29.164C10.0937 28.0351 11.0234 26.6406 13.8125 25.246C14.6093 27.7695 12.8164 29.6953 11.4218 30.0937Z" fill="#2F2F2F"/>
</g>
<defs>
<clipPath id="clip0_550_509">
<rect width="34" height="34" fill="white" transform="translate(0 3)"/>
</clipPath>
</defs>
</svg>
