<svg width="95" height="39" viewBox="0 0 95 39" fill="none" xmlns="http://www.w3.org/2000/svg">
<path d="M87.4799 22.0965C85.7588 22.1056 84.263 22.5261 83.0104 23.1477C82.5509 22.2245 82.0913 21.4018 82.0102 20.7985C81.9201 20.0946 81.812 19.665 81.9201 18.8241C82.0283 17.9831 82.5148 16.7856 82.5058 16.6942C82.4968 16.6028 82.3977 16.1732 81.4065 16.1641C80.4153 16.1549 79.5593 16.356 79.4601 16.6211C79.361 16.8862 79.1718 17.4895 79.0456 18.1111C78.8744 19.0252 77.0632 22.2885 76.027 23.9978C75.6936 23.3305 75.4052 22.7455 75.3421 22.2793C75.252 21.5755 75.1439 21.1458 75.252 20.3049C75.3602 19.4639 75.8468 18.2665 75.8377 18.1751C75.8287 18.0836 75.7296 17.654 74.7384 17.6449C73.7472 17.6357 72.8912 17.8368 72.7921 18.1019C72.6929 18.367 72.5848 18.9886 72.3776 19.5919C72.1703 20.1952 69.7644 25.6432 69.1336 27.0508C68.8092 27.773 68.5299 28.3489 68.3316 28.7419C68.3316 28.7419 68.3226 28.7693 68.2956 28.815C68.1244 29.1533 68.0253 29.3361 68.0253 29.3361C68.0253 29.3361 68.0253 29.3361 68.0253 29.3452C67.8901 29.592 67.7459 29.8205 67.6738 29.8205C67.6198 29.8205 67.5207 29.1624 67.6919 28.2666C68.0523 26.3744 68.9083 23.4311 68.8993 23.3305C68.8993 23.2757 69.0615 22.7638 68.3407 22.4987C67.6378 22.2336 67.3855 22.6724 67.3224 22.6724C67.2593 22.6724 67.2143 22.8278 67.2143 22.8278C67.2143 22.8278 67.9982 19.5188 65.7185 19.5188C64.2948 19.5188 62.3304 21.1001 61.3572 22.5261C60.7444 22.8643 59.4379 23.5865 58.0412 24.3634C57.5095 24.6651 56.9599 24.9667 56.4462 25.2501C56.4102 25.2135 56.3741 25.1678 56.3381 25.1313C53.5808 22.1422 48.4806 20.0307 48.6968 16.0178C48.7779 14.5553 49.2735 10.7161 58.4917 6.05425C66.0789 2.26078 72.1162 3.31199 73.1615 5.64291C74.6573 8.97019 69.9266 15.1494 62.0871 16.0452C59.0954 16.3834 57.5275 15.2134 57.1311 14.7746C56.7166 14.3176 56.6535 14.2902 56.5003 14.3816C56.248 14.5187 56.4102 14.93 56.5003 15.1677C56.7346 15.7893 57.6988 16.8862 59.3297 17.4255C60.7715 17.9008 64.2767 18.1659 68.5209 16.5023C73.2696 14.6375 76.9821 9.45466 75.8918 5.11274C74.8015 0.706835 67.5927 -0.746565 60.7715 1.71233C56.7166 3.17487 52.3192 5.47837 49.1564 8.47658C45.3988 12.0415 44.8041 15.1403 45.0474 16.4383C45.9215 21.0453 52.1841 24.0435 54.6891 26.2647C54.563 26.3379 54.4458 26.4018 54.3467 26.4567C53.0942 27.0874 48.3184 29.6194 47.1289 32.2977C45.7773 35.3325 47.3452 37.508 48.3815 37.8005C51.5984 38.7055 54.9054 37.0784 56.6805 34.391C58.4557 31.7036 58.2394 28.2117 57.4194 26.6121C57.4104 26.5938 57.4014 26.5755 57.3834 26.5572C57.7078 26.3653 58.0412 26.1642 58.3656 25.9722C59.0053 25.5883 59.6361 25.2318 60.1768 24.9393C59.8704 25.7894 59.6451 26.804 59.537 28.2666C59.4018 29.9851 60.0957 32.2154 61.0058 33.093C61.4113 33.4769 61.8888 33.486 62.1952 33.486C63.2585 33.486 63.7361 32.5902 64.2677 31.5299C64.9165 30.2319 65.5022 28.7236 65.5022 28.7236C65.5022 28.7236 64.7723 32.8005 66.7547 32.8005C67.4756 32.8005 68.2055 31.8498 68.5299 31.3653C68.5299 31.3745 68.5299 31.3745 68.5299 31.3745C68.5299 31.3745 68.5479 31.3471 68.584 31.2831C68.656 31.1642 68.7011 31.0911 68.7011 31.0911C68.7011 31.0911 68.7011 31.082 68.7011 31.0728C68.9894 30.5609 69.6382 29.4001 70.6024 27.4713C71.8459 24.985 73.0444 21.8771 73.0444 21.8771C73.0444 21.8771 73.1525 22.6358 73.5219 23.8972C73.7382 24.6377 74.1887 25.4512 74.5492 26.2373C74.2608 26.6486 74.0806 26.8772 74.0806 26.8772C74.0806 26.8772 74.0806 26.8772 74.0896 26.8863C73.8553 27.1971 73.603 27.5353 73.3237 27.8644C72.3415 29.0527 71.1701 30.4147 71.0079 30.8078C70.8187 31.2739 70.8637 31.6121 71.2242 31.8864C71.4855 32.0875 71.954 32.1149 72.4316 32.0875C73.3147 32.0235 73.9364 31.8041 74.2428 31.667C74.7204 31.4933 75.2791 31.2282 75.8017 30.8352C76.7659 30.113 77.3516 29.0801 77.2975 27.7181C77.2705 26.9686 77.0272 26.219 76.7298 25.5152C76.8199 25.3872 76.901 25.2592 76.9911 25.1313C78.514 22.8735 79.6944 20.3963 79.6944 20.3963C79.6944 20.3963 79.8026 21.155 80.172 22.4164C80.3522 23.0563 80.7217 23.751 81.0461 24.4274C79.6133 25.6066 78.7303 26.9777 78.4149 27.8735C77.8472 29.5372 78.2887 30.2867 79.1267 30.4604C79.5052 30.5427 80.0458 30.3598 80.4423 30.1862C80.9469 30.0216 81.5417 29.7383 82.1093 29.3178C83.0735 28.5957 84.0016 27.5902 83.9476 26.2282C83.9205 25.6066 83.7584 24.9942 83.5331 24.4C84.7495 23.8881 86.3175 23.6047 88.3179 23.8424C92.6071 24.3543 93.4541 27.0691 93.2919 28.2117C93.1297 29.3544 92.2286 29.9759 91.9313 30.1679C91.6339 30.3598 91.5348 30.4238 91.5618 30.5609C91.5979 30.762 91.742 30.7529 91.9943 30.7163C92.3458 30.6524 94.2471 29.7931 94.3282 27.6907C94.4633 25.0033 91.9403 22.0691 87.4799 22.0965ZM54.3917 33.4129C52.968 34.9851 50.9856 35.5793 50.1296 35.0765C49.2105 34.5372 49.5709 32.2154 51.319 30.5518C52.3823 29.5372 53.752 28.5957 54.6621 28.0198C54.8693 27.8918 55.1757 27.709 55.5451 27.4805C55.6082 27.4439 55.6443 27.4256 55.6443 27.4256C55.7164 27.3799 55.7884 27.3342 55.8605 27.2885C56.5003 29.6651 55.8876 31.7584 54.3917 33.4129ZM64.7543 26.2647C64.2587 27.4896 63.2225 30.6249 62.5917 30.4513C62.051 30.305 61.7176 27.9284 62.4836 25.5792C62.871 24.4 63.691 22.9923 64.1686 22.4438C64.9435 21.5663 65.7996 21.2738 66.0068 21.6303C66.2681 22.0965 65.0607 25.4969 64.7543 26.2647ZM73.3057 30.4147C73.0984 30.5244 72.9002 30.5975 72.8101 30.5427C72.747 30.5061 72.9002 30.3598 72.9002 30.3598C72.9002 30.3598 73.9725 29.1898 74.396 28.6596C74.6393 28.3489 74.9276 27.9832 75.234 27.5719C75.234 27.6084 75.234 27.6541 75.234 27.6907C75.234 29.0893 73.9004 30.0308 73.3057 30.4147ZM79.9017 28.8882C79.7485 28.7785 79.7755 28.4128 80.2891 27.2702C80.4874 26.8223 80.956 26.0728 81.7579 25.3506C81.848 25.6432 81.9111 25.9265 81.9021 26.1916C81.8931 27.9558 80.6496 28.6139 79.9017 28.8882Z" fill="white"/>
<g clip-path="url(#clip0_550_509)">
<path d="M28.9 3H5.1C2.28335 3 0 5.28335 0 8.1V31.9C0 34.7167 2.28335 37 5.1 37H28.9C31.7167 37 34 34.7167 34 31.9V8.1C34 5.28335 31.7167 3 28.9 3Z" fill="#D7D7D7"/>
<path d="M17.1328 8.84369C10.7578 11.0351 6.64058 15.4843 7.03902 18.1406C7.43745 20.7968 11.4218 22.9218 13.2148 24.3163C10.8906 25.5117 7.9687 27.3046 8.03511 29.6288C8.16792 32.8163 11.621 31.8203 13.082 30.8906C14.5429 29.9609 16.0039 27.371 15.0742 24.6484C17.1328 24.1171 18.9257 24.7812 19.457 25.1796C21.5156 26.6406 20.4531 28.3007 19.7226 28.5663C18.9921 28.832 19.457 28.9648 19.9218 28.832C20.3867 28.6992 21.3828 28.0351 21.3828 26.9062C21.3828 24.0507 18.3281 22.7226 14.5429 23.7187C12.3515 21.3945 9.36323 20.332 9.49605 17.8085C9.56245 16.8788 9.89448 14.4882 15.8046 11.4999C21.7148 8.51166 25.8984 9.70697 25.3671 12.4296C24.5703 16.5468 17.3984 19.3359 14.875 16.9453C14.7421 16.6796 14.2773 16.4804 14.5429 17.2109C15.871 20.5312 26.6289 19.0038 27.0937 11.9648C27.2265 8.24604 21.8476 7.24994 17.1328 8.84369ZM11.4218 30.0937C9.76167 30.6249 9.82808 29.5624 9.89448 29.164C10.0937 28.0351 11.0234 26.6406 13.8125 25.246C14.6093 27.7695 12.8164 29.6953 11.4218 30.0937Z" fill="#2F2F2F"/>
</g>
<defs>
<clipPath id="clip0_550_509">
<rect width="34" height="34" fill="white" transform="translate(0 3)"/>
</clipPath>
</defs>
</svg>
