<svg width="34" height="34" viewBox="0 0 34 34" fill="none" xmlns="http://www.w3.org/2000/svg">
<path d="M0 0.296021V33.7693H34V0.296021H0ZM18.2143 26.2976C18.2143 29.556 16.2593 31.1445 13.4292 31.1445C10.8732 31.1445 9.38947 29.8414 8.63661 28.2686L11.2382 26.7182C11.7399 27.5947 12.1208 28.3358 13.216 28.3358C14.1267 28.3358 14.875 27.9316 14.875 26.3588V15.8372H18.2143V26.2976ZM25.7542 31.0697C22.7876 31.0697 20.8705 29.7517 19.9348 27.9316L22.5402 26.447C23.2232 27.5483 24.115 28.2821 25.6897 28.2821C27.0133 28.2821 27.7821 27.7052 27.7821 26.8064C27.7821 25.7282 26.9905 25.3464 25.5296 24.7143L24.7312 24.3766C22.4256 23.4112 20.8971 22.1978 20.8971 19.6358C20.8971 17.277 22.7223 15.554 25.5751 15.554C27.6068 15.554 29.0662 16.1756 30.1173 17.9958L27.625 19.573C27.0771 18.6069 26.4866 18.2281 25.5713 18.2281C24.6356 18.2281 24.0421 18.8124 24.0421 19.573C24.0421 20.5167 24.6356 20.8985 26.0047 21.4828L26.8031 21.8198C29.5193 22.9659 31.0485 24.136 31.0485 26.7631C31.0493 29.5948 28.79 31.0697 25.7542 31.0697Z" fill="#D7D7D7"/>
</svg>
