<svg width="180" height="35" viewBox="0 0 180 35" fill="none" xmlns="http://www.w3.org/2000/svg">
<path d="M0 1.29602V34.7693H34V1.29602H0ZM18.2143 27.2976C18.2143 30.556 16.2593 32.1445 13.4292 32.1445C10.8732 32.1445 9.38947 30.8414 8.63661 29.2686L11.2382 27.7182C11.7399 28.5947 12.1208 29.3358 13.216 29.3358C14.1267 29.3358 14.875 28.9316 14.875 27.3588V16.8372H18.2143V27.2976ZM25.7542 32.0697C22.7876 32.0697 20.8705 30.7517 19.9348 28.9316L22.5402 27.447C23.2232 28.5483 24.115 29.2821 25.6897 29.2821C27.0133 29.2821 27.7821 28.7052 27.7821 27.8064C27.7821 26.7282 26.9905 26.3464 25.5296 25.7143L24.7312 25.3766C22.4256 24.4112 20.8971 23.1978 20.8971 20.6358C20.8971 18.277 22.7223 16.554 25.5751 16.554C27.6068 16.554 29.0662 17.1756 30.1173 18.9958L27.625 20.573C27.0771 19.6069 26.4866 19.2281 25.5713 19.2281C24.6356 19.2281 24.0421 19.8124 24.0421 20.573C24.0421 21.5167 24.6356 21.8985 26.0047 22.4828L26.8031 22.8198C29.5193 23.9659 31.0485 25.136 31.0485 27.7631C31.0493 30.5948 28.79 32.0697 25.7542 32.0697Z" fill="#D7D7D7"/>
<path d="M54.2852 9.9375V27H52.0586V9.9375H54.2852ZM59.7695 9.9375V11.7891H46.5859V9.9375H59.7695ZM65.1714 25.6875L68.6987 14.3203H71.0191L65.9331 28.957C65.8159 29.2695 65.6597 29.6055 65.4644 29.9648C65.2769 30.332 65.0347 30.6797 64.7378 31.0078C64.4409 31.3359 64.0816 31.6016 63.6597 31.8047C63.2456 32.0156 62.7495 32.1211 62.1714 32.1211C61.9995 32.1211 61.7808 32.0977 61.5152 32.0508C61.2495 32.0039 61.062 31.9648 60.9527 31.9336L60.9409 30.1758C61.0034 30.1836 61.1011 30.1914 61.2339 30.1992C61.3745 30.2148 61.4722 30.2227 61.5269 30.2227C62.0191 30.2227 62.437 30.1562 62.7808 30.0234C63.1245 29.8984 63.4136 29.6836 63.648 29.3789C63.8902 29.082 64.0972 28.6719 64.2691 28.1484L65.1714 25.6875ZM62.5816 14.3203L65.8745 24.1641L66.437 26.4492L64.8784 27.2461L60.2144 14.3203H62.5816ZM75.6241 16.7578V31.875H73.4444V14.3203H75.4366L75.6241 16.7578ZM84.167 20.5547V20.8008C84.167 21.7227 84.0577 22.5781 83.8389 23.3672C83.6202 24.1484 83.2998 24.8281 82.878 25.4062C82.4639 25.9844 81.9522 26.4336 81.3428 26.7539C80.7334 27.0742 80.0342 27.2344 79.2452 27.2344C78.4405 27.2344 77.7295 27.1016 77.1123 26.8359C76.4952 26.5703 75.9717 26.1836 75.542 25.6758C75.1123 25.168 74.7686 24.5586 74.5108 23.8477C74.2608 23.1367 74.0889 22.3359 73.9952 21.4453V20.1328C74.0889 19.1953 74.2647 18.3555 74.5225 17.6133C74.7803 16.8711 75.1202 16.2383 75.542 15.7148C75.9717 15.1836 76.4912 14.7812 77.1006 14.5078C77.71 14.2266 78.4131 14.0859 79.21 14.0859C80.0069 14.0859 80.7139 14.2422 81.3311 14.5547C81.9483 14.8594 82.4678 15.2969 82.8897 15.8672C83.3116 16.4375 83.628 17.1211 83.8389 17.918C84.0577 18.707 84.167 19.5859 84.167 20.5547ZM81.9873 20.8008V20.5547C81.9873 19.9219 81.9209 19.3281 81.7881 18.7734C81.6553 18.2109 81.4483 17.7188 81.167 17.2969C80.8936 16.8672 80.542 16.5312 80.1123 16.2891C79.6827 16.0391 79.1709 15.9141 78.5772 15.9141C78.0303 15.9141 77.5537 16.0078 77.1475 16.1953C76.7491 16.3828 76.4092 16.6367 76.128 16.957C75.8467 17.2695 75.6162 17.6289 75.4366 18.0352C75.2647 18.4336 75.1358 18.8477 75.0498 19.2773V22.3125C75.2061 22.8594 75.4248 23.375 75.7061 23.8594C75.9873 24.3359 76.3623 24.7227 76.8311 25.0195C77.2998 25.3086 77.8897 25.4531 78.6006 25.4531C79.1866 25.4531 79.6905 25.332 80.1123 25.0898C80.542 24.8398 80.8936 24.5 81.167 24.0703C81.4483 23.6406 81.6553 23.1484 81.7881 22.5938C81.9209 22.0312 81.9873 21.4336 81.9873 20.8008ZM92.6744 27.2344C91.7916 27.2344 90.9908 27.0859 90.272 26.7891C89.5611 26.4844 88.9478 26.0586 88.4322 25.5117C87.9244 24.9648 87.5337 24.3164 87.2603 23.5664C86.9869 22.8164 86.8502 21.9961 86.8502 21.1055V20.6133C86.8502 19.582 87.0025 18.6641 87.3072 17.8594C87.6119 17.0469 88.0259 16.3594 88.5494 15.7969C89.0728 15.2344 89.6666 14.8086 90.3306 14.5195C90.9947 14.2305 91.6822 14.0859 92.3931 14.0859C93.2994 14.0859 94.0806 14.2422 94.7369 14.5547C95.4009 14.8672 95.9439 15.3047 96.3658 15.8672C96.7877 16.4219 97.1002 17.0781 97.3033 17.8359C97.5064 18.5859 97.608 19.4062 97.608 20.2969V21.2695H88.1392V19.5H95.44V19.3359C95.4087 18.7734 95.2916 18.2266 95.0884 17.6953C94.8931 17.1641 94.5806 16.7266 94.1509 16.3828C93.7212 16.0391 93.1353 15.8672 92.3931 15.8672C91.9009 15.8672 91.4478 15.9727 91.0337 16.1836C90.6197 16.3867 90.2642 16.6914 89.9673 17.0977C89.6705 17.5039 89.44 18 89.2759 18.5859C89.1119 19.1719 89.0298 19.8477 89.0298 20.6133V21.1055C89.0298 21.707 89.1119 22.2734 89.2759 22.8047C89.4478 23.3281 89.6939 23.7891 90.0142 24.1875C90.3423 24.5859 90.7369 24.8984 91.1978 25.125C91.6666 25.3516 92.1978 25.4648 92.7916 25.4648C93.5572 25.4648 94.2056 25.3086 94.7369 24.9961C95.2681 24.6836 95.733 24.2656 96.1314 23.7422L97.4439 24.7852C97.1705 25.1992 96.8228 25.5938 96.4009 25.9688C95.9791 26.3438 95.4595 26.6484 94.8423 26.8828C94.233 27.1172 93.5103 27.2344 92.6744 27.2344ZM110.041 22.6875C110.041 22.2891 109.979 21.9375 109.854 21.6328C109.736 21.3203 109.525 21.0391 109.221 20.7891C108.924 20.5391 108.51 20.3008 107.979 20.0742C107.455 19.8477 106.791 19.6172 105.986 19.3828C105.143 19.1328 104.381 18.8555 103.701 18.5508C103.022 18.2383 102.44 17.8828 101.955 17.4844C101.471 17.0859 101.1 16.6289 100.842 16.1133C100.584 15.5977 100.455 15.0078 100.455 14.3438C100.455 13.6797 100.592 13.0664 100.865 12.5039C101.139 11.9414 101.529 11.4531 102.037 11.0391C102.553 10.6172 103.166 10.2891 103.877 10.0547C104.588 9.82031 105.381 9.70312 106.256 9.70312C107.537 9.70312 108.623 9.94922 109.514 10.4414C110.412 10.9258 111.096 11.5625 111.565 12.3516C112.033 13.1328 112.268 13.9688 112.268 14.8594H110.018C110.018 14.2188 109.881 13.6523 109.607 13.1602C109.334 12.6602 108.92 12.2695 108.365 11.9883C107.811 11.6992 107.107 11.5547 106.256 11.5547C105.451 11.5547 104.787 11.6758 104.264 11.918C103.74 12.1602 103.35 12.4883 103.092 12.9023C102.842 13.3164 102.717 13.7891 102.717 14.3203C102.717 14.6797 102.791 15.0078 102.94 15.3047C103.096 15.5938 103.334 15.8633 103.654 16.1133C103.982 16.3633 104.397 16.5938 104.897 16.8047C105.404 17.0156 106.01 17.2188 106.713 17.4141C107.682 17.6875 108.518 17.9922 109.221 18.3281C109.924 18.6641 110.502 19.043 110.955 19.4648C111.416 19.8789 111.756 20.3516 111.975 20.8828C112.201 21.4062 112.315 22 112.315 22.6641C112.315 23.3594 112.174 23.9883 111.893 24.5508C111.611 25.1133 111.209 25.5938 110.686 25.9922C110.162 26.3906 109.533 26.6992 108.799 26.918C108.072 27.1289 107.26 27.2344 106.361 27.2344C105.572 27.2344 104.795 27.125 104.029 26.9062C103.272 26.6875 102.58 26.3594 101.955 25.9219C101.338 25.4844 100.842 24.9453 100.467 24.3047C100.1 23.6562 99.9161 22.9062 99.9161 22.0547H102.166C102.166 22.6406 102.279 23.1445 102.506 23.5664C102.732 23.9805 103.041 24.3242 103.432 24.5977C103.83 24.8711 104.279 25.0742 104.779 25.207C105.287 25.332 105.815 25.3945 106.361 25.3945C107.15 25.3945 107.818 25.2852 108.365 25.0664C108.912 24.8477 109.326 24.5352 109.607 24.1289C109.897 23.7227 110.041 23.2422 110.041 22.6875ZM120.423 25.4531C120.939 25.4531 121.416 25.3477 121.853 25.1367C122.291 24.9258 122.65 24.6367 122.931 24.2695C123.213 23.8945 123.373 23.4688 123.412 22.9922H125.474C125.435 23.7422 125.181 24.4414 124.713 25.0898C124.252 25.7305 123.646 26.25 122.896 26.6484C122.146 27.0391 121.322 27.2344 120.423 27.2344C119.47 27.2344 118.638 27.0664 117.927 26.7305C117.224 26.3945 116.638 25.9336 116.17 25.3477C115.709 24.7617 115.361 24.0898 115.127 23.332C114.9 22.5664 114.787 21.7578 114.787 20.9062V20.4141C114.787 19.5625 114.9 18.7578 115.127 18C115.361 17.2344 115.709 16.5586 116.17 15.9727C116.638 15.3867 117.224 14.9258 117.927 14.5898C118.638 14.2539 119.47 14.0859 120.423 14.0859C121.416 14.0859 122.283 14.2891 123.025 14.6953C123.767 15.0938 124.349 15.6406 124.771 16.3359C125.201 17.0234 125.435 17.8047 125.474 18.6797H123.412C123.373 18.1562 123.224 17.6836 122.966 17.2617C122.716 16.8398 122.373 16.5039 121.935 16.2539C121.505 15.9961 121.002 15.8672 120.423 15.8672C119.759 15.8672 119.201 16 118.748 16.2656C118.302 16.5234 117.947 16.875 117.681 17.3203C117.423 17.7578 117.236 18.2461 117.119 18.7852C117.009 19.3164 116.955 19.8594 116.955 20.4141V20.9062C116.955 21.4609 117.009 22.0078 117.119 22.5469C117.228 23.0859 117.412 23.5742 117.67 24.0117C117.935 24.4492 118.291 24.8008 118.736 25.0664C119.189 25.3242 119.752 25.4531 120.423 25.4531ZM130.56 16.3125V27H128.392V14.3203H130.501L130.56 16.3125ZM134.521 14.25L134.509 16.2656C134.329 16.2266 134.157 16.2031 133.993 16.1953C133.837 16.1797 133.657 16.1719 133.454 16.1719C132.954 16.1719 132.513 16.25 132.13 16.4062C131.747 16.5625 131.423 16.7812 131.157 17.0625C130.892 17.3438 130.681 17.6797 130.525 18.0703C130.376 18.4531 130.278 18.875 130.232 19.3359L129.622 19.6875C129.622 18.9219 129.696 18.2031 129.845 17.5312C130.001 16.8594 130.239 16.2656 130.56 15.75C130.88 15.2266 131.286 14.8203 131.778 14.5312C132.278 14.2344 132.872 14.0859 133.56 14.0859C133.716 14.0859 133.896 14.1055 134.099 14.1445C134.302 14.1758 134.442 14.2109 134.521 14.25ZM139.36 14.3203V27H137.18V14.3203H139.36ZM137.016 10.957C137.016 10.6055 137.122 10.3086 137.333 10.0664C137.551 9.82422 137.872 9.70312 138.294 9.70312C138.708 9.70312 139.024 9.82422 139.243 10.0664C139.469 10.3086 139.583 10.6055 139.583 10.957C139.583 11.293 139.469 11.582 139.243 11.8242C139.024 12.0586 138.708 12.1758 138.294 12.1758C137.872 12.1758 137.551 12.0586 137.333 11.8242C137.122 11.582 137.016 11.293 137.016 10.957ZM145.488 16.7578V31.875H143.309V14.3203H145.301L145.488 16.7578ZM154.031 20.5547V20.8008C154.031 21.7227 153.922 22.5781 153.703 23.3672C153.485 24.1484 153.164 24.8281 152.742 25.4062C152.328 25.9844 151.817 26.4336 151.207 26.7539C150.598 27.0742 149.899 27.2344 149.11 27.2344C148.305 27.2344 147.594 27.1016 146.977 26.8359C146.36 26.5703 145.836 26.1836 145.406 25.6758C144.977 25.168 144.633 24.5586 144.375 23.8477C144.125 23.1367 143.953 22.3359 143.86 21.4453V20.1328C143.953 19.1953 144.129 18.3555 144.387 17.6133C144.645 16.8711 144.985 16.2383 145.406 15.7148C145.836 15.1836 146.356 14.7812 146.965 14.5078C147.574 14.2266 148.277 14.0859 149.074 14.0859C149.871 14.0859 150.578 14.2422 151.195 14.5547C151.813 14.8594 152.332 15.2969 152.754 15.8672C153.176 16.4375 153.492 17.1211 153.703 17.918C153.922 18.707 154.031 19.5859 154.031 20.5547ZM151.852 20.8008V20.5547C151.852 19.9219 151.785 19.3281 151.652 18.7734C151.52 18.2109 151.313 17.7188 151.031 17.2969C150.758 16.8672 150.406 16.5312 149.977 16.2891C149.547 16.0391 149.035 15.9141 148.442 15.9141C147.895 15.9141 147.418 16.0078 147.012 16.1953C146.613 16.3828 146.274 16.6367 145.992 16.957C145.711 17.2695 145.481 17.6289 145.301 18.0352C145.129 18.4336 145 18.8477 144.914 19.2773V22.3125C145.07 22.8594 145.289 23.375 145.57 23.8594C145.852 24.3359 146.227 24.7227 146.695 25.0195C147.164 25.3086 147.754 25.4531 148.465 25.4531C149.051 25.4531 149.555 25.332 149.977 25.0898C150.406 24.8398 150.758 24.5 151.031 24.0703C151.313 23.6406 151.52 23.1484 151.652 22.5938C151.785 22.0312 151.852 21.4336 151.852 20.8008ZM162.586 14.3203V15.9844H155.73V14.3203H162.586ZM158.05 11.2383H160.218V23.8594C160.218 24.2891 160.285 24.6133 160.418 24.832C160.55 25.0508 160.722 25.1953 160.933 25.2656C161.144 25.3359 161.371 25.3711 161.613 25.3711C161.793 25.3711 161.98 25.3555 162.175 25.3242C162.379 25.2852 162.531 25.2539 162.632 25.2305L162.644 27C162.472 27.0547 162.246 27.1055 161.965 27.1523C161.691 27.207 161.359 27.2344 160.968 27.2344C160.437 27.2344 159.949 27.1289 159.504 26.918C159.058 26.707 158.703 26.3555 158.437 25.8633C158.179 25.3633 158.05 24.6914 158.05 23.8477V11.2383Z" fill="white"/>
</svg>
