<svg width="91" height="34" viewBox="0 0 91 34" fill="none" xmlns="http://www.w3.org/2000/svg">
<g clip-path="url(#clip0_1034_5)">
<path d="M32.525 15.4856L18.0505 0.641242C17.2177 -0.213747 15.8658 -0.213747 15.0319 0.641242L12.0265 3.72419L15.8388 7.63444C16.7251 7.32752 17.7409 7.5333 18.4471 8.25771C19.1569 8.98664 19.3561 10.0375 19.0493 10.9496L22.7237 14.7183C23.6127 14.4041 24.6384 14.6071 25.3482 15.3365C26.3406 16.3541 26.3406 18.0029 25.3482 19.0208C24.3556 20.039 22.748 20.039 21.755 19.0208C21.0087 18.2548 20.8242 17.1303 21.2021 16.1873L17.7753 12.6725L17.775 21.9216C18.017 22.0445 18.2453 22.2084 18.4469 22.4143C19.439 23.4318 19.439 25.0804 18.4469 26.0996C17.4545 27.117 15.8462 27.117 14.8549 26.0996C13.8626 25.0805 13.8626 23.4319 14.8549 22.4143C15.1001 22.1633 15.3838 21.9732 15.6866 21.8459V12.5108C15.3837 12.3839 15.1003 12.1953 14.8547 11.9422C14.1031 11.1719 13.9221 10.0405 14.3075 9.09387L10.5493 5.23854L0.625382 15.4171C-0.208461 16.2727 -0.208461 17.6593 0.625382 18.5143L15.099 33.3588C15.9323 34.2137 17.2837 34.2137 18.1181 33.3588L32.5248 18.5845C33.3584 17.7291 33.3584 16.3421 32.5248 15.4869" fill="#D7D7D7"/>
</g>
<path d="M61.3385 14.4524C59.7493 14.4524 58.5658 15.244 58.5658 17.1491C58.5658 18.5845 59.3458 19.5809 61.253 19.5809C62.8695 19.5809 63.9673 18.6148 63.9673 17.0898C63.9673 15.3617 62.9848 14.4524 61.3385 14.4524ZM58.16 27.9035C57.784 28.3717 57.4092 28.8691 57.4092 29.4562C57.4092 30.6274 58.8816 30.9798 60.9042 30.9798C62.5798 30.9798 64.862 30.8608 64.862 29.2807C64.862 28.3415 63.764 28.2833 62.3766 28.1951L58.16 27.9035ZM66.7106 14.541C67.2297 15.2152 67.7794 16.153 67.7794 17.5009C67.7794 20.7532 65.2661 22.6578 61.6271 22.6578C60.7017 22.6578 59.864 22.5408 59.3445 22.3946L58.3909 23.9473L61.2216 24.1227C66.2195 24.4457 69.1651 24.5925 69.1651 28.4883C69.1651 31.8588 66.2482 33.7623 61.2216 33.7623C55.9931 33.7623 54 32.4143 54 30.0998C54 28.7806 54.5779 28.079 55.5889 27.1106C54.6353 26.7017 54.318 25.9696 54.318 25.1781C54.318 24.533 54.6353 23.9471 55.1561 23.39C55.6759 22.8338 56.2534 22.2763 56.9468 21.6319C55.5315 20.9288 54.4624 19.405 54.4624 17.2364C54.4624 13.8672 56.6581 11.5532 61.0769 11.5532C62.3193 11.5532 63.0708 11.6692 63.7352 11.8461H69.3686V14.3361L66.7106 14.541Z" fill="white"/>
<path d="M74.4532 9.21636C72.8062 9.21636 71.8533 8.24855 71.8533 6.57774C71.8533 4.90904 72.8063 4 74.4532 4C76.1288 4 77.0821 4.90904 77.0821 6.57774C77.0821 8.24852 76.1288 9.21636 74.4532 9.21636ZM70.7262 26.8251V24.5114L72.1999 24.3069C72.6045 24.2475 72.6619 24.1603 72.6619 23.7197V15.1052C72.6619 14.7836 72.5756 14.5776 72.2859 14.4904L70.7262 13.9332L71.0438 11.5606H77.024V23.7199C77.024 24.1896 77.0518 24.2477 77.4863 24.3071L78.9597 24.5117V26.8253H70.726" fill="white"/>
<path d="M90.383 25.6895C89.1403 26.3041 87.3208 26.861 85.6734 26.861C82.236 26.861 80.9365 25.4558 80.9365 22.1434V14.467C80.9365 14.2916 80.9365 14.1739 80.7045 14.1739H78.6827V11.5662C81.2256 11.2724 82.2359 9.98285 82.5537 6.78906H85.2983V10.9513C85.2983 11.1556 85.2983 11.2441 85.5297 11.2441H89.6025V14.1738H85.2984V21.1765C85.2984 22.9056 85.7033 23.5789 87.2624 23.5789C88.0723 23.5789 88.909 23.3744 89.6024 23.1105L90.383 25.6895Z" fill="white"/>
<defs>
<clipPath id="clip0_1034_5">
<rect width="34" height="34" fill="white"/>
</clipPath>
</defs>
</svg>
