<svg width="129" height="32" viewBox="0 0 129 32" fill="none" xmlns="http://www.w3.org/2000/svg">
<g clip-path="url(#clip0_572_347)">
<path d="M47.4354 11.3532C45.8462 11.3532 44.6627 12.1448 44.6627 14.0499C44.6627 15.4852 45.4427 16.4816 47.3499 16.4816C48.9664 16.4816 50.0642 15.5155 50.0642 13.9906C50.0642 12.2625 49.0818 11.3532 47.4354 11.3532ZM44.2569 24.8043C43.8809 25.2725 43.5061 25.7699 43.5061 26.357C43.5061 27.5281 44.9785 27.8806 47.0011 27.8806C48.6767 27.8806 50.959 27.7616 50.959 26.1814C50.959 25.2422 49.861 25.1841 48.4735 25.0959L44.2569 24.8043ZM52.8075 11.4418C53.3266 12.1159 53.8763 13.0538 53.8763 14.4016C53.8763 17.654 51.363 19.5585 47.7241 19.5585C46.7987 19.5585 45.9609 19.4416 45.4414 19.2953L44.4878 20.8481L47.3185 21.0235C52.3164 21.3465 55.262 21.4933 55.262 25.389C55.262 28.7596 52.3451 30.6631 47.3185 30.6631C42.09 30.6631 40.0969 29.315 40.0969 27.0005C40.0969 25.6814 40.6748 24.9797 41.6858 24.0113C40.7322 23.6024 40.4149 22.8703 40.4149 22.0788C40.4149 21.4337 40.7322 20.8479 41.253 20.2907C41.7728 19.7345 42.3504 19.177 43.0437 18.5326C41.6284 17.8295 40.5593 16.3058 40.5593 14.1372C40.5593 10.7679 42.755 8.45398 47.1739 8.45398C48.4163 8.45398 49.1677 8.56997 49.8322 8.74687H55.4655V11.2369L52.8075 11.4418Z" fill="white"/>
<path d="M60.5502 6.11712C58.9032 6.11712 57.9502 5.1493 57.9502 3.4785C57.9502 1.8098 58.9032 0.900757 60.5502 0.900757C62.2257 0.900757 63.179 1.8098 63.179 3.4785C63.179 5.14928 62.2257 6.11712 60.5502 6.11712ZM56.8231 23.7258V21.4122L58.2968 21.2077C58.7014 21.1482 58.7589 21.061 58.7589 20.6205V12.006C58.7589 11.6843 58.6726 11.4783 58.3828 11.3911L56.8231 10.8339L57.1407 8.46135H63.1209V20.6207C63.1209 21.0904 63.1488 21.1485 63.5832 21.2079L65.0567 21.4124V23.7261H56.8229" fill="white"/>
<path d="M76.4799 22.5903C75.2372 23.2049 73.4177 23.7617 71.7703 23.7617C68.333 23.7617 67.0334 22.3566 67.0334 19.0441V11.3678C67.0334 11.1923 67.0334 11.0746 66.8014 11.0746H64.7797V8.46693C67.3225 8.17313 68.3328 6.88361 68.6507 3.68982H71.3953V7.85201C71.3953 8.05638 71.3953 8.1449 71.6266 8.1449H75.6994V11.0746H71.3953V18.0773C71.3953 19.8063 71.8003 20.4797 73.3593 20.4797C74.1692 20.4797 75.0059 20.2752 75.6993 20.0112L76.4799 22.5903Z" fill="white"/>
<path d="M30.2472 14.9008L17.038 1.50389C16.278 0.732266 15.0443 0.732266 14.2833 1.50389L11.5406 4.28622L15.0197 7.81519C15.8285 7.53819 16.7555 7.72391 17.3999 8.37769C18.0477 9.03554 18.2294 9.9839 17.9495 10.807L21.3027 14.2083C22.114 13.9248 23.05 14.108 23.6977 14.7662C24.6034 15.6846 24.6034 17.1727 23.6977 18.0913C22.792 19.0102 21.3249 19.0102 20.4186 18.0913C19.7376 17.4 19.5692 16.3851 19.9141 15.5341L16.7869 12.362L16.7866 20.7093C17.0074 20.8201 17.2158 20.9681 17.3998 21.1539C18.3052 22.0722 18.3052 23.56 17.3998 24.4798C16.4941 25.398 15.0264 25.398 14.1217 24.4798C13.2162 23.5601 13.2162 22.0723 14.1217 21.1539C14.3455 20.9273 14.6044 20.7558 14.8807 20.6409V12.216C14.6043 12.1016 14.3457 11.9313 14.1216 11.7029C13.4357 11.0077 13.2705 9.98665 13.6222 9.13231L10.1926 5.65291L1.13614 14.8389C0.375192 15.6111 0.375192 16.8625 1.13614 17.6342L14.3445 31.0312C15.1049 31.8028 16.3382 31.8028 17.0997 31.0312L30.247 17.6975C31.0077 16.9255 31.0077 15.6737 30.247 14.902" fill="#D7D7D7"/>
</g>
<defs>
<clipPath id="clip0_572_347">
<rect width="127.684" height="30.7098" fill="white" transform="translate(0.606934 0.901123)"/>
</clipPath>
</defs>
</svg>
