<svg width="130" height="39" viewBox="0 0 130 39" fill="none" xmlns="http://www.w3.org/2000/svg">
<path d="M77.0433 28.2948H77.0037C77.0234 28.2948 77.0235 28.3146 77.0433 28.3146H77.0631L77.0433 28.2948ZM77.0433 28.3146C76.8848 28.3146 76.469 28.3938 76.0334 28.3938C74.6672 28.3938 74.192 27.7602 74.192 26.9286V21.4241H76.9838C77.1423 21.4241 77.2611 21.2855 77.2611 21.0874V18.0976C77.2611 17.9392 77.1225 17.8006 76.9838 17.8006H74.192V14.0781C74.192 13.9395 74.093 13.8603 73.9346 13.8603H70.1329C69.9745 13.8603 69.8953 13.9593 69.8953 14.0781V17.8996C69.8953 17.8996 67.9747 18.3748 67.8559 18.3946C67.7173 18.4342 67.6381 18.553 67.6381 18.6916V21.0874C67.6381 21.2855 67.7767 21.4241 67.9351 21.4241H69.8755V27.2058C69.8755 31.5025 72.8654 31.9381 74.9048 31.9381C75.8354 31.9381 76.9641 31.6411 77.1423 31.5421C77.2413 31.5025 77.3007 31.3836 77.3007 31.2648V28.6314C77.3007 28.473 77.2017 28.3542 77.0433 28.3146ZM118.743 24.4535C118.743 21.2657 117.456 20.8498 116.109 20.9884C115.06 21.0478 114.209 21.5825 114.209 21.5825V27.78C114.209 27.78 115.06 28.374 116.347 28.4136C118.149 28.4532 118.743 27.7998 118.743 24.4535ZM123.02 24.1763C123.02 30.2154 121.06 31.9381 117.654 31.9381C114.763 31.9381 113.219 30.4728 113.219 30.4728C113.219 30.4728 113.159 31.2846 113.06 31.3837C113.001 31.4827 112.922 31.5223 112.803 31.5223H110.209C110.031 31.5223 109.872 31.3837 109.872 31.2253L109.912 11.6823C109.912 11.5239 110.05 11.3853 110.209 11.3853H113.951C114.11 11.3853 114.248 11.5239 114.248 11.6823V18.3154C114.248 18.3154 115.694 17.3848 117.812 17.3848L117.792 17.3452C119.891 17.3452 123.02 18.1372 123.02 24.1763ZM107.674 17.8204H103.972C103.774 17.8204 103.675 17.959 103.675 18.157V27.7206C103.675 27.7206 102.705 28.3938 101.378 28.3938C100.071 28.3938 99.6751 27.7998 99.6751 26.4732V18.1174C99.6751 17.959 99.5365 17.8204 99.3781 17.8204H95.616C95.4576 17.8204 95.319 17.959 95.319 18.1174V27.1266C95.319 30.9876 97.4773 31.9579 100.447 31.9579C102.903 31.9579 104.883 30.6114 104.883 30.6114C104.883 30.6114 104.982 31.3045 105.021 31.4035C105.061 31.4827 105.18 31.5619 105.298 31.5619H107.655C107.853 31.5619 107.952 31.4233 107.952 31.2648L107.991 18.1174C108.011 17.959 107.853 17.8204 107.674 17.8204ZM65.9748 17.8006H62.2326C62.0742 17.8006 61.9356 17.959 61.9356 18.157V31.0668C61.9356 31.4233 62.1732 31.5421 62.4702 31.5421H65.856C66.2124 31.5421 66.2916 31.3836 66.2916 31.0668V18.0976C66.2718 17.9392 66.1332 17.8006 65.9748 17.8006ZM64.1136 11.8407C62.7672 11.8407 61.6781 12.9099 61.6781 14.2761C61.6781 15.6225 62.7474 16.7116 64.1136 16.7116C65.4402 16.7116 66.5094 15.6423 66.5094 14.2761C66.5094 12.9297 65.4402 11.8407 64.1136 11.8407ZM93.141 11.4051H89.4185C89.2601 11.4051 89.1215 11.5437 89.1215 11.7021V18.8896H83.3002V11.7021C83.3002 11.5437 83.1616 11.4051 83.0032 11.4051H79.2609C79.1025 11.4051 78.9639 11.5437 78.9639 11.7021V31.245C78.9639 31.4035 79.1223 31.5421 79.2609 31.5421H83.0032C83.1616 31.5421 83.3002 31.4035 83.3002 31.245V22.8893H89.1215L89.0819 31.245C89.0819 31.4035 89.2205 31.5421 89.3789 31.5421H93.1212C93.2796 31.5421 93.4182 31.4035 93.4182 31.245V11.7021C93.438 11.5437 93.2994 11.4051 93.141 11.4051ZM59.9357 20.0578V30.156C59.9357 30.2154 59.9159 30.354 59.8367 30.3738C59.8367 30.3738 57.6389 31.9381 54.0154 31.9381C49.6395 31.9381 44.432 30.5718 44.432 21.5231C44.432 12.4743 48.9663 10.613 53.4016 10.6328C57.2429 10.6328 58.7873 11.5041 59.0249 11.6625C59.0843 11.7615 59.1239 11.8209 59.1239 11.9001L58.4111 15.0483C58.4111 15.2067 58.2527 15.4047 58.0547 15.3453C57.4211 15.1473 56.4706 14.7711 54.2332 14.7711C51.6393 14.7711 48.8673 15.5037 48.8673 21.3449C48.8673 27.1662 51.5007 27.8592 53.4016 27.8592C55.0252 27.8592 55.5994 27.6612 55.5994 27.6612V23.6219H53.0056C52.8076 23.6219 52.669 23.4833 52.669 23.3249V20.0776C52.669 19.9192 52.8076 19.7806 53.0056 19.7806H59.5991C59.7971 19.7608 59.9357 19.8994 59.9357 20.0578Z" fill="white"/>
<path fill-rule="evenodd" clip-rule="evenodd" d="M19.2856 5.62329C10.9497 5.62329 4.19775 12.3752 4.19775 20.7112C4.19775 27.3839 8.51424 33.027 14.5138 35.0269C15.2662 35.1457 15.5632 34.7101 15.5632 34.3141C15.5632 33.9576 15.5434 32.7696 15.5434 31.5024C11.7615 32.1954 10.7715 30.5718 10.4745 29.7402C10.2963 29.3046 9.56366 27.9581 8.93005 27.6017C8.39544 27.3245 7.64302 26.6117 8.91025 26.5919C10.0983 26.5721 10.9497 27.6809 11.2269 28.1363C12.5931 30.4134 14.7514 29.7798 15.6226 29.3838C15.7612 28.4135 16.1572 27.7403 16.5928 27.3641C13.2465 26.9879 9.72206 25.6811 9.72206 19.9192C9.72206 18.2757 10.3161 16.9095 11.2665 15.8601C11.1081 15.4839 10.5933 13.9395 11.4249 11.8604C11.4249 11.8604 12.6921 11.4644 15.583 13.4048C16.7908 13.0682 18.0778 12.89 19.3451 12.89C20.6321 12.89 21.8993 13.0682 23.1071 13.4048C25.998 11.4446 27.2454 11.8604 27.2454 11.8604C28.077 13.9395 27.5424 15.4839 27.4038 15.8601C28.374 16.9095 28.9482 18.2559 28.9482 19.9192C28.9482 25.7009 25.4238 26.9879 22.0577 27.3641C22.6121 27.8393 23.0873 28.7303 23.0873 30.156C23.0873 32.1756 23.0675 33.7992 23.0675 34.2943C23.0675 34.6903 23.3447 35.1655 24.0971 35.0071C30.2353 32.928 34.3735 27.1661 34.3735 20.6914C34.3735 12.3752 27.6216 5.62329 19.2856 5.62329Z" fill="#D7D7D7"/>
</svg>
