<svg width="113" height="34" viewBox="0 0 113 34" fill="none" xmlns="http://www.w3.org/2000/svg">
<path d="M46.6324 11.8639H43.9841C43.8588 11.8461 43.7336 11.8996 43.6441 11.9888C43.5547 12.0601 43.501 12.1672 43.501 12.2742V21.638C43.501 21.7629 43.5726 21.8877 43.6978 21.9412C43.9483 22.1018 44.2704 22.1018 44.5209 21.9412C44.6462 21.8877 44.7177 21.7629 44.7177 21.638V18.0173H46.5429C47.3302 18.053 48.1175 17.7855 48.7259 17.2861C49.3164 16.6796 49.6206 15.8414 49.549 14.9852V14.8604C49.6206 14.0399 49.3522 13.2016 48.7796 12.5952C48.1891 12.0601 47.4197 11.8104 46.6324 11.8639ZM48.4575 15.0744C48.4933 15.6095 48.3144 16.1446 47.9744 16.5548C47.5986 16.9293 47.0797 17.1077 46.5608 17.0899H44.7356V12.9163H46.5608C47.0618 12.8806 47.5628 13.0768 47.9386 13.4157C48.2965 13.8259 48.4754 14.361 48.4217 14.8961L48.4575 15.0744ZM54.5414 12.5417C53.9509 13.1481 53.6467 14.0043 53.7183 14.8604V19.0697C53.6467 19.9258 53.9509 20.7641 54.5414 21.3883C55.8476 22.3693 57.637 22.3693 58.9432 21.3883C59.5516 20.7819 59.8558 19.9258 59.7663 19.0697V14.8961C59.8558 14.0221 59.5516 13.166 58.9432 12.5417C57.637 11.5607 55.8297 11.5607 54.5414 12.5417ZM58.5853 19.0697C58.639 19.6226 58.4601 20.1576 58.1022 20.5679C57.7443 20.9246 57.2433 21.1029 56.7423 21.0673C55.5076 21.0673 54.9171 20.3895 54.9171 19.0697V14.8961C54.9171 13.5762 55.5255 12.8984 56.7423 12.8984C57.2433 12.8628 57.7443 13.0411 58.1022 13.3978C58.4601 13.8081 58.639 14.3431 58.5853 14.8782V19.0697ZM68.3732 16.5726C67.9079 16.3764 67.4606 16.1802 67.0132 16.0197C66.5838 15.877 66.1901 15.663 65.8502 15.3776C65.546 15.1279 65.367 14.7177 65.4028 14.3253C65.367 13.8794 65.5639 13.4692 65.9396 13.2195C66.3512 12.9698 66.8343 12.8628 67.2995 12.8806C67.7469 12.8628 68.1942 12.9519 68.6058 13.1481C68.8026 13.2373 69.0173 13.3265 69.2321 13.3978C69.3931 13.3978 69.5184 13.3087 69.5899 13.166C69.6615 13.0411 69.7331 12.8984 69.7331 12.7379C69.7331 12.4525 69.4647 12.2207 68.9279 12.0423C68.3911 11.8818 67.8364 11.7926 67.2638 11.7926C66.9059 11.7926 66.548 11.8283 66.1901 11.9175C65.8502 12.0066 65.5102 12.1315 65.206 12.3098C64.8839 12.506 64.6334 12.7914 64.4545 13.1303C64.2576 13.5227 64.1682 13.9686 64.1682 14.4145C64.1503 14.9674 64.3113 15.5025 64.6334 15.9484C64.9376 16.3408 65.3312 16.644 65.7965 16.858C66.2617 17.0542 66.7091 17.2326 67.1564 17.3931C67.5858 17.5536 67.9795 17.8033 68.3195 18.1243C68.6416 18.4632 68.8026 18.9091 68.7847 19.3729C68.8205 19.8544 68.6237 20.336 68.2658 20.6749C67.8542 20.9959 67.3532 21.1386 66.8343 21.1208C66.4764 21.1386 66.1365 21.0673 65.8144 20.9424C65.5639 20.8711 65.3491 20.7284 65.1523 20.55L64.705 20.122C64.6155 20.0328 64.5081 19.9614 64.3829 19.9436C64.2397 19.9614 64.1145 20.0328 64.0429 20.1398C63.9534 20.2647 63.8819 20.4073 63.8819 20.5857C63.8819 20.9246 64.1682 21.2635 64.7944 21.6023C65.4386 21.9769 66.1722 22.1553 66.9059 22.1374C67.7111 22.1731 68.5163 21.9056 69.1426 21.4062C69.7331 20.8354 70.0373 20.0328 69.9836 19.2302C70.0552 18.1243 69.411 17.0542 68.3732 16.5726ZM79.6283 11.8639H73.9202C73.7949 11.8639 73.6876 11.9175 73.616 12.0245C73.455 12.2563 73.455 12.5595 73.616 12.7736C73.6876 12.8628 73.7949 12.9341 73.9202 12.9341H76.1927V21.638C76.1927 21.7629 76.2643 21.8877 76.3716 21.9412C76.6221 22.1018 76.9442 22.1018 77.1947 21.9412C77.32 21.8877 77.3737 21.7629 77.3737 21.638V12.9341H79.6104C79.7356 12.9519 79.8609 12.8806 79.9146 12.7736C79.9862 12.6666 80.0398 12.5239 80.0219 12.399C80.0219 12.2742 79.9862 12.1493 79.9146 12.0423C79.8609 11.9175 79.7535 11.8639 79.6283 11.8639ZM90.955 11.8639C90.5971 11.8639 90.2929 12.1136 90.0424 12.6131L87.8236 16.8223L85.6227 12.6131C85.3721 12.1136 85.0501 11.8639 84.7101 11.8639H84.4596C84.1912 11.9175 83.9943 12.1672 84.0301 12.4525V21.6202C84.0301 21.7629 84.1017 21.8877 84.227 21.9412C84.3522 22.0126 84.4954 22.0661 84.6564 22.0482C84.7995 22.0482 84.9248 21.9947 85.0501 21.9234C85.1753 21.8699 85.229 21.745 85.229 21.6202V14.2361L87.3583 18.267C87.412 18.4632 87.591 18.6059 87.7878 18.6059C88.0025 18.5881 88.1814 18.4632 88.253 18.267L90.3824 14.3075V21.6023C90.3824 21.7272 90.4539 21.8521 90.5613 21.9056C90.8118 22.0482 91.1339 22.0482 91.3844 21.9056C91.5097 21.8521 91.5634 21.7272 91.5634 21.6023V12.4169C91.5812 12.3634 91.5812 12.3277 91.5634 12.2742C91.4918 12.0066 91.2234 11.8104 90.955 11.8639ZM99.1861 11.8639C98.7924 11.8639 98.5419 12.0066 98.4703 12.2563L95.5894 21.4775C95.5715 21.5132 95.5715 21.5488 95.5894 21.5845C95.5894 21.745 95.6789 21.8877 95.822 21.9591C95.9652 22.0482 96.1262 22.1018 96.3052 22.1018C96.4841 22.1374 96.6809 22.0126 96.7346 21.8342L97.343 19.8009H100.975L101.584 21.8342C101.637 22.0126 101.834 22.1196 102.013 22.1018C102.192 22.1196 102.371 22.0661 102.514 21.9591C102.657 21.9056 102.747 21.7807 102.747 21.6202M102.747 21.5845V21.531L99.8839 12.2742C99.8123 12.0066 99.5797 11.8818 99.1861 11.8818L102.747 21.5845ZM97.6114 18.7843L99.1682 13.5584L100.743 18.7843H97.6114ZM112.821 11.9531C112.571 11.8104 112.248 11.8104 111.998 11.9531C111.891 12.0066 111.819 12.1315 111.819 12.2563V19.4264L108.33 12.6131C108.24 12.399 108.097 12.2028 107.936 12.0423C107.793 11.9175 107.632 11.8639 107.435 11.8639C107.041 11.8639 106.845 12.0066 106.845 12.2742V21.638C106.827 21.7629 106.898 21.8877 107.023 21.9412C107.274 22.1018 107.596 22.1018 107.847 21.9412C107.954 21.8877 108.026 21.7629 108.026 21.638V14.5393L111.658 21.5667C111.783 21.8699 112.069 22.0839 112.392 22.1018C112.535 22.1018 112.678 22.0661 112.821 21.9769C112.928 21.9056 113 21.7985 113 21.6737V12.2742C113 12.1315 112.928 12.0245 112.821 11.9531Z" fill="white"/>
<path d="M18.3125 0.9378C9.40188 -0.239426 1.27698 6.15382 0.134139 15.1913C-1.0087 24.2288 5.27693 32.4875 14.1875 33.6466C23.0981 34.8057 31.223 28.4124 32.3837 19.3931C33.5266 10.3556 27.2409 2.09691 18.3125 0.9378C18.3303 0.9378 18.3303 0.9378 18.3125 0.9378ZM21.6696 11.2068C21.366 11.2249 21.0803 11.3336 20.866 11.5509L14.8304 17.6725L13.5447 16.3685C19.491 10.3556 20.5625 10.3013 21.6696 11.2068ZM15.0804 17.8899L21.0982 11.8407C21.4374 11.5147 21.9553 11.5147 22.2946 11.8407C22.4553 12.0037 22.5446 12.2392 22.5446 12.4565C22.5267 12.6919 22.4374 12.9093 22.2589 13.0723L15.9018 18.7592L15.0804 17.8899ZM15.5268 18.8135L14.0268 19.1939C13.9911 19.212 13.9733 19.212 13.9375 19.1939C13.9197 19.1576 13.9197 19.1214 13.9375 19.1033L14.8482 18.1796L15.5268 18.8135ZM11.7233 18.1796L13.3125 16.5677L14.509 17.8174L11.7769 18.4151C11.7233 18.4332 11.6519 18.3789 11.6519 18.3245C11.634 18.2883 11.6519 18.2521 11.6876 18.234L11.7233 18.1796ZM6.79477 26.5651C6.75906 26.547 6.72334 26.5289 6.70549 26.4927C6.68763 26.4564 6.68763 26.4202 6.70549 26.384L7.99118 25.08L9.65188 26.7462L6.79477 26.5651ZM10.0804 24.8264C9.95545 24.8989 9.88402 25.0257 9.91973 25.1705L10.1876 26.3659C10.2054 26.4383 10.1697 26.5289 10.1162 26.5651C10.0626 26.6194 9.9733 26.6194 9.91973 26.5651L8.25904 24.8264L13.3483 19.6466L15.8125 19.1033L16.9911 20.2986C14.884 22.0735 12.5626 23.5949 10.0804 24.7902V24.8264ZM17.2411 20.1175L16.1161 18.9765L22.4732 13.3077C22.5267 13.2534 22.5981 13.1991 22.6339 13.1266C22.4196 14.9558 19.866 17.582 17.2411 20.1175ZM22.1874 11.2431C21.241 10.2469 21.2767 8.65316 22.2589 7.69327C23.1517 6.82393 24.5446 6.7696 25.5088 7.54838L23.3303 9.75794C23.2767 9.83038 23.2767 9.92094 23.3303 9.99338L25.0267 11.7139C24.0624 12.1848 22.9196 11.9856 22.1696 11.2249L22.1874 11.2431ZM25.6874 11.2431C25.5624 11.3517 25.4553 11.4604 25.3124 11.5509L23.6874 9.90283L25.7588 7.80193C26.6517 8.76182 26.6338 10.2832 25.6874 11.2431Z" fill="#D7D7D7"/>
</svg>
