<svg width="255" height="34" viewBox="0 0 255 34" fill="none" xmlns="http://www.w3.org/2000/svg">
<path d="M28.2084 6.96641L22.2222 4.04284C21.523 3.70262 20.6987 3.84678 20.153 4.40036L8.68087 15.0163L3.68386 11.1701C3.2177 10.8068 2.56394 10.8414 2.13758 11.2393L0.534441 12.7155C0.00574711 13.1999 0.00574712 14.0476 0.528756 14.5319L4.86632 18.5453L0.528756 22.5588C0.00574712 23.0431 0.00574711 23.8908 0.534441 24.3752L2.13758 25.8571C2.57531 26.255 3.22339 26.2839 3.68386 25.9263L8.68087 22.0802L20.153 32.6961C20.693 33.2497 21.523 33.3938 22.2166 33.0536L28.2084 30.1301C28.8394 29.8244 29.2374 29.1786 29.2374 28.4693V8.62713C29.2431 7.91786 28.8394 7.27202 28.2084 6.96641ZM21.9721 25.2517L13.2629 18.5453L21.9721 11.839V25.2517Z" fill="#D7D7D7"/>
<path d="M45.4883 24.9174L50.5156 10.4447H52.9648L46.6484 27.5072H44.9023L45.4883 24.9174ZM40.7891 10.4447L45.7695 24.9174L46.3906 27.5072H44.6445L38.3398 10.4447H40.7891ZM56.2811 14.8275V27.5072H54.1014V14.8275H56.2811ZM53.9373 11.4642C53.9373 11.1127 54.0428 10.8158 54.2537 10.5736C54.4725 10.3314 54.7928 10.2103 55.2147 10.2103C55.6287 10.2103 55.9451 10.3314 56.1639 10.5736C56.3904 10.8158 56.5037 11.1127 56.5037 11.4642C56.5037 11.8002 56.3904 12.0892 56.1639 12.3314C55.9451 12.5658 55.6287 12.683 55.2147 12.683C54.7928 12.683 54.4725 12.5658 54.2537 12.3314C54.0428 12.0892 53.9373 11.8002 53.9373 11.4642ZM66.1363 24.1439C66.1363 23.8314 66.066 23.5424 65.9254 23.2767C65.7926 23.0033 65.5153 22.7572 65.0934 22.5385C64.6793 22.3119 64.0543 22.1166 63.2184 21.9525C62.5153 21.8041 61.8785 21.6283 61.3082 21.4252C60.7457 21.222 60.2653 20.976 59.8668 20.6869C59.4762 20.3978 59.1754 20.058 58.9645 19.6674C58.7535 19.2767 58.6481 18.8197 58.6481 18.2963C58.6481 17.7963 58.7574 17.3236 58.9762 16.8783C59.2028 16.433 59.5192 16.0385 59.9254 15.6947C60.3395 15.351 60.8356 15.0814 61.4137 14.8861C61.9918 14.6908 62.6363 14.5931 63.3473 14.5931C64.3629 14.5931 65.2301 14.7728 65.9488 15.1322C66.6676 15.4916 67.2184 15.972 67.6012 16.5736C67.984 17.1674 68.1754 17.8275 68.1754 18.5541H66.0074C66.0074 18.2025 65.902 17.8627 65.691 17.5345C65.4879 17.1986 65.1871 16.9213 64.7887 16.7025C64.3981 16.4838 63.9176 16.3744 63.3473 16.3744C62.7457 16.3744 62.2574 16.4681 61.8824 16.6556C61.5153 16.8353 61.2457 17.0658 61.0738 17.347C60.9098 17.6283 60.8278 17.9252 60.8278 18.2377C60.8278 18.472 60.8668 18.683 60.9449 18.8705C61.0309 19.0502 61.1793 19.2181 61.3903 19.3744C61.6012 19.5228 61.8981 19.6635 62.2809 19.7963C62.6637 19.9291 63.152 20.0619 63.7457 20.1947C64.7848 20.4291 65.6403 20.7103 66.3121 21.0385C66.984 21.3666 67.484 21.7689 67.8121 22.2455C68.1403 22.722 68.3043 23.3002 68.3043 23.9799C68.3043 24.5345 68.1871 25.0424 67.9528 25.5033C67.7262 25.9642 67.3942 26.3627 66.9567 26.6986C66.527 27.0267 66.0113 27.2845 65.4098 27.472C64.816 27.6517 64.1481 27.7416 63.4059 27.7416C62.2887 27.7416 61.3434 27.5424 60.5699 27.1439C59.7965 26.7455 59.2106 26.2299 58.8121 25.597C58.4137 24.9642 58.2145 24.2963 58.2145 23.5931H60.3942C60.4254 24.1869 60.5973 24.6595 60.9098 25.0111C61.2223 25.3549 61.6051 25.601 62.0582 25.7494C62.5113 25.89 62.9606 25.9603 63.4059 25.9603C63.9996 25.9603 64.4957 25.8822 64.8942 25.726C65.3004 25.5697 65.609 25.3549 65.8199 25.0814C66.0309 24.808 66.1363 24.4955 66.1363 24.1439ZM77.9018 24.5775V14.8275H80.0815V27.5072H78.0072L77.9018 24.5775ZM78.3119 21.9056L79.2143 21.8822C79.2143 22.726 79.1244 23.5072 78.9447 24.226C78.7729 24.9369 78.4916 25.5541 78.101 26.0775C77.7104 26.601 77.1987 27.0111 76.5658 27.308C75.933 27.597 75.1635 27.7416 74.2572 27.7416C73.6401 27.7416 73.0737 27.6517 72.558 27.472C72.0502 27.2924 71.6127 27.015 71.2455 26.64C70.8783 26.265 70.5932 25.7767 70.3901 25.1752C70.1947 24.5736 70.0971 23.851 70.0971 23.0072V14.8275H72.2651V23.0306C72.2651 23.601 72.3276 24.0736 72.4526 24.4486C72.5854 24.8158 72.7612 25.1088 72.9799 25.3275C73.2065 25.5385 73.4565 25.6869 73.7299 25.7728C74.0112 25.8588 74.3002 25.9017 74.5971 25.9017C75.519 25.9017 76.2494 25.726 76.7885 25.3744C77.3276 25.015 77.7143 24.5345 77.9487 23.933C78.1908 23.3236 78.3119 22.6478 78.3119 21.9056ZM89.8547 25.3392V18.8119C89.8547 18.3119 89.7532 17.8783 89.55 17.5111C89.3547 17.1361 89.0578 16.847 88.6594 16.6439C88.261 16.4408 87.7688 16.3392 87.1828 16.3392C86.636 16.3392 86.1555 16.433 85.7414 16.6205C85.3352 16.808 85.0149 17.0541 84.7805 17.3588C84.5539 17.6635 84.4407 17.9916 84.4407 18.3431H82.2727C82.2727 17.89 82.3899 17.4408 82.6243 16.9955C82.8586 16.5502 83.1946 16.1478 83.6321 15.7885C84.0774 15.4213 84.6086 15.1322 85.2258 14.9213C85.8508 14.7025 86.5461 14.5931 87.3118 14.5931C88.2336 14.5931 89.0461 14.7494 89.7493 15.0619C90.4602 15.3744 91.0149 15.847 91.4133 16.4799C91.8196 17.1049 92.0227 17.89 92.0227 18.8353V24.7416C92.0227 25.1635 92.0578 25.6127 92.1282 26.0892C92.2063 26.5658 92.3196 26.976 92.468 27.3197V27.5072H90.2063C90.0969 27.2572 90.011 26.9252 89.9485 26.5111C89.886 26.0892 89.8547 25.6986 89.8547 25.3392ZM90.2297 19.8197L90.2532 21.3431H88.0618C87.4446 21.3431 86.8938 21.3939 86.4094 21.4955C85.925 21.5892 85.5188 21.7338 85.1907 21.9291C84.8625 22.1244 84.6125 22.3705 84.4407 22.6674C84.2688 22.9564 84.1828 23.2963 84.1828 23.6869C84.1828 24.0853 84.2727 24.4486 84.4524 24.7767C84.6321 25.1049 84.9016 25.3666 85.261 25.5619C85.6282 25.7494 86.0774 25.8431 86.6086 25.8431C87.2727 25.8431 87.8586 25.7025 88.3664 25.4213C88.8743 25.14 89.2766 24.7963 89.5735 24.39C89.8782 23.9838 90.0422 23.5892 90.0657 23.2064L90.9914 24.2494C90.9368 24.5775 90.7883 24.9408 90.5461 25.3392C90.3039 25.7377 89.9797 26.1205 89.5735 26.4877C89.175 26.847 88.6985 27.1478 88.1438 27.39C87.5969 27.6244 86.9797 27.7416 86.2922 27.7416C85.4328 27.7416 84.6789 27.5736 84.0305 27.2377C83.3899 26.9017 82.8899 26.4525 82.5305 25.89C82.1789 25.3197 82.0032 24.683 82.0032 23.9799C82.0032 23.3002 82.136 22.7025 82.4016 22.1869C82.6672 21.6635 83.05 21.2299 83.55 20.8861C84.05 20.5345 84.6516 20.2689 85.3547 20.0892C86.0578 19.9095 86.843 19.8197 87.7102 19.8197H90.2297ZM96.7803 9.5072V27.5072H94.6006V9.5072H96.7803ZM113.62 23.1947C113.62 22.7963 113.557 22.4447 113.432 22.14C113.315 21.8275 113.104 21.5463 112.799 21.2963C112.503 21.0463 112.089 20.808 111.557 20.5814C111.034 20.3549 110.37 20.1244 109.565 19.89C108.721 19.64 107.96 19.3627 107.28 19.058C106.6 18.7455 106.018 18.39 105.534 17.9916C105.049 17.5931 104.678 17.1361 104.421 16.6205C104.163 16.1049 104.034 15.515 104.034 14.851C104.034 14.1869 104.171 13.5736 104.444 13.0111C104.717 12.4486 105.108 11.9603 105.616 11.5463C106.132 11.1244 106.745 10.7963 107.456 10.5619C108.167 10.3275 108.96 10.2103 109.835 10.2103C111.116 10.2103 112.202 10.4564 113.092 10.9486C113.991 11.433 114.674 12.0697 115.143 12.8588C115.612 13.64 115.846 14.476 115.846 15.3666H113.596C113.596 14.726 113.46 14.1595 113.186 13.6674C112.913 13.1674 112.499 12.7767 111.944 12.4955C111.389 12.2064 110.686 12.0619 109.835 12.0619C109.03 12.0619 108.366 12.183 107.842 12.4252C107.319 12.6674 106.928 12.9955 106.671 13.4095C106.421 13.8236 106.296 14.2963 106.296 14.8275C106.296 15.1869 106.37 15.515 106.518 15.8119C106.674 16.101 106.913 16.3705 107.233 16.6205C107.561 16.8705 107.975 17.101 108.475 17.3119C108.983 17.5228 109.589 17.726 110.292 17.9213C111.26 18.1947 112.096 18.4994 112.799 18.8353C113.503 19.1713 114.081 19.5502 114.534 19.972C114.995 20.3861 115.335 20.8588 115.553 21.39C115.78 21.9135 115.893 22.5072 115.893 23.1713C115.893 23.8666 115.753 24.4955 115.471 25.058C115.19 25.6205 114.788 26.101 114.264 26.4994C113.741 26.8978 113.112 27.2064 112.378 27.4252C111.651 27.6361 110.839 27.7416 109.94 27.7416C109.151 27.7416 108.374 27.6322 107.608 27.4135C106.85 27.1947 106.159 26.8666 105.534 26.4291C104.917 25.9916 104.421 25.4525 104.046 24.8119C103.678 24.1635 103.495 23.4135 103.495 22.5619H105.745C105.745 23.1478 105.858 23.6517 106.085 24.0736C106.311 24.4877 106.62 24.8314 107.01 25.1049C107.409 25.3783 107.858 25.5814 108.358 25.7142C108.866 25.8392 109.393 25.9017 109.94 25.9017C110.729 25.9017 111.397 25.7924 111.944 25.5736C112.491 25.3549 112.905 25.0424 113.186 24.6361C113.475 24.2299 113.62 23.7494 113.62 23.1947ZM122.749 14.8275V16.4916H115.893V14.8275H122.749ZM118.213 11.7455H120.381V24.3666C120.381 24.7963 120.448 25.1205 120.581 25.3392C120.713 25.558 120.885 25.7025 121.096 25.7728C121.307 25.8431 121.534 25.8783 121.776 25.8783C121.956 25.8783 122.143 25.8627 122.338 25.8314C122.541 25.7924 122.694 25.7611 122.795 25.7377L122.807 27.5072C122.635 27.5619 122.409 27.6127 122.127 27.6595C121.854 27.7142 121.522 27.7416 121.131 27.7416C120.6 27.7416 120.112 27.6361 119.666 27.4252C119.221 27.2142 118.866 26.8627 118.6 26.3705C118.342 25.8705 118.213 25.1986 118.213 24.3549V11.7455ZM132.041 24.5775V14.8275H134.221V27.5072H132.147L132.041 24.5775ZM132.451 21.9056L133.354 21.8822C133.354 22.726 133.264 23.5072 133.084 24.226C132.912 24.9369 132.631 25.5541 132.241 26.0775C131.85 26.601 131.338 27.0111 130.705 27.308C130.073 27.597 129.303 27.7416 128.397 27.7416C127.78 27.7416 127.213 27.6517 126.698 27.472C126.19 27.2924 125.752 27.015 125.385 26.64C125.018 26.265 124.733 25.7767 124.53 25.1752C124.334 24.5736 124.237 23.851 124.237 23.0072V14.8275H126.405V23.0306C126.405 23.601 126.467 24.0736 126.592 24.4486C126.725 24.8158 126.901 25.1088 127.119 25.3275C127.346 25.5385 127.596 25.6869 127.869 25.7728C128.151 25.8588 128.44 25.9017 128.737 25.9017C129.658 25.9017 130.389 25.726 130.928 25.3744C131.467 25.015 131.854 24.5345 132.088 23.933C132.33 23.3236 132.451 22.6478 132.451 21.9056ZM144.51 25.0463V9.5072H146.69V27.5072H144.697L144.51 25.0463ZM135.979 21.308V21.0619C135.979 20.0931 136.096 19.2142 136.33 18.4252C136.572 17.6283 136.912 16.9447 137.35 16.3744C137.795 15.8041 138.322 15.3666 138.932 15.0619C139.549 14.7494 140.236 14.5931 140.994 14.5931C141.791 14.5931 142.486 14.7338 143.08 15.015C143.682 15.2885 144.19 15.6908 144.604 16.222C145.025 16.7455 145.357 17.3783 145.6 18.1205C145.842 18.8627 146.01 19.7025 146.104 20.64V21.7181C146.018 22.6478 145.85 23.4838 145.6 24.226C145.357 24.9681 145.025 25.601 144.604 26.1244C144.19 26.6478 143.682 27.0502 143.08 27.3314C142.479 27.6049 141.775 27.7416 140.971 27.7416C140.229 27.7416 139.549 27.5814 138.932 27.2611C138.322 26.9408 137.795 26.4916 137.35 25.9135C136.912 25.3353 136.572 24.6556 136.33 23.8744C136.096 23.0853 135.979 22.2299 135.979 21.308ZM138.158 21.0619V21.308C138.158 21.9408 138.221 22.5345 138.346 23.0892C138.479 23.6439 138.682 24.1322 138.955 24.5541C139.229 24.976 139.576 25.308 139.998 25.5502C140.42 25.7845 140.924 25.9017 141.51 25.9017C142.229 25.9017 142.818 25.7494 143.279 25.4447C143.748 25.14 144.123 24.7377 144.404 24.2377C144.686 23.7377 144.904 23.1947 145.061 22.6088V19.7845C144.967 19.3549 144.83 18.9408 144.65 18.5424C144.479 18.1361 144.252 17.7767 143.971 17.4642C143.697 17.1439 143.357 16.89 142.951 16.7025C142.553 16.515 142.08 16.4213 141.533 16.4213C140.94 16.4213 140.428 16.5463 139.998 16.7963C139.576 17.0385 139.229 17.3744 138.955 17.8041C138.682 18.226 138.479 18.7181 138.346 19.2806C138.221 19.8353 138.158 20.4291 138.158 21.0619ZM151.412 14.8275V27.5072H149.232V14.8275H151.412ZM149.068 11.4642C149.068 11.1127 149.174 10.8158 149.385 10.5736C149.603 10.3314 149.924 10.2103 150.346 10.2103C150.76 10.2103 151.076 10.3314 151.295 10.5736C151.521 10.8158 151.635 11.1127 151.635 11.4642C151.635 11.8002 151.521 12.0892 151.295 12.3314C151.076 12.5658 150.76 12.683 150.346 12.683C149.924 12.683 149.603 12.5658 149.385 12.3314C149.174 12.0892 149.068 11.8002 149.068 11.4642ZM153.31 21.308V21.0385C153.31 20.1244 153.443 19.2767 153.709 18.4955C153.974 17.7064 154.357 17.0228 154.857 16.4447C155.357 15.8588 155.963 15.4056 156.674 15.0853C157.384 14.7572 158.181 14.5931 159.064 14.5931C159.955 14.5931 160.756 14.7572 161.466 15.0853C162.185 15.4056 162.795 15.8588 163.295 16.4447C163.802 17.0228 164.189 17.7064 164.455 18.4955C164.72 19.2767 164.853 20.1244 164.853 21.0385V21.308C164.853 22.222 164.72 23.0697 164.455 23.851C164.189 24.6322 163.802 25.3158 163.295 25.9017C162.795 26.4799 162.189 26.933 161.478 27.2611C160.775 27.5814 159.978 27.7416 159.088 27.7416C158.197 27.7416 157.396 27.5814 156.685 27.2611C155.974 26.933 155.365 26.4799 154.857 25.9017C154.357 25.3158 153.974 24.6322 153.709 23.851C153.443 23.0697 153.31 22.222 153.31 21.308ZM155.478 21.0385V21.308C155.478 21.9408 155.552 22.5385 155.701 23.101C155.849 23.6556 156.072 24.1478 156.369 24.5775C156.674 25.0072 157.052 25.347 157.506 25.597C157.959 25.8392 158.486 25.9603 159.088 25.9603C159.681 25.9603 160.201 25.8392 160.646 25.597C161.099 25.347 161.474 25.0072 161.771 24.5775C162.068 24.1478 162.291 23.6556 162.439 23.101C162.595 22.5385 162.674 21.9408 162.674 21.308V21.0385C162.674 20.4135 162.595 19.8236 162.439 19.2689C162.291 18.7064 162.064 18.2103 161.759 17.7806C161.463 17.3431 161.088 16.9994 160.634 16.7494C160.189 16.4994 159.666 16.3744 159.064 16.3744C158.47 16.3744 157.947 16.4994 157.494 16.7494C157.049 16.9994 156.674 17.3431 156.369 17.7806C156.072 18.2103 155.849 18.7064 155.701 19.2689C155.552 19.8236 155.478 20.4135 155.478 21.0385ZM182.138 22.0814H184.388C184.271 23.1595 183.962 24.1244 183.462 24.976C182.962 25.8275 182.255 26.5033 181.341 27.0033C180.427 27.4955 179.286 27.7416 177.919 27.7416C176.919 27.7416 176.009 27.5541 175.189 27.1791C174.376 26.8041 173.677 26.2728 173.091 25.5853C172.505 24.89 172.052 24.058 171.732 23.0892C171.419 22.1127 171.263 21.0267 171.263 19.8314V18.1322C171.263 16.9369 171.419 15.8549 171.732 14.8861C172.052 13.9095 172.509 13.0736 173.103 12.3783C173.704 11.683 174.427 11.1478 175.271 10.7728C176.115 10.3978 177.064 10.2103 178.118 10.2103C179.408 10.2103 180.497 10.4525 181.388 10.9369C182.279 11.4213 182.97 12.0931 183.462 12.9525C183.962 13.8041 184.271 14.7924 184.388 15.9174H182.138C182.029 15.1205 181.826 14.4369 181.529 13.8666C181.232 13.2885 180.81 12.8431 180.263 12.5306C179.716 12.2181 179.001 12.0619 178.118 12.0619C177.361 12.0619 176.693 12.2064 176.115 12.4955C175.544 12.7845 175.064 13.1947 174.673 13.726C174.29 14.2572 174.001 14.8939 173.806 15.6361C173.611 16.3783 173.513 17.2025 173.513 18.1088V19.8314C173.513 20.6674 173.599 21.4525 173.771 22.1869C173.951 22.9213 174.22 23.5658 174.579 24.1205C174.939 24.6752 175.396 25.1127 175.951 25.433C176.505 25.7455 177.161 25.9017 177.919 25.9017C178.88 25.9017 179.646 25.7494 180.216 25.4447C180.786 25.14 181.216 24.7025 181.505 24.1322C181.802 23.5619 182.013 22.8783 182.138 22.0814ZM185.56 21.308V21.0385C185.56 20.1244 185.693 19.2767 185.958 18.4955C186.224 17.7064 186.607 17.0228 187.107 16.4447C187.607 15.8588 188.212 15.4056 188.923 15.0853C189.634 14.7572 190.431 14.5931 191.314 14.5931C192.204 14.5931 193.005 14.7572 193.716 15.0853C194.435 15.4056 195.044 15.8588 195.544 16.4447C196.052 17.0228 196.439 17.7064 196.704 18.4955C196.97 19.2767 197.103 20.1244 197.103 21.0385V21.308C197.103 22.222 196.97 23.0697 196.704 23.851C196.439 24.6322 196.052 25.3158 195.544 25.9017C195.044 26.4799 194.439 26.933 193.728 27.2611C193.025 27.5814 192.228 27.7416 191.337 27.7416C190.446 27.7416 189.646 27.5814 188.935 27.2611C188.224 26.933 187.614 26.4799 187.107 25.9017C186.607 25.3158 186.224 24.6322 185.958 23.851C185.693 23.0697 185.56 22.222 185.56 21.308ZM187.728 21.0385V21.308C187.728 21.9408 187.802 22.5385 187.95 23.101C188.099 23.6556 188.321 24.1478 188.618 24.5775C188.923 25.0072 189.302 25.347 189.755 25.597C190.208 25.8392 190.735 25.9603 191.337 25.9603C191.931 25.9603 192.45 25.8392 192.896 25.597C193.349 25.347 193.724 25.0072 194.021 24.5775C194.318 24.1478 194.54 23.6556 194.689 23.101C194.845 22.5385 194.923 21.9408 194.923 21.308V21.0385C194.923 20.4135 194.845 19.8236 194.689 19.2689C194.54 18.7064 194.314 18.2103 194.009 17.7806C193.712 17.3431 193.337 16.9994 192.884 16.7494C192.439 16.4994 191.915 16.3744 191.314 16.3744C190.72 16.3744 190.196 16.4994 189.743 16.7494C189.298 16.9994 188.923 17.3431 188.618 17.7806C188.321 18.2103 188.099 18.7064 187.95 19.2689C187.802 19.8236 187.728 20.4135 187.728 21.0385ZM206.806 25.0463V9.5072H208.985V27.5072H206.993L206.806 25.0463ZM198.274 21.308V21.0619C198.274 20.0931 198.392 19.2142 198.626 18.4252C198.868 17.6283 199.208 16.9447 199.645 16.3744C200.091 15.8041 200.618 15.3666 201.227 15.0619C201.845 14.7494 202.532 14.5931 203.29 14.5931C204.087 14.5931 204.782 14.7338 205.376 15.015C205.977 15.2885 206.485 15.6908 206.899 16.222C207.321 16.7455 207.653 17.3783 207.895 18.1205C208.138 18.8627 208.306 19.7025 208.399 20.64V21.7181C208.313 22.6478 208.145 23.4838 207.895 24.226C207.653 24.9681 207.321 25.601 206.899 26.1244C206.485 26.6478 205.977 27.0502 205.376 27.3314C204.774 27.6049 204.071 27.7416 203.267 27.7416C202.524 27.7416 201.845 27.5814 201.227 27.2611C200.618 26.9408 200.091 26.4916 199.645 25.9135C199.208 25.3353 198.868 24.6556 198.626 23.8744C198.392 23.0853 198.274 22.2299 198.274 21.308ZM200.454 21.0619V21.308C200.454 21.9408 200.517 22.5345 200.642 23.0892C200.774 23.6439 200.977 24.1322 201.251 24.5541C201.524 24.976 201.872 25.308 202.294 25.5502C202.716 25.7845 203.22 25.9017 203.806 25.9017C204.524 25.9017 205.114 25.7494 205.575 25.4447C206.044 25.14 206.419 24.7377 206.7 24.2377C206.981 23.7377 207.2 23.1947 207.356 22.6088V19.7845C207.263 19.3549 207.126 18.9408 206.946 18.5424C206.774 18.1361 206.548 17.7767 206.267 17.4642C205.993 17.1439 205.653 16.89 205.247 16.7025C204.849 16.515 204.376 16.4213 203.829 16.4213C203.235 16.4213 202.724 16.5463 202.294 16.7963C201.872 17.0385 201.524 17.3744 201.251 17.8041C200.977 18.226 200.774 18.7181 200.642 19.2806C200.517 19.8353 200.454 20.4291 200.454 21.0619ZM216.614 27.7416C215.731 27.7416 214.93 27.5931 214.212 27.2963C213.501 26.9916 212.887 26.5658 212.372 26.0189C211.864 25.472 211.473 24.8236 211.2 24.0736C210.926 23.3236 210.79 22.5033 210.79 21.6127V21.1205C210.79 20.0892 210.942 19.1713 211.247 18.3666C211.551 17.5541 211.966 16.8666 212.489 16.3041C213.012 15.7416 213.606 15.3158 214.27 15.0267C214.934 14.7377 215.622 14.5931 216.333 14.5931C217.239 14.5931 218.02 14.7494 218.676 15.0619C219.341 15.3744 219.884 15.8119 220.305 16.3744C220.727 16.9291 221.04 17.5853 221.243 18.3431C221.446 19.0931 221.548 19.9135 221.548 20.8041V21.7767H212.079V20.0072H219.38V19.8431C219.348 19.2806 219.231 18.7338 219.028 18.2025C218.833 17.6713 218.52 17.2338 218.091 16.89C217.661 16.5463 217.075 16.3744 216.333 16.3744C215.841 16.3744 215.387 16.4799 214.973 16.6908C214.559 16.8939 214.204 17.1986 213.907 17.6049C213.61 18.0111 213.38 18.5072 213.216 19.0931C213.051 19.6791 212.969 20.3549 212.969 21.1205V21.6127C212.969 22.2142 213.051 22.7806 213.216 23.3119C213.387 23.8353 213.634 24.2963 213.954 24.6947C214.282 25.0931 214.676 25.4056 215.137 25.6322C215.606 25.8588 216.137 25.972 216.731 25.972C217.497 25.972 218.145 25.8158 218.676 25.5033C219.208 25.1908 219.673 24.7728 220.071 24.2494L221.384 25.2924C221.11 25.7064 220.762 26.101 220.341 26.476C219.919 26.851 219.399 27.1556 218.782 27.39C218.173 27.6244 217.45 27.7416 216.614 27.7416Z" fill="white"/>
</svg>
