<svg width="33" height="37" viewBox="0 0 33 37" fill="none" xmlns="http://www.w3.org/2000/svg">
<path d="M0 0.668075C10.7533 0.667137 21.5057 0.6662 32.259 0.668075C31.6672 7.31026 31.0848 13.9525 30.4684 20.5928C30.1021 24.8368 29.7245 29.0809 29.3262 33.3221C27.0315 33.9259 24.7594 34.614 22.4657 35.2206C20.3588 35.8346 18.235 36.3906 16.1271 37H16.0648C14.059 36.4075 12.0333 35.8862 10.0274 35.2937C7.66004 34.66 5.31342 33.9531 2.94508 33.3221C2.63641 30.1431 2.35795 26.9621 2.08327 23.7812C1.56505 17.904 1.00152 12.0306 0.503118 6.15245C0.330378 4.38339 0.206722 2.6087 0 0.843387V0.668075ZM16.18 3.28839C16.1574 4.56433 16.197 5.8412 16.1574 7.1162C12.4685 7.10308 8.7786 7.11339 5.0897 7.11714C5.15295 8.35557 5.32002 9.58557 5.49182 10.8137C8.92397 10.9403 12.3608 10.809 15.793 10.9112C12.7903 12.249 9.75086 13.509 6.73498 14.8187C6.47634 14.9331 6.19977 15.0193 5.96851 15.1862C5.99399 16.5465 6.21487 17.8993 6.3121 19.2568C8.14145 19.2503 9.96985 19.2212 11.7992 19.2184C13.2651 19.2109 14.732 19.24 16.1979 19.2081C16.1281 21.445 16.2197 23.6846 16.1507 25.9215C15.1643 25.7762 14.1902 25.5578 13.2076 25.3843C12.4326 25.2165 11.6387 25.1293 10.8751 24.909C10.7665 23.8356 10.691 22.7584 10.5947 21.684C10.3739 21.6165 10.1398 21.6231 9.91133 21.6193C8.80315 21.6259 7.69402 21.6156 6.5849 21.6325C6.69345 23.6978 6.88035 25.7603 7.19846 27.8059C8.29153 28.089 9.3865 28.3665 10.4777 28.6618C12.1494 29.1137 13.8419 29.4896 15.5164 29.934C15.7156 29.9762 15.9166 30.0493 16.1234 30.0325C16.2348 31.3909 16.1489 32.7578 16.1696 34.1199C16.5557 34.0581 16.9352 33.9634 17.308 33.849C20.4777 32.994 23.6437 32.1231 26.8116 31.2596C26.9692 30.0221 27.0428 28.7762 27.1674 27.5359C27.4969 23.7653 27.8291 19.9946 28.1746 16.2249C28.5796 11.9124 28.9297 7.59526 29.3375 3.28276C24.9511 3.28651 20.5655 3.27433 16.18 3.28839Z" fill="#D7D7D7"/>
<path d="M16.18 3.28847C20.5655 3.27441 24.951 3.2866 29.3375 3.28285C28.9297 7.59535 28.5795 11.9125 28.1746 16.225C27.8291 19.9947 27.4968 23.7653 27.1674 27.536C27.0428 28.7763 26.9692 30.0222 26.8115 31.2597C23.6437 32.1232 20.4777 32.9941 17.308 33.8491C16.9351 33.9635 16.5557 34.0582 16.1696 34.12C16.1488 32.7579 16.2347 31.391 16.1234 30.0325C16.1517 30.0269 16.2093 30.0157 16.2376 30.01C19.1855 29.275 22.1136 28.466 25.0549 27.7047C25.4268 23.561 25.8393 19.4191 26.1008 15.2669C23.5993 15.28 21.097 15.2725 18.5955 15.2828C18.2312 15.2847 17.8668 15.2828 17.5043 15.2566C18.8504 14.5685 20.2663 14.0228 21.6482 13.4088C22.9744 12.8116 24.3167 12.2519 25.6477 11.666C25.9044 11.5488 26.1782 11.4513 26.4038 11.2769C26.4925 10.9535 26.4878 10.615 26.5227 10.2841C26.5992 9.2341 26.7351 8.18972 26.786 7.13878C23.2435 7.11066 19.7009 7.13504 16.1573 7.11629C16.197 5.84129 16.1573 4.56441 16.18 3.28847Z" fill="#D7D7D7"/>
<path d="M16.1979 19.208C17.9083 19.179 19.6197 19.2249 21.331 19.2137C21.2357 20.9509 21.0903 22.6852 20.9997 24.4224C19.951 24.7627 18.8863 25.0505 17.829 25.3655C17.2655 25.5362 16.6869 25.6712 16.1507 25.9215C16.2196 23.6846 16.1281 21.4449 16.1979 19.208Z" fill="#D7D7D7"/>
</svg>
