<svg width="34" height="34" viewBox="0 0 34 34" fill="none" xmlns="http://www.w3.org/2000/svg">
<g clip-path="url(#clip0_550_504)">
<path d="M28.9 0H5.1C2.28335 0 0 2.28335 0 5.1V28.9C0 31.7167 2.28335 34 5.1 34H28.9C31.7167 34 34 31.7167 34 28.9V5.1C34 2.28335 31.7167 0 28.9 0Z" fill="#D7D7D7"/>
<path d="M17.1328 5.84369C10.7578 8.0351 6.64058 12.4843 7.03902 15.1406C7.43745 17.7968 11.4218 19.9218 13.2148 21.3163C10.8906 22.5117 7.9687 24.3046 8.03511 26.6288C8.16792 29.8163 11.621 28.8203 13.082 27.8906C14.5429 26.9609 16.0039 24.371 15.0742 21.6484C17.1328 21.1171 18.9257 21.7812 19.457 22.1796C21.5156 23.6406 20.4531 25.3007 19.7226 25.5663C18.9921 25.832 19.457 25.9648 19.9218 25.832C20.3867 25.6992 21.3828 25.0351 21.3828 23.9062C21.3828 21.0507 18.3281 19.7226 14.5429 20.7187C12.3515 18.3945 9.36323 17.332 9.49605 14.8085C9.56245 13.8788 9.89448 11.4882 15.8046 8.49994C21.7148 5.51166 25.8984 6.70697 25.3671 9.42963C24.5703 13.5468 17.3984 16.3359 14.875 13.9453C14.7421 13.6796 14.2773 13.4804 14.5429 14.2109C15.871 17.5312 26.6289 16.0038 27.0937 8.96479C27.2265 5.24604 21.8476 4.24994 17.1328 5.84369ZM11.4218 27.0937C9.76167 27.6249 9.82808 26.5624 9.89448 26.164C10.0937 25.0351 11.0234 23.6406 13.8125 22.246C14.6093 24.7695 12.8164 26.6953 11.4218 27.0937Z" fill="#2F2F2F"/>
</g>
<defs>
<clipPath id="clip0_550_504">
<rect width="34" height="34" fill="white"/>
</clipPath>
</defs>
</svg>
