<svg width="34" height="33" viewBox="0 0 34 33" fill="none" xmlns="http://www.w3.org/2000/svg">
<path d="M0 0V33H34V0H0ZM18.2143 25.6339C18.2143 28.8463 16.2593 30.4123 13.4292 30.4123C10.8732 30.4123 9.38947 29.1277 8.63661 27.5771L11.2382 26.0486C11.7399 26.9127 12.1208 27.6434 13.216 27.6434C14.1267 27.6434 14.875 27.2449 14.875 25.6943V15.3214H18.2143V25.6339ZM25.7542 30.3386C22.7876 30.3386 20.8705 29.0393 19.9348 27.2449L22.5402 25.7813C23.2232 26.867 24.115 27.5904 25.6897 27.5904C27.0133 27.5904 27.7821 27.0217 27.7821 26.1356C27.7821 25.0726 26.9905 24.6962 25.5296 24.0731L24.7312 23.7401C22.4256 22.7884 20.8971 21.5922 20.8971 19.0663C20.8971 16.7409 22.7223 15.0423 25.5751 15.0423C27.6068 15.0423 29.0662 15.6551 30.1173 17.4495L27.625 19.0045C27.0771 18.052 26.4866 17.6786 25.5713 17.6786C24.6356 17.6786 24.0421 18.2546 24.0421 19.0045C24.0421 19.9348 24.6356 20.3112 26.0047 20.8872L26.8031 21.2194C29.5193 22.3494 31.0485 23.5029 31.0485 26.0928C31.0493 28.8846 28.79 30.3386 25.7542 30.3386Z" fill="#D7D7D7"/>
</svg>
