<svg width="133" height="34" viewBox="0 0 133 34" fill="none" xmlns="http://www.w3.org/2000/svg">
<path fill-rule="evenodd" clip-rule="evenodd" d="M17 1C7.60761 1 0 8.41202 0 17.5629C0 24.888 4.86352 31.0828 11.6234 33.2782C12.4711 33.4086 12.8058 32.9304 12.8058 32.4957C12.8058 32.1044 12.7835 30.8002 12.7835 29.4091C8.52231 30.1699 7.40682 28.3875 7.07218 27.4746C6.87139 26.9964 6.04593 25.5184 5.33202 25.1271C4.72966 24.8228 3.88189 24.0403 5.30971 24.0186C6.64829 23.9968 7.60761 25.2141 7.91995 25.714C9.45932 28.2136 11.8911 27.5181 12.8727 27.0834C13.0289 26.0183 13.4751 25.2793 13.9659 24.8663C10.1955 24.4533 6.22441 23.0187 6.22441 16.6935C6.22441 14.8894 6.8937 13.3896 7.96457 12.2376C7.78609 11.8246 7.20604 10.1292 8.14304 7.84688C8.14304 7.84688 9.57086 7.41216 12.8281 9.5423C14.189 9.17279 15.6391 8.97716 17.0669 8.97716C18.5171 8.97716 19.9449 9.17279 21.3058 9.5423C24.563 7.39043 25.9685 7.84688 25.9685 7.84688C26.9055 10.1292 26.3031 11.8246 26.147 12.2376C27.2402 13.3896 27.8871 14.8677 27.8871 16.6935C27.8871 23.0404 23.916 24.4533 20.1234 24.8663C20.748 25.3879 21.2835 26.3661 21.2835 27.9311C21.2835 30.1482 21.2612 31.9305 21.2612 32.4739C21.2612 32.9086 21.5735 33.4303 22.4213 33.2564C29.3373 30.9741 34 24.6489 34 17.5412C34 8.41202 26.3924 1 17 1Z" fill="#D7D7D7"/>
<path d="M86.6112 26.6621H86.5716C86.5914 26.6621 86.5914 26.6819 86.6112 26.6819H86.631L86.6112 26.6621ZM86.6112 26.6819C86.4528 26.6819 86.037 26.7611 85.6014 26.7611C84.2352 26.7611 83.76 26.1275 83.76 25.2959V19.7914H86.5518C86.7102 19.7914 86.8291 19.6528 86.8291 19.4548V16.4649C86.8291 16.3065 86.6904 16.1679 86.5518 16.1679H83.76V12.4454C83.76 12.3068 83.661 12.2276 83.5026 12.2276H79.7009C79.5425 12.2276 79.4633 12.3266 79.4633 12.4454V16.2669C79.4633 16.2669 77.5427 16.7421 77.4239 16.7619C77.2853 16.8015 77.2061 16.9203 77.2061 17.0589V19.4548C77.2061 19.6528 77.3447 19.7914 77.5031 19.7914H79.4435V25.5731C79.4435 29.8698 82.4334 30.3054 84.4728 30.3054C85.4034 30.3054 86.532 30.0084 86.7102 29.9094C86.8092 29.8698 86.8686 29.751 86.8686 29.6322V26.9987C86.8686 26.8403 86.7696 26.7215 86.6112 26.6819ZM128.311 22.8208C128.311 19.633 127.024 19.2172 125.677 19.3558C124.628 19.4152 123.777 19.9498 123.777 19.9498V26.1473C123.777 26.1473 124.628 26.7413 125.915 26.7809C127.717 26.8205 128.311 26.1671 128.311 22.8208ZM132.588 22.5436C132.588 28.5827 130.628 30.3054 127.222 30.3054C124.331 30.3054 122.787 28.8401 122.787 28.8401C122.787 28.8401 122.727 29.652 122.628 29.751C122.569 29.85 122.49 29.8896 122.371 29.8896H119.777C119.599 29.8896 119.44 29.751 119.44 29.5926L119.48 10.0496C119.48 9.89117 119.618 9.75257 119.777 9.75257H123.519C123.678 9.75257 123.816 9.89117 123.816 10.0496V16.6827C123.816 16.6827 125.262 15.7521 127.38 15.7521L127.36 15.7125C129.459 15.7125 132.588 16.5045 132.588 22.5436ZM117.242 16.1877H113.54C113.342 16.1877 113.243 16.3263 113.243 16.5243V26.0879C113.243 26.0879 112.273 26.7611 110.946 26.7611C109.639 26.7611 109.243 26.1671 109.243 24.8405V16.4847C109.243 16.3263 109.104 16.1877 108.946 16.1877H105.184C105.026 16.1877 104.887 16.3263 104.887 16.4847V25.4939C104.887 29.355 107.045 30.3252 110.015 30.3252C112.471 30.3252 114.451 28.9787 114.451 28.9787C114.451 28.9787 114.55 29.6718 114.589 29.7708C114.629 29.85 114.748 29.9292 114.866 29.9292H117.223C117.421 29.9292 117.52 29.7906 117.52 29.6322L117.559 16.4847C117.579 16.3263 117.421 16.1877 117.242 16.1877ZM75.5428 16.1679H71.8006C71.6421 16.1679 71.5035 16.3263 71.5035 16.5243V29.4342C71.5035 29.7906 71.7412 29.9094 72.0382 29.9094H75.424C75.7804 29.9094 75.8596 29.751 75.8596 29.4342V16.4649C75.8398 16.3065 75.7012 16.1679 75.5428 16.1679ZM73.6816 10.208C72.3352 10.208 71.2461 11.2772 71.2461 12.6434C71.2461 13.9899 72.3154 15.0789 73.6816 15.0789C75.0082 15.0789 76.0774 14.0097 76.0774 12.6434C76.0774 11.297 75.0082 10.208 73.6816 10.208ZM102.709 9.77237H98.9865C98.8281 9.77237 98.6895 9.91097 98.6895 10.0694V17.2569H92.8682V10.0694C92.8682 9.91097 92.7296 9.77237 92.5712 9.77237H88.8289C88.6705 9.77237 88.5319 9.91097 88.5319 10.0694V29.6124C88.5319 29.7708 88.6903 29.9094 88.8289 29.9094H92.5712C92.7296 29.9094 92.8682 29.7708 92.8682 29.6124V21.2566H98.6895L98.6499 29.6124C98.6499 29.7708 98.7885 29.9094 98.9469 29.9094H102.689C102.848 29.9094 102.986 29.7708 102.986 29.6124V10.0694C103.006 9.91097 102.867 9.77237 102.709 9.77237ZM69.5037 18.4251V28.5233C69.5037 28.5827 69.4839 28.7213 69.4047 28.7411C69.4047 28.7411 67.2069 30.3054 63.5834 30.3054C59.2075 30.3054 54 28.9391 54 19.8904C54 10.8416 58.5343 8.98036 62.9696 9.00016C66.8109 9.00016 68.3553 9.87137 68.5929 10.0298C68.6523 10.1288 68.6919 10.1882 68.6919 10.2674L67.9791 13.4156C67.9791 13.574 67.8207 13.772 67.6227 13.7126C66.9891 13.5146 66.0386 13.1384 63.8012 13.1384C61.2073 13.1384 58.4353 13.871 58.4353 19.7122C58.4353 25.5335 61.0687 26.2265 62.9696 26.2265C64.5932 26.2265 65.1674 26.0285 65.1674 26.0285V21.9892H62.5736C62.3756 21.9892 62.237 21.8506 62.237 21.6922V18.4449C62.237 18.2865 62.3756 18.1479 62.5736 18.1479H69.1671C69.3651 18.1281 69.5037 18.2667 69.5037 18.4251Z" fill="white"/>
</svg>
