<svg width="123" height="40" viewBox="0 0 123 40" fill="none" xmlns="http://www.w3.org/2000/svg">
<path d="M4.72878 34.5119L2 3H32L29.2712 34.4949L16.9752 38" fill="#D7D7D7"/>
<path d="M17 35V6H29L26.71 32.2203" fill="#D7D7D7"/>
<path d="M8 10H17V13.7054H11.9316L12.2632 17.5006H17V21.1978H8.97895M9.13684 23.0587H12.7368L12.9895 26.0214L17 27.1314V31L9.64211 28.878" fill="#2F2F2F"/>
<path d="M26 10H17V13.7083H25.6678M25.3436 17.5064H17V21.2147H21.4288L21.0097 26.0338L17 27.1447V31L24.355 28.8927" fill="#2F2F2F"/>
<path d="M49 10H54.5965V15.6174H59.755V10H65.3515V27H59.755V21.3333H54.6452V27H49M72.7486 15.6667H67.8091V10H83.3089V15.6667H78.345V27H72.7486M85.7665 10H91.6306L95.2318 15.987L98.8331 10H104.697V27H99.1007V18.5739L95.1832 24.6841L91.2656 18.5739V27H85.7665M107.471 10H113.068V21.3826H121V27H107.471" fill="white"/>
</svg>
