<svg width="34" height="34" viewBox="0 0 34 34" fill="none" xmlns="http://www.w3.org/2000/svg">
<path d="M0 0.324707V33.798H34V0.324707H0ZM18.2143 26.3263C18.2143 29.5847 16.2593 31.1732 13.4292 31.1732C10.8732 31.1732 9.38947 29.8701 8.63661 28.2973L11.2382 26.7469C11.7399 27.6233 12.1208 28.3645 13.216 28.3645C14.1267 28.3645 14.875 27.9603 14.875 26.3875V15.8659H18.2143V26.3263ZM25.7542 31.0984C22.7876 31.0984 20.8705 29.7804 19.9348 27.9603L22.5402 26.4757C23.2232 27.577 24.115 28.3107 25.6897 28.3107C27.0133 28.3107 27.7821 27.7339 27.7821 26.8351C27.7821 25.7569 26.9905 25.3751 25.5296 24.743L24.7312 24.4053C22.4256 23.4399 20.8971 22.2265 20.8971 19.6645C20.8971 17.3057 22.7223 15.5827 25.5751 15.5827C27.6068 15.5827 29.0662 16.2043 30.1173 18.0244L27.625 19.6017C27.0771 18.6356 26.4866 18.2568 25.5713 18.2568C24.6356 18.2568 24.0421 18.8411 24.0421 19.6017C24.0421 20.5454 24.6356 20.9272 26.0047 21.5115L26.8031 21.8485C29.5193 22.9946 31.0485 24.1647 31.0485 26.7917C31.0493 29.6235 28.79 31.0984 25.7542 31.0984Z" fill="#D7D7D7"/>
</svg>
