<svg width="162" height="34" viewBox="0 0 162 34" fill="none" xmlns="http://www.w3.org/2000/svg">
<path d="M58.8661 12.1103H54.7508C54.5561 12.0827 54.3615 12.1655 54.2225 12.3034C54.0834 12.4137 54 12.5791 54 12.7446V27.2229C54 27.416 54.1112 27.609 54.3059 27.6918C54.6952 27.94 55.1957 27.94 55.585 27.6918C55.7796 27.609 55.8908 27.416 55.8908 27.2229V21.6246H58.7271C59.9506 21.6798 61.174 21.2661 62.1195 20.494C63.0371 19.5563 63.5098 18.2602 63.3986 16.9364V16.7434C63.5098 15.4748 63.0927 14.1786 62.2029 13.241C61.2853 12.4137 60.0896 12.0276 58.8661 12.1103ZM61.7024 17.0743C61.758 17.9016 61.4799 18.729 60.9516 19.3633C60.3677 19.9424 59.5613 20.2182 58.7549 20.1906H55.9186V13.7374H58.7549C59.5335 13.6822 60.3121 13.9856 60.896 14.5096C61.4521 15.1439 61.7302 15.9712 61.6468 16.7985L61.7024 17.0743ZM71.1565 13.1583C70.2389 14.0959 69.7662 15.4196 69.8774 16.7434V23.2517C69.7662 24.5755 70.2389 25.8716 71.1565 26.8368C73.1864 28.3536 75.967 28.3536 77.9969 26.8368C78.9423 25.8992 79.415 24.5755 79.276 23.2517V16.7985C79.415 15.4472 78.9423 14.1235 77.9969 13.1583C75.967 11.6415 73.1586 11.6415 71.1565 13.1583ZM77.4408 23.2517C77.5242 24.1066 77.2461 24.934 76.69 25.5683C76.1339 26.1198 75.3553 26.3956 74.5767 26.3404C72.6581 26.3404 71.7405 25.2925 71.7405 23.2517V16.7985C71.7405 14.7578 72.6859 13.7098 74.5767 13.7098C75.3553 13.6547 76.1339 13.9304 76.69 14.482C77.2461 15.1163 77.5242 15.9436 77.4408 16.771V23.2517ZM92.6509 19.3908C91.9279 19.0875 91.2327 18.7841 90.5376 18.5359C89.8702 18.3153 89.2585 17.9844 88.7302 17.5431C88.2575 17.157 87.9794 16.5228 88.035 15.916C87.9794 15.2266 88.2853 14.5923 88.8692 14.2062C89.5088 13.8201 90.2595 13.6547 90.9825 13.6822C91.6777 13.6547 92.3728 13.7926 93.0124 14.0959C93.3182 14.2338 93.6519 14.3717 93.9856 14.482C94.2358 14.482 94.4305 14.3441 94.5417 14.1235C94.6529 13.9304 94.7642 13.7098 94.7642 13.4616C94.7642 13.0204 94.3471 12.6619 93.5129 12.3861C92.6787 12.1379 91.8167 12 90.9269 12C90.3708 12 89.8146 12.0552 89.2585 12.193C88.7302 12.3309 88.2019 12.524 87.7291 12.7998C87.2286 13.1031 86.8393 13.5444 86.5613 14.0683C86.2554 14.675 86.1164 15.3645 86.1164 16.0539C86.0886 16.9088 86.3388 17.7362 86.8393 18.4256C87.3121 19.0323 87.9238 19.5012 88.6468 19.8321C89.3697 20.1354 90.0649 20.4112 90.76 20.6594C91.4274 20.9076 92.0391 21.2937 92.5675 21.7901C93.068 22.3141 93.3182 23.0035 93.2904 23.7206C93.346 24.4652 93.0402 25.2098 92.484 25.7337C91.8445 26.2301 91.0659 26.4508 90.2595 26.4232C89.7034 26.4508 89.1751 26.3404 88.6746 26.1474C88.2853 26.0371 87.9516 25.8165 87.6457 25.5407L86.9506 24.8788C86.8115 24.7409 86.6447 24.6306 86.4501 24.603C86.2276 24.6306 86.033 24.7409 85.9217 24.9064C85.7827 25.0994 85.6715 25.3201 85.6715 25.5958C85.6715 26.1198 86.1164 26.6438 87.0896 27.1678C88.0906 27.7469 89.2307 28.0227 90.3708 27.9951C91.622 28.0503 92.8733 27.6366 93.8466 26.8644C94.7642 25.9819 95.2369 24.7409 95.1535 23.4999C95.2647 21.7901 94.2636 20.1354 92.6509 19.3908ZM110.141 12.1103H101.271C101.076 12.1103 100.909 12.193 100.798 12.3585C100.548 12.717 100.548 13.1858 100.798 13.5168C100.909 13.6547 101.076 13.765 101.271 13.765H104.802V27.2229C104.802 27.416 104.913 27.609 105.08 27.6918C105.47 27.94 105.97 27.94 106.359 27.6918C106.554 27.609 106.637 27.416 106.637 27.2229V13.765H110.113C110.308 13.7926 110.503 13.6822 110.586 13.5168C110.697 13.3513 110.781 13.1307 110.753 12.9376C110.753 12.7446 110.697 12.5516 110.586 12.3861C110.503 12.193 110.336 12.1103 110.141 12.1103ZM127.743 12.1103C127.186 12.1103 126.714 12.4964 126.324 13.2686L122.876 19.7769L119.456 13.2686C119.067 12.4964 118.566 12.1103 118.038 12.1103H117.649C117.232 12.193 116.926 12.5791 116.981 13.0204V27.1954C116.981 27.416 117.093 27.609 117.287 27.6918C117.482 27.8021 117.704 27.8848 117.955 27.8572C118.177 27.8572 118.372 27.7745 118.566 27.6642C118.761 27.5814 118.844 27.3884 118.844 27.1954V15.7782L122.153 22.0107C122.237 22.3141 122.515 22.5347 122.821 22.5347C123.154 22.5071 123.433 22.3141 123.544 22.0107L126.853 15.8885V27.1678C126.853 27.3608 126.964 27.5539 127.131 27.6366C127.52 27.8572 128.021 27.8572 128.41 27.6366C128.605 27.5539 128.688 27.3608 128.688 27.1678V12.9652C128.716 12.8825 128.716 12.8273 128.688 12.7446C128.577 12.3309 128.16 12.0276 127.743 12.1103ZM140.533 12.1103C139.922 12.1103 139.532 12.3309 139.421 12.717L134.944 26.9747C134.917 27.0299 134.917 27.0851 134.944 27.1402C134.944 27.3884 135.083 27.609 135.306 27.7193C135.528 27.8572 135.779 27.94 136.057 27.94C136.335 27.9951 136.641 27.8021 136.724 27.5263L137.669 24.3824H143.314L144.26 27.5263C144.343 27.8021 144.649 27.9675 144.927 27.94C145.205 27.9675 145.483 27.8848 145.705 27.7193C145.928 27.6366 146.067 27.4436 146.067 27.1954M146.067 27.1402V27.0575L141.618 12.7446C141.507 12.3309 141.145 12.1379 140.533 12.1379L146.067 27.1402ZM138.087 22.8105L140.506 14.7302L142.953 22.8105H138.087ZM161.722 12.2482C161.333 12.0276 160.832 12.0276 160.443 12.2482C160.276 12.3309 160.165 12.524 160.165 12.717V23.8033L154.743 13.2686C154.604 12.9376 154.381 12.6343 154.131 12.3861C153.908 12.193 153.658 12.1103 153.352 12.1103C152.74 12.1103 152.435 12.3309 152.435 12.7446V27.2229C152.407 27.416 152.518 27.609 152.713 27.6918C153.102 27.94 153.602 27.94 153.992 27.6918C154.159 27.609 154.27 27.416 154.27 27.2229V16.247L159.915 27.1126C160.109 27.5814 160.554 27.9124 161.055 27.94C161.277 27.94 161.499 27.8848 161.722 27.7469C161.889 27.6366 162 27.4711 162 27.2781V12.7446C162 12.524 161.889 12.3585 161.722 12.2482Z" fill="white"/>
<path d="M19.1471 0.144007C9.83041 -1.06947 1.33519 5.52066 0.140253 14.8364C-1.05468 24.1522 5.51745 32.6653 14.8342 33.8601C24.1509 35.0549 32.6462 28.4648 33.8598 19.1676C35.0547 9.85185 28.4826 1.33882 19.1471 0.144007C19.1658 0.144007 19.1658 0.144007 19.1471 0.144007ZM22.6573 10.7293C22.3399 10.748 22.0411 10.86 21.8171 11.084L15.5063 17.3941L14.162 16.0499C20.3794 9.85185 21.4997 9.79584 22.6573 10.7293ZM15.7677 17.6181L22.0598 11.3827C22.4145 11.0467 22.956 11.0467 23.3107 11.3827C23.4788 11.5507 23.5721 11.7934 23.5721 12.0174C23.5535 12.2601 23.4601 12.4842 23.2734 12.6522L16.6266 18.5142L15.7677 17.6181ZM16.2345 18.5702L14.6662 18.9623C14.6288 18.981 14.6101 18.981 14.5728 18.9623C14.5541 18.9249 14.5541 18.8876 14.5728 18.8689L15.525 17.9168L16.2345 18.5702ZM12.2576 17.9168L13.9193 16.2553L15.1703 17.5434L12.3136 18.1595C12.2576 18.1782 12.1829 18.1222 12.1829 18.0662C12.1643 18.0288 12.1829 17.9915 12.2203 17.9728L12.2576 17.9168ZM7.10447 26.5605C7.06713 26.5419 7.02979 26.5232 7.01112 26.4859C6.99244 26.4485 6.99244 26.4112 7.01112 26.3738L8.35541 25.0297L10.0918 26.7472L7.10447 26.5605ZM10.5399 24.7683C10.4092 24.843 10.3345 24.9737 10.3719 25.123L10.6519 26.3552C10.6706 26.4299 10.6333 26.5232 10.5772 26.5605C10.5212 26.6165 10.4279 26.6165 10.3719 26.5605L8.63548 24.7683L13.9567 19.429L16.5332 18.8689L17.7655 20.1011C15.5624 21.9306 13.1351 23.4988 10.5399 24.731V24.7683ZM18.0269 19.9144L16.8506 18.7383L23.4974 12.8949C23.5535 12.8389 23.6281 12.7829 23.6655 12.7082C23.4414 14.5938 20.7715 17.3007 18.0269 19.9144ZM23.1987 10.7666C22.2092 9.73983 22.2465 8.09697 23.2734 7.10752C24.2069 6.21141 25.6633 6.1554 26.6715 6.95816L24.3936 9.23577C24.3376 9.31045 24.3376 9.40379 24.3936 9.47847L26.1674 11.252C25.1592 11.7374 23.9642 11.5321 23.18 10.748L23.1987 10.7666ZM26.8582 10.7666C26.7275 10.8786 26.6155 10.9907 26.4661 11.084L24.7671 9.38512L26.9329 7.21953C27.8664 8.20898 27.8478 9.77717 26.8582 10.7666Z" fill="#D7D7D7"/>
</svg>
