<svg width="20" height="18" viewBox="0 0 20 18" fill="none" xmlns="http://www.w3.org/2000/svg">
<path d="M0.616725 8.76835C-0.266676 9.20305 -0.18459 10.3623 0.757443 10.6992L6.24156 12.6706V16.1516C6.24156 16.7615 6.81225 17.2535 7.51975 17.2535C7.89891 17.2535 8.25853 17.1086 8.50088 16.8559L10.9244 14.3521L15.7674 16.0909C16.5062 16.3571 17.3622 15.9393 17.4834 15.2586L19.9851 1.24021C20.0593 0.832469 19.8522 0.421354 19.4574 0.188838C19.0626 -0.0436786 18.5466 -0.0638973 18.1284 0.14166L0.616725 8.76835ZM2.65324 9.62764L16.002 3.05317L7.41812 11.3227L7.46503 11.3564L2.65324 9.62764ZM15.7518 14.3353L9.23965 11.9932L17.6085 3.92931L15.7518 14.3353Z" fill="white"/>
</svg>
