<svg width="236" height="34" viewBox="0 0 236 34" fill="none" xmlns="http://www.w3.org/2000/svg">
<path d="M32.7977 3.59511L25.8036 0.211353C24.9866 -0.182418 24.0235 -0.0155658 23.3859 0.625146L9.98221 12.9121L4.14383 8.46052C3.59918 8.04005 2.83534 8.08009 2.33718 8.5406L0.464118 10.2492C-0.153595 10.8098 -0.153594 11.7909 0.457476 12.3515L5.52538 16.9967L0.457476 21.6418C-0.153594 22.2024 -0.153595 23.1835 0.464118 23.7442L2.33718 25.4594C2.84862 25.9199 3.60582 25.9533 4.14383 25.5395L9.98221 21.0879L23.3859 33.3749C24.0169 34.0156 24.9866 34.1824 25.797 33.7886L32.7977 30.4049C33.535 30.0512 33.9999 29.3037 33.9999 28.4828V5.51725C34.0066 4.69633 33.535 3.94884 32.7977 3.59511ZM25.5114 24.7586L15.3357 16.9967L25.5114 9.23471V24.7586Z" fill="#D7D7D7"/>
<path d="M61.1763 26.5181L65.9941 12.6484H68.3413L62.2881 29H60.6147L61.1763 26.5181ZM56.6729 12.6484L61.4458 26.5181L62.041 29H60.3677L54.3257 12.6484H56.6729ZM71.5194 16.8486V29H69.4305V16.8486H71.5194ZM69.2733 13.6255C69.2733 13.2886 69.3743 13.0041 69.5765 12.772C69.7861 12.5399 70.0931 12.4238 70.4974 12.4238C70.8942 12.4238 71.1974 12.5399 71.407 12.772C71.6242 13.0041 71.7327 13.2886 71.7327 13.6255C71.7327 13.9474 71.6242 14.2244 71.407 14.4565C71.1974 14.6812 70.8942 14.7935 70.4974 14.7935C70.0931 14.7935 69.7861 14.6812 69.5765 14.4565C69.3743 14.2244 69.2733 13.9474 69.2733 13.6255ZM80.964 25.7769C80.964 25.4774 80.8966 25.2004 80.7618 24.9458C80.6346 24.6838 80.3688 24.4479 79.9645 24.2383C79.5677 24.0212 78.9687 23.834 78.1676 23.6768C77.4938 23.5345 76.8836 23.366 76.337 23.1714C75.798 22.9767 75.3375 22.7409 74.9557 22.4639C74.5813 22.1868 74.2931 21.8612 74.091 21.4868C73.8888 21.1125 73.7877 20.6745 73.7877 20.1729C73.7877 19.6937 73.8925 19.2407 74.1022 18.814C74.3193 18.3872 74.6225 18.0091 75.0118 17.6797C75.4087 17.3503 75.8841 17.092 76.4381 16.9048C76.9922 16.7176 77.6098 16.624 78.2911 16.624C79.2645 16.624 80.0955 16.7962 80.7843 17.1406C81.4731 17.485 82.0009 17.9455 82.3678 18.522C82.7347 19.091 82.9181 19.7236 82.9181 20.4199H80.8405C80.8405 20.083 80.7394 19.7573 80.5372 19.4429C80.3426 19.1209 80.0543 18.8551 79.6725 18.6455C79.2981 18.4359 78.8377 18.3311 78.2911 18.3311C77.7146 18.3311 77.2467 18.4209 76.8873 18.6006C76.5354 18.7728 76.2771 18.9937 76.1124 19.2632C75.9552 19.5327 75.8766 19.8172 75.8766 20.1167C75.8766 20.3413 75.914 20.5435 75.9889 20.7231C76.0713 20.8953 76.2135 21.0563 76.4157 21.2061C76.6178 21.3483 76.9023 21.4831 77.2692 21.6104C77.636 21.7376 78.104 21.8649 78.673 21.9922C79.6687 22.2168 80.4886 22.4863 81.1325 22.8008C81.7763 23.1152 82.2555 23.5008 82.57 23.9575C82.8844 24.4142 83.0416 24.9683 83.0416 25.6196C83.0416 26.1512 82.9293 26.6379 82.7047 27.0796C82.4876 27.5213 82.1694 27.9032 81.7501 28.2251C81.3383 28.5396 80.8442 28.7866 80.2677 28.9663C79.6987 29.1385 79.0586 29.2246 78.3473 29.2246C77.2767 29.2246 76.3707 29.0337 75.6295 28.6519C74.8883 28.27 74.3268 27.7759 73.945 27.1694C73.5631 26.563 73.3722 25.9229 73.3722 25.249H75.4611C75.491 25.818 75.6557 26.271 75.9552 26.6079C76.2547 26.9373 76.6215 27.1732 77.0558 27.3154C77.49 27.4502 77.9205 27.5176 78.3473 27.5176C78.9163 27.5176 79.3917 27.4427 79.7736 27.293C80.1629 27.1432 80.4586 26.9373 80.6608 26.6753C80.8629 26.4132 80.964 26.1138 80.964 25.7769ZM92.2392 26.1924V16.8486H94.3281V29H92.3403L92.2392 26.1924ZM92.6323 23.6318L93.497 23.6094C93.497 24.418 93.4109 25.1667 93.2387 25.8555C93.074 26.5368 92.8045 27.1283 92.4301 27.6299C92.0558 28.1315 91.5654 28.5246 90.9589 28.8091C90.3525 29.0861 89.615 29.2246 88.7465 29.2246C88.1551 29.2246 87.6123 29.1385 87.1181 28.9663C86.6315 28.7941 86.2122 28.5283 85.8603 28.1689C85.5084 27.8096 85.2351 27.3416 85.0405 26.7651C84.8533 26.1886 84.7597 25.4961 84.7597 24.6875V16.8486H86.8374V24.71C86.8374 25.2565 86.8972 25.7095 87.017 26.0688C87.1443 26.4207 87.3128 26.7015 87.5224 26.9111C87.7395 27.1133 87.9791 27.2555 88.2412 27.3379C88.5107 27.4202 88.7877 27.4614 89.0722 27.4614C89.9557 27.4614 90.6557 27.293 91.1723 26.9561C91.6889 26.6117 92.0595 26.1512 92.2841 25.5747C92.5162 24.9907 92.6323 24.3431 92.6323 23.6318ZM103.694 26.9224V20.667C103.694 20.1878 103.597 19.7723 103.402 19.4204C103.215 19.061 102.93 18.784 102.549 18.5894C102.167 18.3947 101.695 18.2974 101.134 18.2974C100.609 18.2974 100.149 18.3872 99.7522 18.5669C99.3629 18.7466 99.0559 18.9824 98.8313 19.2744C98.6142 19.5664 98.5056 19.8809 98.5056 20.2178H96.428C96.428 19.7835 96.5403 19.353 96.7649 18.9263C96.9895 18.4995 97.3115 18.1139 97.7307 17.7695C98.1575 17.4176 98.6666 17.1406 99.2581 16.9385C99.857 16.7288 100.523 16.624 101.257 16.624C102.141 16.624 102.919 16.7738 103.593 17.0732C104.274 17.3727 104.806 17.8257 105.188 18.4321C105.577 19.0311 105.772 19.7835 105.772 20.6895V26.3496C105.772 26.7539 105.805 27.1844 105.873 27.6411C105.948 28.0978 106.056 28.4909 106.199 28.8203V29H104.031C103.926 28.7604 103.844 28.4422 103.784 28.0454C103.724 27.6411 103.694 27.2668 103.694 26.9224ZM104.053 21.6328L104.076 23.0928H101.976C101.384 23.0928 100.857 23.1414 100.392 23.2388C99.9282 23.3286 99.5388 23.4671 99.2244 23.6543C98.9099 23.8415 98.6703 24.0773 98.5056 24.3618C98.3409 24.6388 98.2586 24.9645 98.2586 25.3389C98.2586 25.7207 98.3447 26.0688 98.5169 26.3833C98.6891 26.6978 98.9474 26.9486 99.2918 27.1357C99.6437 27.3154 100.074 27.4053 100.583 27.4053C101.22 27.4053 101.781 27.2705 102.268 27.001C102.754 26.7314 103.14 26.402 103.425 26.0127C103.717 25.6234 103.874 25.2453 103.896 24.8784L104.783 25.8779C104.731 26.1924 104.589 26.5405 104.357 26.9224C104.125 27.3042 103.814 27.6711 103.425 28.0229C103.043 28.3674 102.586 28.6556 102.054 28.8877C101.53 29.1123 100.939 29.2246 100.28 29.2246C99.4565 29.2246 98.734 29.0636 98.1126 28.7417C97.4986 28.4198 97.0195 27.9893 96.6751 27.4502C96.3382 26.9036 96.1697 26.2935 96.1697 25.6196C96.1697 24.9683 96.297 24.3955 96.5515 23.9014C96.8061 23.3997 97.1729 22.9842 97.6521 22.6548C98.1313 22.3179 98.7078 22.0633 99.3816 21.8911C100.055 21.7189 100.808 21.6328 101.639 21.6328H104.053ZM110.331 11.75V29H108.242V11.75H110.331ZM126.469 24.8672C126.469 24.4854 126.409 24.1484 126.289 23.8564C126.177 23.557 125.975 23.2874 125.683 23.0479C125.398 22.8083 125.002 22.5799 124.492 22.3628C123.991 22.1457 123.354 21.9248 122.583 21.7002C121.775 21.4606 121.045 21.1948 120.393 20.9028C119.742 20.6034 119.184 20.2627 118.72 19.8809C118.256 19.499 117.9 19.061 117.653 18.5669C117.406 18.0728 117.282 17.5075 117.282 16.8711C117.282 16.2347 117.413 15.647 117.675 15.1079C117.938 14.5688 118.312 14.1009 118.799 13.7041C119.293 13.2998 119.88 12.9854 120.562 12.7607C121.243 12.5361 122.003 12.4238 122.842 12.4238C124.069 12.4238 125.11 12.6597 125.964 13.1313C126.825 13.5955 127.48 14.2057 127.929 14.9619C128.378 15.7106 128.603 16.5117 128.603 17.3652H126.446C126.446 16.7513 126.315 16.2085 126.053 15.7368C125.791 15.2576 125.395 14.8833 124.863 14.6138C124.331 14.3368 123.658 14.1982 122.842 14.1982C122.07 14.1982 121.434 14.3143 120.932 14.5464C120.431 14.7785 120.056 15.0929 119.809 15.4897C119.57 15.8866 119.45 16.3395 119.45 16.8486C119.45 17.193 119.521 17.5075 119.663 17.792C119.813 18.069 120.041 18.3273 120.348 18.5669C120.663 18.8065 121.06 19.0273 121.539 19.2295C122.025 19.4316 122.606 19.6263 123.28 19.8135C124.208 20.0755 125.009 20.3675 125.683 20.6895C126.357 21.0114 126.911 21.3745 127.345 21.7788C127.787 22.1756 128.112 22.6286 128.322 23.1377C128.539 23.6393 128.648 24.2083 128.648 24.8447C128.648 25.5111 128.513 26.1138 128.243 26.6528C127.974 27.1919 127.588 27.6523 127.087 28.0342C126.585 28.416 125.982 28.7118 125.279 28.9214C124.582 29.1235 123.804 29.2246 122.943 29.2246C122.186 29.2246 121.441 29.1198 120.708 28.9102C119.981 28.7005 119.319 28.3861 118.72 27.9668C118.128 27.5475 117.653 27.0309 117.294 26.417C116.942 25.7956 116.766 25.0768 116.766 24.2607H118.922C118.922 24.8223 119.031 25.3052 119.248 25.7095C119.465 26.1063 119.761 26.4357 120.135 26.6978C120.517 26.9598 120.947 27.1545 121.426 27.2817C121.913 27.4015 122.419 27.4614 122.943 27.4614C123.699 27.4614 124.339 27.3566 124.863 27.147C125.387 26.9373 125.784 26.6379 126.053 26.2485C126.33 25.8592 126.469 25.3988 126.469 24.8672ZM135.217 16.8486V18.4434H128.647V16.8486H135.217ZM130.871 13.895H132.949V25.9902C132.949 26.402 133.012 26.7127 133.14 26.9224C133.267 27.132 133.432 27.2705 133.634 27.3379C133.836 27.4053 134.053 27.439 134.285 27.439C134.457 27.439 134.637 27.424 134.824 27.394C135.019 27.3566 135.165 27.3267 135.262 27.3042L135.273 29C135.109 29.0524 134.892 29.1011 134.622 29.146C134.36 29.1984 134.042 29.2246 133.668 29.2246C133.158 29.2246 132.69 29.1235 132.264 28.9214C131.837 28.7192 131.496 28.3823 131.242 27.9106C130.995 27.4315 130.871 26.7876 130.871 25.979V13.895ZM144.123 26.1924V16.8486H146.212V29H144.224L144.123 26.1924ZM144.516 23.6318L145.381 23.6094C145.381 24.418 145.295 25.1667 145.122 25.8555C144.958 26.5368 144.688 27.1283 144.314 27.6299C143.939 28.1315 143.449 28.5246 142.843 28.8091C142.236 29.0861 141.499 29.2246 140.63 29.2246C140.039 29.2246 139.496 29.1385 139.002 28.9663C138.515 28.7941 138.096 28.5283 137.744 28.1689C137.392 27.8096 137.119 27.3416 136.924 26.7651C136.737 26.1886 136.643 25.4961 136.643 24.6875V16.8486H138.721V24.71C138.721 25.2565 138.781 25.7095 138.901 26.0688C139.028 26.4207 139.196 26.7015 139.406 26.9111C139.623 27.1133 139.863 27.2555 140.125 27.3379C140.394 27.4202 140.671 27.4614 140.956 27.4614C141.839 27.4614 142.539 27.293 143.056 26.9561C143.573 26.6117 143.943 26.1512 144.168 25.5747C144.4 24.9907 144.516 24.3431 144.516 23.6318ZM156.072 26.6416V11.75H158.161V29H156.252L156.072 26.6416ZM147.896 23.0591V22.8232C147.896 21.8949 148.008 21.0526 148.233 20.2964C148.465 19.5327 148.791 18.8776 149.21 18.3311C149.637 17.7845 150.142 17.3652 150.726 17.0732C151.318 16.7738 151.977 16.624 152.703 16.624C153.466 16.624 154.133 16.7588 154.702 17.0283C155.278 17.2904 155.765 17.6759 156.162 18.1851C156.566 18.6867 156.884 19.2931 157.116 20.0044C157.348 20.7157 157.509 21.5205 157.599 22.4189V23.4521C157.517 24.3431 157.356 25.1442 157.116 25.8555C156.884 26.5667 156.566 27.1732 156.162 27.6748C155.765 28.1764 155.278 28.562 154.702 28.8315C154.125 29.0936 153.451 29.2246 152.68 29.2246C151.969 29.2246 151.318 29.0711 150.726 28.7642C150.142 28.4572 149.637 28.0267 149.21 27.4727C148.791 26.9186 148.465 26.2673 148.233 25.5186C148.008 24.7624 147.896 23.9425 147.896 23.0591ZM149.985 22.8232V23.0591C149.985 23.6655 150.045 24.2345 150.165 24.7661C150.292 25.2977 150.487 25.7656 150.749 26.1699C151.011 26.5742 151.344 26.8924 151.748 27.1245C152.153 27.3491 152.635 27.4614 153.197 27.4614C153.886 27.4614 154.451 27.3154 154.893 27.0234C155.342 26.7314 155.701 26.3459 155.971 25.8667C156.24 25.3875 156.45 24.8672 156.6 24.3057V21.5991C156.51 21.1873 156.379 20.7905 156.207 20.4087C156.042 20.0194 155.825 19.675 155.555 19.3755C155.293 19.0685 154.968 18.8252 154.578 18.6455C154.196 18.4658 153.743 18.376 153.219 18.376C152.65 18.376 152.16 18.4958 151.748 18.7354C151.344 18.9674 151.011 19.2894 150.749 19.7012C150.487 20.1055 150.292 20.5771 150.165 21.1162C150.045 21.6478 149.985 22.2168 149.985 22.8232ZM162.687 16.8486V29H160.598V16.8486H162.687ZM160.44 13.6255C160.44 13.2886 160.541 13.0041 160.744 12.772C160.953 12.5399 161.26 12.4238 161.665 12.4238C162.061 12.4238 162.365 12.5399 162.574 12.772C162.791 13.0041 162.9 13.2886 162.9 13.6255C162.9 13.9474 162.791 14.2244 162.574 14.4565C162.365 14.6812 162.061 14.7935 161.665 14.7935C161.26 14.7935 160.953 14.6812 160.744 14.4565C160.541 14.2244 160.44 13.9474 160.44 13.6255ZM164.506 23.0591V22.8008C164.506 21.9248 164.633 21.1125 164.887 20.3638C165.142 19.6076 165.509 18.9525 165.988 18.3984C166.467 17.8369 167.047 17.4027 167.729 17.0957C168.41 16.7812 169.174 16.624 170.02 16.624C170.873 16.624 171.641 16.7812 172.322 17.0957C173.011 17.4027 173.595 17.8369 174.074 18.3984C174.561 18.9525 174.931 19.6076 175.186 20.3638C175.44 21.1125 175.568 21.9248 175.568 22.8008V23.0591C175.568 23.9351 175.44 24.7474 175.186 25.4961C174.931 26.2448 174.561 26.8999 174.074 27.4614C173.595 28.0155 173.015 28.4497 172.333 28.7642C171.659 29.0711 170.896 29.2246 170.042 29.2246C169.189 29.2246 168.421 29.0711 167.74 28.7642C167.059 28.4497 166.475 28.0155 165.988 27.4614C165.509 26.8999 165.142 26.2448 164.887 25.4961C164.633 24.7474 164.506 23.9351 164.506 23.0591ZM166.583 22.8008V23.0591C166.583 23.6655 166.654 24.2383 166.797 24.7773C166.939 25.3089 167.152 25.7806 167.437 26.1924C167.729 26.6042 168.092 26.9299 168.526 27.1694C168.96 27.4015 169.466 27.5176 170.042 27.5176C170.611 27.5176 171.109 27.4015 171.536 27.1694C171.97 26.9299 172.33 26.6042 172.614 26.1924C172.899 25.7806 173.112 25.3089 173.254 24.7773C173.404 24.2383 173.479 23.6655 173.479 23.0591V22.8008C173.479 22.2018 173.404 21.6366 173.254 21.105C173.112 20.5659 172.895 20.0905 172.603 19.6787C172.318 19.2594 171.959 18.93 171.525 18.6904C171.098 18.4508 170.596 18.3311 170.02 18.3311C169.451 18.3311 168.949 18.4508 168.515 18.6904C168.088 18.93 167.729 19.2594 167.437 19.6787C167.152 20.0905 166.939 20.5659 166.797 21.105C166.654 21.6366 166.583 22.2018 166.583 22.8008ZM192.132 23.8003H194.288C194.176 24.8335 193.88 25.7581 193.401 26.5742C192.922 27.3903 192.245 28.0379 191.369 28.5171C190.493 28.9888 189.4 29.2246 188.089 29.2246C187.131 29.2246 186.259 29.0449 185.473 28.6855C184.694 28.3262 184.024 27.8171 183.462 27.1582C182.901 26.4919 182.467 25.6945 182.16 24.7661C181.86 23.8302 181.71 22.7896 181.71 21.644V20.0156C181.71 18.8701 181.86 17.8332 182.16 16.9048C182.467 15.9689 182.905 15.1678 183.474 14.5015C184.05 13.8351 184.743 13.3223 185.551 12.9629C186.36 12.6035 187.269 12.4238 188.28 12.4238C189.516 12.4238 190.56 12.6559 191.413 13.1201C192.267 13.5843 192.93 14.2282 193.401 15.0518C193.88 15.8678 194.176 16.8149 194.288 17.8931H192.132C192.027 17.1294 191.833 16.4743 191.548 15.9277C191.264 15.3737 190.859 14.9469 190.335 14.6475C189.811 14.348 189.126 14.1982 188.28 14.1982C187.554 14.1982 186.914 14.3368 186.36 14.6138C185.813 14.8908 185.353 15.2839 184.978 15.793C184.612 16.3021 184.335 16.9123 184.147 17.6235C183.96 18.3348 183.867 19.1247 183.867 19.9932V21.644C183.867 22.4451 183.949 23.1976 184.114 23.9014C184.286 24.6051 184.544 25.2228 184.889 25.7544C185.233 26.286 185.671 26.7052 186.203 27.0122C186.734 27.3117 187.363 27.4614 188.089 27.4614C189.01 27.4614 189.744 27.3154 190.29 27.0234C190.837 26.7314 191.249 26.3122 191.526 25.7656C191.81 25.2191 192.012 24.564 192.132 23.8003ZM195.411 23.0591V22.8008C195.411 21.9248 195.539 21.1125 195.793 20.3638C196.048 19.6076 196.415 18.9525 196.894 18.3984C197.373 17.8369 197.953 17.4027 198.635 17.0957C199.316 16.7812 200.079 16.624 200.926 16.624C201.779 16.624 202.546 16.7812 203.228 17.0957C203.917 17.4027 204.501 17.8369 204.98 18.3984C205.466 18.9525 205.837 19.6076 206.092 20.3638C206.346 21.1125 206.473 21.9248 206.473 22.8008V23.0591C206.473 23.9351 206.346 24.7474 206.092 25.4961C205.837 26.2448 205.466 26.8999 204.98 27.4614C204.501 28.0155 203.92 28.4497 203.239 28.7642C202.565 29.0711 201.801 29.2246 200.948 29.2246C200.094 29.2246 199.327 29.0711 198.646 28.7642C197.964 28.4497 197.38 28.0155 196.894 27.4614C196.415 26.8999 196.048 26.2448 195.793 25.4961C195.539 24.7474 195.411 23.9351 195.411 23.0591ZM197.489 22.8008V23.0591C197.489 23.6655 197.56 24.2383 197.702 24.7773C197.845 25.3089 198.058 25.7806 198.343 26.1924C198.635 26.6042 198.998 26.9299 199.432 27.1694C199.866 27.4015 200.371 27.5176 200.948 27.5176C201.517 27.5176 202.015 27.4015 202.442 27.1694C202.876 26.9299 203.235 26.6042 203.52 26.1924C203.804 25.7806 204.018 25.3089 204.16 24.7773C204.31 24.2383 204.385 23.6655 204.385 23.0591V22.8008C204.385 22.2018 204.31 21.6366 204.16 21.105C204.018 20.5659 203.801 20.0905 203.509 19.6787C203.224 19.2594 202.865 18.93 202.43 18.6904C202.004 18.4508 201.502 18.3311 200.926 18.3311C200.357 18.3311 199.855 18.4508 199.421 18.6904C198.994 18.93 198.635 19.2594 198.343 19.6787C198.058 20.0905 197.845 20.5659 197.702 21.105C197.56 21.6366 197.489 22.2018 197.489 22.8008ZM215.772 26.6416V11.75H217.861V29H215.952L215.772 26.6416ZM207.596 23.0591V22.8232C207.596 21.8949 207.709 21.0526 207.933 20.2964C208.165 19.5327 208.491 18.8776 208.91 18.3311C209.337 17.7845 209.842 17.3652 210.426 17.0732C211.018 16.7738 211.677 16.624 212.403 16.624C213.167 16.624 213.833 16.7588 214.402 17.0283C214.978 17.2904 215.465 17.6759 215.862 18.1851C216.266 18.6867 216.584 19.2931 216.816 20.0044C217.049 20.7157 217.21 21.5205 217.299 22.4189V23.4521C217.217 24.3431 217.056 25.1442 216.816 25.8555C216.584 26.5667 216.266 27.1732 215.862 27.6748C215.465 28.1764 214.978 28.562 214.402 28.8315C213.825 29.0936 213.152 29.2246 212.38 29.2246C211.669 29.2246 211.018 29.0711 210.426 28.7642C209.842 28.4572 209.337 28.0267 208.91 27.4727C208.491 26.9186 208.165 26.2673 207.933 25.5186C207.709 24.7624 207.596 23.9425 207.596 23.0591ZM209.685 22.8232V23.0591C209.685 23.6655 209.745 24.2345 209.865 24.7661C209.992 25.2977 210.187 25.7656 210.449 26.1699C210.711 26.5742 211.044 26.8924 211.448 27.1245C211.853 27.3491 212.336 27.4614 212.897 27.4614C213.586 27.4614 214.151 27.3154 214.593 27.0234C215.042 26.7314 215.401 26.3459 215.671 25.8667C215.94 25.3875 216.15 24.8672 216.3 24.3057V21.5991C216.21 21.1873 216.079 20.7905 215.907 20.4087C215.742 20.0194 215.525 19.675 215.255 19.3755C214.993 19.0685 214.668 18.8252 214.278 18.6455C213.897 18.4658 213.444 18.376 212.919 18.376C212.35 18.376 211.86 18.4958 211.448 18.7354C211.044 18.9674 210.711 19.2894 210.449 19.7012C210.187 20.1055 209.992 20.5771 209.865 21.1162C209.745 21.6478 209.685 22.2168 209.685 22.8232ZM225.172 29.2246C224.326 29.2246 223.558 29.0824 222.87 28.7979C222.188 28.5059 221.6 28.0978 221.106 27.5737C220.62 27.0496 220.245 26.4282 219.983 25.7095C219.721 24.9907 219.59 24.2046 219.59 23.3511V22.8794C219.59 21.8911 219.736 21.0114 220.028 20.2402C220.32 19.4616 220.717 18.8027 221.219 18.2637C221.72 17.7246 222.289 17.3166 222.926 17.0396C223.562 16.7625 224.221 16.624 224.902 16.624C225.771 16.624 226.519 16.7738 227.148 17.0732C227.785 17.3727 228.305 17.792 228.709 18.3311C229.114 18.8626 229.413 19.4915 229.608 20.2178C229.802 20.9365 229.9 21.7227 229.9 22.5762V23.5083H220.826V21.8125H227.822V21.6553C227.792 21.1162 227.68 20.5921 227.485 20.083C227.298 19.5739 226.999 19.1546 226.587 18.8252C226.175 18.4958 225.613 18.3311 224.902 18.3311C224.431 18.3311 223.996 18.4321 223.599 18.6343C223.203 18.8289 222.862 19.1209 222.578 19.5103C222.293 19.8996 222.072 20.375 221.915 20.9365C221.758 21.498 221.679 22.1457 221.679 22.8794V23.3511C221.679 23.9276 221.758 24.4704 221.915 24.9795C222.08 25.4811 222.315 25.9229 222.622 26.3047C222.937 26.6865 223.315 26.986 223.757 27.2031C224.206 27.4202 224.715 27.5288 225.284 27.5288C226.018 27.5288 226.639 27.3791 227.148 27.0796C227.657 26.7801 228.103 26.3796 228.485 25.8779L229.743 26.8774C229.481 27.2743 229.147 27.6523 228.743 28.0117C228.339 28.3711 227.841 28.6631 227.249 28.8877C226.665 29.1123 225.973 29.2246 225.172 29.2246Z" fill="white"/>
</svg>
